<svg width="267" height="28" viewBox="0 0 267 28" fill="none" xmlns="http://www.w3.org/2000/svg">
<path d="M129.892 0.258309C128.277 0.617923 127.167 1.15734 125.805 2.21621C123.781 3.77453 122.438 6.0321 121.601 9.24865C120.998 11.5662 120.998 15.9215 121.601 18.4388C122.73 23.1537 125.338 26.3503 128.997 27.549C131.527 28.3681 135.069 28.0085 137.151 26.6899L137.774 26.2903V20.117V13.9436H136.412H135.05V20.1369V26.3103L134.329 26.4701C133.921 26.55 132.986 26.61 132.227 26.61C128.783 26.61 125.999 23.6731 124.715 18.6386C124.112 16.3011 124.092 11.5462 124.695 9.1088C125.883 4.23404 128.646 1.35713 132.111 1.35713C133.473 1.35713 135.439 1.95648 136.451 2.65573C136.84 2.93543 137.21 3.1552 137.268 3.1552C137.346 3.1552 137.385 2.75563 137.385 2.25616C137.385 1.41706 137.346 1.33715 136.607 0.957558C134.816 0.0185671 132.15 -0.261132 129.892 0.258309Z" fill="white"/>
<path d="M257.916 0.318192C255.153 1.3371 253.693 3.41486 253.712 6.27179C253.732 8.72915 254.861 10.4073 258.811 13.8237C260.407 15.2022 262.042 16.7206 262.431 17.1801C264.65 19.7973 264.923 23.1137 263.054 25.0916C262.256 25.9506 261.614 26.2903 260.368 26.53C258.286 26.9296 255.834 26.1105 253.985 24.4123L252.992 23.4933V24.5921C252.992 25.631 253.031 25.7109 253.732 26.1904C256.534 28.1882 260.33 28.5678 263.093 27.1494C264.553 26.3702 266.071 24.692 266.616 23.1736C267.219 21.5354 267.102 19.078 266.324 17.5397C265.623 16.1412 263.794 14.1833 260.972 11.8458C259.726 10.8269 258.305 9.52829 257.799 8.96889C255.989 6.99102 255.483 4.91325 256.359 3.15514C257.76 0.278235 261.906 0.358149 264.631 3.31497L265.448 4.214V3.1951C265.448 2.27609 265.39 2.13624 264.806 1.67673C262.879 0.178342 259.921 -0.421013 257.916 0.318192Z" fill="white"/>
<path d="M0.38925 2.19618C2.66636 10.6071 7.4152 27.8286 7.47359 27.9085C7.53198 27.9485 7.60983 27.9485 7.66822 27.8886C7.7266 27.8486 8.95274 23.4933 10.393 18.219C11.8526 12.9646 13.0788 8.50939 13.1372 8.34957C13.1956 8.18974 14.4606 12.4851 15.9592 17.9193C17.4384 23.3335 18.7034 27.8286 18.7618 27.8886C18.8202 27.9485 18.8981 27.9485 18.937 27.9085C19.0343 27.8286 26.4495 1.0574 26.4495 0.837639C26.4495 0.797682 26.1381 0.757725 25.7683 0.757725C25.1844 0.757725 25.0871 0.837639 24.9314 1.39704C22.4792 10.767 19.7155 20.936 19.6376 20.936C19.5793 20.936 18.3531 16.4209 16.9129 10.8868L14.266 0.857617L12.7479 0.797682C11.2493 0.737746 11.2298 0.737746 11.3855 1.19725C11.4634 1.45697 11.7553 2.51584 12.0473 3.5747L12.5728 5.49264L10.5097 13.2243C9.38091 17.4598 8.40779 20.936 8.3494 20.936C8.29102 20.936 7.06488 16.4209 5.62466 10.8868L2.99722 0.857617L1.49861 0.797682L0 0.737746L0.38925 2.19618Z" fill="white"/>
<path d="M30.5371 14.1434V27.529H36.5705H42.6038V26.8298V26.1305H37.9329H33.2619V19.4377V12.7449L37.3101 12.705L41.3388 12.645L41.3972 12.0057L41.4556 11.3464L37.4074 11.3065L33.3592 11.2465L33.3008 6.69144L33.2619 2.15632H37.9329H42.6038V1.45707V0.757819H36.5705H30.5371V14.1434Z" fill="white"/>
<path d="M48.0527 14.1233V27.5289H51.5171C56.5384 27.5289 58.0954 27.0095 60.5087 24.5321C61.9879 23.0338 62.9999 21.1957 63.6616 18.8383C64.0509 17.4597 64.1093 16.8005 64.1093 13.9435C64.1093 10.3074 63.8757 9.10872 62.8053 6.85115C61.5792 4.23396 59.6329 2.37596 57.0444 1.33707C56.0518 0.917525 55.5263 0.877568 52.0036 0.797654L48.0527 0.71774V14.1233ZM56.188 2.63568C58.3289 3.85437 60.0416 6.45158 60.8396 9.6881C61.3456 11.7259 61.2872 16.7006 60.7423 18.7583C59.9054 21.9349 58.2121 24.4922 56.188 25.631C55.2539 26.1704 54.9425 26.2303 52.9767 26.2903L50.7775 26.3702V14.1433V1.91645L52.9767 1.99637C54.9425 2.0563 55.2539 2.11624 56.188 2.63568Z" fill="white"/>
<path d="M69.4609 14.1434V27.529H73.0226C75.3581 27.529 76.8956 27.4292 77.5379 27.2493C80.4572 26.4502 82.7538 24.4524 84.1551 21.4556C85.3423 18.8983 85.7121 17.0603 85.6926 13.7439C85.6537 10.6871 85.2839 8.84912 84.2135 6.59155C83.3571 4.7735 81.2747 2.6358 79.5814 1.81668C77.752 0.937626 76.6621 0.757819 72.8669 0.757819H69.4609V14.1434ZM77.4989 2.53591C79.5036 3.53483 81.08 5.65256 82.0532 8.64934C82.5397 10.1277 82.5786 10.4874 82.5786 13.8438C82.5981 17.9793 82.4035 18.9982 81.119 21.6953C80.2237 23.5733 78.9197 25.0317 77.4989 25.751C76.7204 26.1505 76.195 26.2504 74.4239 26.2904L72.283 26.3703V14.1434V1.91657L74.4239 1.99649C76.1755 2.05642 76.7399 2.15632 77.4989 2.53591Z" fill="white"/>
<path d="M91.1621 14.1433V27.5289H92.5829H93.9842V14.1433V0.757697H92.5829H91.1621V14.1433Z" fill="white"/>
<path d="M100.407 2.05627L101.186 3.35487V15.4419V27.5289H101.867H102.548L102.587 16.6606L102.646 5.79225L109.263 16.8604C112.902 22.9538 115.938 27.9285 116.036 27.9285C116.114 27.9285 116.172 21.815 116.172 14.3431V0.757662H115.491H114.81L114.771 10.4672L114.712 20.1768L108.951 10.5072L103.191 0.857555L101.4 0.79762L99.6289 0.737684L100.407 2.05627Z" fill="white"/>
<path d="M155.388 0.997439C155.427 1.13729 155.642 1.85652 155.856 2.59572L156.245 3.95426L152.761 15.6617C150.834 22.1147 149.258 27.429 149.258 27.469C149.258 27.489 149.55 27.5289 149.92 27.5289C150.503 27.5289 150.62 27.449 150.795 26.8696C150.893 26.53 151.262 25.3113 151.593 24.1725L152.197 22.1347H156.77H161.344L161.597 22.794C161.733 23.1336 162.103 24.3523 162.414 25.4911L162.979 27.5289H164.38C165.159 27.5289 165.801 27.469 165.801 27.4091C165.801 27.3291 159.495 5.23289 158.288 1.09733C158.211 0.817632 157.938 0.757697 156.751 0.757697C155.68 0.757697 155.33 0.817632 155.388 0.997439ZM159.009 13.6039L161.072 20.8361L156.887 20.8961C154.591 20.916 152.683 20.916 152.644 20.8761C152.547 20.7762 156.731 6.35168 156.848 6.35168C156.907 6.35168 157.88 9.60818 159.009 13.6039Z" fill="white"/>
<path d="M170.53 14.2832C172.554 21.7352 174.247 27.8686 174.286 27.9085C174.325 27.9485 174.422 27.9285 174.5 27.8686C174.559 27.7887 175.824 23.3734 177.283 18.0391C178.763 12.6849 180.008 8.28961 180.047 8.24965C180.086 8.18972 181.351 12.605 182.83 18.0391C184.309 23.4733 185.594 27.9285 185.672 27.9285C185.75 27.9285 185.905 27.6288 186.022 27.2692C186.275 26.4701 192.97 2.05631 193.145 1.29713C193.282 0.797664 193.243 0.757707 192.62 0.757707H191.958L189.233 10.9268C187.754 16.5208 186.47 20.996 186.411 20.8761C186.333 20.7362 185.127 16.1612 183.687 10.687L181.079 0.757707H179.599H178.101L178.763 3.09519L179.405 5.45266L177.322 13.2842C176.174 17.5996 175.181 21.0159 175.123 20.8761C175.065 20.7362 173.839 16.1612 172.398 10.687L169.81 0.757707H168.331H166.832L170.53 14.2832Z" fill="white"/>
<path d="M199.782 2.39597L200.249 4.01424L197.213 15.422C195.559 21.6952 194.157 26.9895 194.099 27.1694C194.002 27.469 194.118 27.529 194.839 27.529H195.695L196.045 25.7709C196.24 24.8119 196.473 23.6132 196.59 23.0738L196.785 22.1348H201.028C203.947 22.1348 205.329 22.2147 205.426 22.3545C205.485 22.4744 205.874 23.6731 206.263 25.0117L206.983 27.4291L208.404 27.489L209.825 27.5489L209.708 27.0295C209.611 26.6299 206.38 15.3421 202.565 2.0963L202.176 0.757735H200.755H199.315L199.782 2.39597ZM204.706 19.5775L205.076 20.936H201.105C198.926 20.936 197.135 20.8961 197.135 20.8561C197.135 20.8162 197.972 17.5797 198.984 13.6639C199.996 9.74807 200.833 6.47159 200.852 6.39168C200.852 6.27181 203.791 16.321 204.706 19.5775Z" fill="white"/>
<path d="M214.457 14.1433V27.5289H215.819H217.182V14.7227V1.91645L219.284 1.99637C221.249 2.0563 221.464 2.09626 222.359 2.65566C224.675 4.13407 225.298 8.22967 223.604 10.9467C222.787 12.2254 221.872 12.8047 220.451 12.9046C219.498 12.9846 219.303 13.0445 219.381 13.3242C219.42 13.504 220.899 16.7605 222.651 20.5764L225.843 27.5289H227.361H228.898L225.57 20.8561C223.741 17.18 222.242 14.1034 222.242 14.0035C222.242 13.9235 222.67 13.6838 223.176 13.504C224.908 12.8647 226.582 11.1266 227.205 9.34846C227.614 8.14975 227.575 6.19186 227.108 4.91323C226.426 3.03525 224.441 1.47692 222.086 0.977461C221.522 0.85759 219.576 0.757697 217.766 0.757697H214.457V14.1433Z" fill="white"/>
<path d="M233.92 14.1434V27.529H237.384C242.483 27.529 244.274 26.9097 246.668 24.3125C249.003 21.7752 250.132 18.3789 250.113 13.9436C250.113 9.46846 248.984 6.172 246.59 3.73462C244.254 1.3372 242.425 0.757819 237.384 0.757819H233.92V14.1434ZM241.9 2.53591C243.32 3.29509 243.963 3.89445 244.916 5.3329C246.473 7.65041 247.154 10.3675 247.154 14.1434C247.154 19.6375 245.052 24.1926 241.802 25.7709C240.751 26.2704 240.42 26.3303 238.649 26.3303H236.645V14.1235V1.91657L238.844 1.99649C240.654 2.05642 241.179 2.15632 241.9 2.53591Z" fill="white"/>
</svg>
