<svg width="48" height="28" viewBox="0 0 48 28" fill="none" xmlns="http://www.w3.org/2000/svg">
<path d="M18.4963 0.231059C12.8688 1.13428 8.35849 5.46137 7.13782 11.0698C6.88955 12.2251 6.86886 11.805 6.84817 6.23856L6.82748 0.147038L3.41374 3.6129L0 7.07877V10.4816V13.9055L3.35167 13.9475L6.70335 14.0105L6.95162 15.7959C7.44816 19.2408 8.75159 21.7614 11.2757 24.156C13.5101 26.2776 16.0963 27.4539 19.4066 27.853L20.4825 28L20.4411 24.4711L20.379 20.9422L19.3859 20.7952C17.2135 20.4801 15.2894 18.9887 14.2963 16.8672C13.8619 15.901 13.7584 15.3968 13.7584 14.0105C13.7584 12.5191 13.8412 12.162 14.4412 10.9227C15.8067 8.10803 18.6618 6.63766 21.6824 7.2048C23.0479 7.47787 23.7927 7.81395 24.9513 8.75919C25.9444 9.5994 27.0617 11.5949 27.2272 12.9392L27.372 13.9055H24.0203H20.6893V14.8087C20.6893 15.3128 20.8755 16.4471 21.1031 17.3503C22.779 24.051 29.2754 28.6302 35.896 27.7689C44.089 26.7187 49.5924 18.6527 47.5855 10.6707C46.1372 4.87322 41.5649 0.924232 35.4202 0.147038L34.3443 1.06543e-06L34.3857 3.52888L34.4478 7.07877L35.5443 7.22581C37.6753 7.54089 39.3718 8.84321 40.3856 10.9227C40.9856 12.162 41.0683 12.5191 41.0683 14.0105C41.0683 15.3968 40.9649 15.901 40.5097 16.8882C38.896 20.4171 34.7788 21.8875 31.2823 20.186C29.3582 19.2408 27.7444 16.8882 27.6617 14.9137L27.6203 14.0105L30.8892 13.9475L34.1374 13.8845V13.2123C34.1374 12.8552 33.9926 11.889 33.8271 11.0908C32.834 6.32258 29.2134 2.26857 24.5996 0.777195C22.841 0.231059 20.1307 -0.0210042 18.4963 0.231059Z" fill="white"/>
</svg>
