<svg width="27" height="27" viewBox="0 0 27 27" fill="none" xmlns="http://www.w3.org/2000/svg">
<circle cx="13.5" cy="13.5" r="13" stroke="white"/>
<path d="M10.1528 7.20726C8.80261 7.32727 7.96247 7.82873 7.52097 8.79307C7.19092 9.50883 7.15234 10.0189 7.15234 13.5034C7.15234 16.2849 7.17806 16.9836 7.30665 17.575C7.49526 18.4451 8.02248 19.1265 8.78546 19.478C9.50129 19.808 10.0114 19.8466 13.4962 19.8466C17.0325 19.8466 17.5126 19.808 18.2327 19.4609C18.8199 19.178 19.1714 18.8265 19.4543 18.2393C19.7972 17.5322 19.8401 17.0093 19.8401 13.5034C19.8401 10.0146 19.8015 9.50883 19.4714 8.79307C19.2143 8.23161 18.8285 7.8373 18.2755 7.56728C17.834 7.35299 17.4568 7.26298 16.7539 7.20298C16.1666 7.15155 10.7358 7.15583 10.1528 7.20726ZM17.9884 8.51448C18.6056 8.77164 18.7513 9.62884 18.2498 10.0489C18.0269 10.2374 17.8383 10.3017 17.564 10.2803C16.8096 10.2246 16.441 9.32453 16.9382 8.75878C17.1954 8.46734 17.6369 8.36448 17.9884 8.51448ZM14.0106 9.56455C16.1366 9.82599 17.6883 11.8018 17.444 13.9362C17.234 15.8006 15.7937 17.2407 13.9291 17.4507C12.0774 17.6607 10.3243 16.5378 9.72418 14.7591C9.02979 12.6847 10.1571 10.4303 12.2403 9.7317C12.8361 9.53454 13.3676 9.48311 14.0106 9.56455Z" fill="white"/>
<path d="M12.8899 10.9956C12.2726 11.1499 11.724 11.5313 11.3768 12.0456C10.6095 13.1771 10.8538 14.7372 11.9254 15.543C13.64 16.8331 16.0704 15.6373 16.0704 13.5029C16.0704 12.4314 15.4274 11.4927 14.4201 11.0984C14.1243 10.9827 14.0086 10.9613 13.6057 10.9484C13.2885 10.9399 13.0527 10.9527 12.8899 10.9956Z" fill="white"/>
</svg>
