<svg width="27" height="27" viewBox="0 0 27 27" fill="none" xmlns="http://www.w3.org/2000/svg">
<path d="M27 13.5C27 20.9558 20.9558 27 13.5 27C6.04416 27 0 20.9558 0 13.5C0 6.04416 6.04416 9.13867e-07 13.5 9.13867e-07C20.9558 9.13867e-07 27 6.04416 27 13.5Z" fill="#121212"/>
<path d="M12.3203 0.0492153C8.13682 0.443525 4.43766 2.67223 2.16587 6.16958C-0.748879 10.6527 -0.718874 16.4902 2.23874 20.9476C3.43036 22.7391 5.10205 24.2864 6.95806 25.3107C11.3859 27.7452 16.7653 27.5351 20.9403 24.7664C22.432 23.7763 23.7907 22.4134 24.7595 20.9433C26.997 17.5445 27.5928 13.37 26.3926 9.49978C25.0895 5.28238 21.7418 1.93504 17.5069 0.610677C15.9038 0.109219 13.9449 -0.10508 12.3203 0.0492153ZM16.4567 5.78813C18.197 5.87813 19.1143 6.22101 19.963 7.08249C20.4388 7.56681 20.6874 7.97826 20.9146 8.6383C21.1932 9.44406 21.2532 10.3141 21.2532 13.5029C21.2575 17.1588 21.1675 17.9774 20.6788 18.9461C20.3273 19.6447 19.6372 20.3347 18.9428 20.6819C17.9698 21.1748 17.1554 21.2605 13.4991 21.2605C10.3272 21.2605 9.43989 21.1962 8.63404 20.9176C7.96965 20.6904 7.60531 20.4676 7.09523 19.979C6.59372 19.4947 6.31939 19.0575 6.08364 18.3675C5.80502 17.5617 5.74501 16.6916 5.74501 13.5029C5.74501 10.3484 5.80502 9.44835 6.07078 8.65973C6.29367 7.99969 6.54228 7.59681 7.02236 7.10392C7.85821 6.24244 8.82265 5.86956 10.4343 5.78813C11.3345 5.74527 15.5994 5.74098 16.4567 5.78813Z" fill="white"/>
<path d="M10.1528 7.20726C8.80261 7.32727 7.96247 7.82872 7.52097 8.79307C7.19092 9.50882 7.15234 10.0189 7.15234 13.5033C7.15234 16.2849 7.17806 16.9836 7.30665 17.575C7.49526 18.4451 8.02248 19.1265 8.78546 19.478C9.50129 19.808 10.0114 19.8466 13.4962 19.8466C17.0325 19.8466 17.5126 19.808 18.2327 19.4608C18.8199 19.178 19.1714 18.8265 19.4543 18.2393C19.7972 17.5322 19.8401 17.0093 19.8401 13.5033C19.8401 10.0146 19.8015 9.50882 19.4714 8.79307C19.2143 8.2316 18.8285 7.8373 18.2755 7.56728C17.834 7.35298 17.4568 7.26298 16.7539 7.20297C16.1666 7.15154 10.7358 7.15583 10.1528 7.20726ZM17.9884 8.51448C18.6056 8.77164 18.7513 9.62883 18.2498 10.0489C18.0269 10.2374 17.8383 10.3017 17.564 10.2803C16.8096 10.2246 16.441 9.32453 16.9382 8.75878C17.1954 8.46733 17.6369 8.36447 17.9884 8.51448ZM14.0106 9.56454C16.1366 9.82599 17.6883 11.8018 17.444 13.9362C17.2339 15.8006 15.7937 17.2407 13.9291 17.4507C12.0774 17.6607 10.3243 16.5378 9.72418 14.7591C9.02979 12.6847 10.1571 10.4303 12.2403 9.73169C12.8361 9.53454 13.3676 9.48311 14.0106 9.56454Z" fill="white"/>
<path d="M12.8899 10.9956C12.2726 11.1499 11.724 11.5313 11.3768 12.0456C10.6095 13.1771 10.8538 14.7372 11.9254 15.543C13.64 16.8331 16.0704 15.6373 16.0704 13.5029C16.0704 12.4314 15.4274 11.4927 14.4201 11.0984C14.1243 10.9827 14.0086 10.9613 13.6057 10.9484C13.2885 10.9399 13.0527 10.9527 12.8899 10.9956Z" fill="white"/>
</svg>
