<svg width="27" height="27" viewBox="0 0 27 27" fill="none" xmlns="http://www.w3.org/2000/svg">
<path d="M13.5 27C20.9558 27 27 20.9558 27 13.5C27 6.04416 20.9558 0 13.5 0C6.04416 0 0 6.04416 0 13.5C0 20.9558 6.04416 27 13.5 27Z" fill="white"/>
<path d="M6.1756 12.209L19.1919 7.19033C19.796 6.97208 20.3236 7.3377 20.1279 8.2512L20.129 8.25008L17.9127 18.6912C17.7485 19.4315 17.3086 19.6115 16.6932 19.2627L13.3182 16.7753L11.6903 18.3436C11.5103 18.5236 11.3585 18.6755 11.0097 18.6755L11.2494 15.2408L17.5044 9.58995C17.7766 9.35033 17.4436 9.21533 17.0847 9.45383L9.35485 14.3206L6.0226 13.2811C5.29922 13.0516 5.28347 12.5577 6.1756 12.209V12.209Z" fill="#121212"/>
</svg>
