<svg width="27" height="27" viewBox="0 0 27 27" fill="none" xmlns="http://www.w3.org/2000/svg">
<circle cx="13.5" cy="13.5" r="13.5" fill="#121212"/>
<path d="M13.5 0C6.04406 0 0 6.04406 0 13.5C0 20.9559 6.04406 27 13.5 27C20.9559 27 27 20.9559 27 13.5C27 6.04406 20.9559 0 13.5 0ZM18.6919 15.2311C18.6919 15.2311 19.8858 16.4095 20.1797 16.9566C20.1881 16.9678 20.1923 16.9791 20.1952 16.9847C20.3147 17.1858 20.3428 17.3419 20.2838 17.4586C20.1853 17.6527 19.8478 17.7483 19.7325 17.7567H17.6231C17.4769 17.7567 17.1703 17.7188 16.7991 17.4628C16.5136 17.2631 16.2323 16.9355 15.9581 16.6162C15.5489 16.1409 15.1945 15.7303 14.8373 15.7303C14.792 15.7302 14.7469 15.7374 14.7038 15.7514C14.4338 15.8386 14.0878 16.2239 14.0878 17.2505C14.0878 17.5711 13.8347 17.7553 13.6561 17.7553H12.69C12.3609 17.7553 10.6467 17.64 9.12797 16.0383C7.26891 14.0766 5.59547 10.1419 5.58141 10.1053C5.47594 9.85078 5.69391 9.71437 5.93156 9.71437H8.06203C8.34609 9.71437 8.43891 9.88734 8.50359 10.0406C8.57953 10.2192 8.85797 10.9294 9.315 11.7281C10.0561 13.0303 10.5103 13.5591 10.8745 13.5591C10.9428 13.5583 11.0099 13.5409 11.07 13.5084C11.5453 13.2441 11.4567 11.5495 11.4356 11.198C11.4356 11.1319 11.4342 10.44 11.1909 10.1081C11.0166 9.86766 10.7198 9.77625 10.5398 9.7425C10.6127 9.64197 10.7087 9.56045 10.8197 9.50484C11.1459 9.34172 11.7338 9.31781 12.3173 9.31781H12.6422C13.275 9.32625 13.4381 9.36703 13.6673 9.42469C14.1314 9.53578 14.1413 9.83531 14.1005 10.8605C14.0878 11.1516 14.0752 11.4806 14.0752 11.8688C14.0752 11.9531 14.0709 12.0431 14.0709 12.1387C14.0569 12.6605 14.04 13.2525 14.4084 13.4958C14.4565 13.5259 14.512 13.542 14.5688 13.5422C14.6967 13.5422 15.082 13.5422 16.1255 11.752C16.4473 11.1758 16.7269 10.5771 16.9622 9.96047C16.9833 9.92391 17.0452 9.81141 17.1183 9.76781C17.1722 9.7403 17.2321 9.72631 17.2927 9.72703H19.7972C20.07 9.72703 20.257 9.76781 20.2922 9.87328C20.3541 10.0406 20.2809 10.5511 19.1377 12.0994L18.6272 12.773C17.5908 14.1314 17.5908 14.2003 18.6919 15.2311Z" fill="white"/>
</svg>
