<svg width="27" height="27" viewBox="0 0 27 27" fill="none" xmlns="http://www.w3.org/2000/svg">
<circle cx="13.5" cy="13.5" r="13" stroke="white"/>
<path d="M18.6918 15.2311C18.6918 15.2311 19.8857 16.4095 20.1796 16.9566C20.1881 16.9678 20.1923 16.9791 20.1951 16.9847C20.3146 17.1858 20.3428 17.3419 20.2837 17.4586C20.1853 17.6527 19.8478 17.7483 19.7325 17.7567H17.6231C17.4768 17.7567 17.1703 17.7187 16.799 17.4628C16.5136 17.2631 16.2323 16.9355 15.9581 16.6162C15.5489 16.1409 15.1945 15.7303 14.8373 15.7303C14.7919 15.7302 14.7468 15.7374 14.7037 15.7514C14.4337 15.8386 14.0878 16.2239 14.0878 17.2505C14.0878 17.5711 13.8346 17.7553 13.6561 17.7553H12.69C12.3609 17.7553 10.6467 17.64 9.12793 16.0383C7.26887 14.0766 5.59543 10.1419 5.58137 10.1053C5.4759 9.85078 5.69387 9.71437 5.93152 9.71437H8.06199C8.34605 9.71437 8.43887 9.88734 8.50355 10.0406C8.57949 10.2192 8.85793 10.9294 9.31496 11.7281C10.0561 13.0303 10.5103 13.5591 10.8745 13.5591C10.9428 13.5583 11.0099 13.5409 11.07 13.5084C11.5453 13.2441 11.4567 11.5495 11.4356 11.198C11.4356 11.1319 11.4342 10.44 11.1909 10.1081C11.0165 9.86765 10.7198 9.77625 10.5398 9.7425C10.6127 9.64197 10.7086 9.56045 10.8196 9.50484C11.1459 9.34172 11.7337 9.31781 12.3173 9.31781H12.6421C13.275 9.32625 13.4381 9.36703 13.6673 9.42469C14.1314 9.53578 14.1412 9.83531 14.1004 10.8605C14.0878 11.1516 14.0751 11.4806 14.0751 11.8687C14.0751 11.9531 14.0709 12.0431 14.0709 12.1387C14.0568 12.6605 14.04 13.2525 14.4084 13.4958C14.4565 13.5259 14.512 13.542 14.5687 13.5422C14.6967 13.5422 15.082 13.5422 16.1254 11.752C16.4472 11.1758 16.7269 10.5771 16.9621 9.96047C16.9832 9.9239 17.0451 9.8114 17.1182 9.76781C17.1722 9.7403 17.232 9.7263 17.2926 9.72703H19.7971C20.07 9.72703 20.257 9.76781 20.2921 9.87328C20.354 10.0406 20.2809 10.5511 19.1376 12.0994L18.6271 12.773C17.5907 14.1314 17.5907 14.2003 18.6918 15.2311Z" fill="white"/>
</svg>
