<svg width="51" height="15" viewBox="0 0 51 15" fill="none" xmlns="http://www.w3.org/2000/svg">
<path d="M22.2476 3.20215C22.2914 3.20226 22.2914 3.20226 22.336 3.20238C22.3668 3.20232 22.3976 3.20227 22.4293 3.20222C22.5332 3.20208 22.6371 3.20219 22.741 3.20229C22.8151 3.20225 22.8893 3.20219 22.9635 3.20211C23.1655 3.20196 23.3675 3.20202 23.5696 3.20213C23.7805 3.20221 23.9914 3.20213 24.2023 3.20208C24.5793 3.20201 24.9563 3.20212 25.3333 3.20229C25.6754 3.20244 26.0176 3.20242 26.3597 3.20226C26.7566 3.20208 27.1534 3.20201 27.5503 3.20211C27.7606 3.20216 27.9708 3.20217 28.1811 3.20206C28.3787 3.20196 28.5763 3.20203 28.7739 3.20223C28.8467 3.20227 28.9194 3.20226 28.9922 3.20218C29.091 3.20209 29.1899 3.20221 29.2888 3.20238C29.3179 3.2023 29.3471 3.20222 29.3772 3.20215C29.5747 3.20281 29.5747 3.20281 29.6123 3.24051C29.6157 3.3016 29.6166 3.36282 29.6167 3.42399C29.6168 3.46318 29.6169 3.50236 29.617 3.54273C29.6169 3.60671 29.6169 3.60671 29.6168 3.67198C29.6168 3.71542 29.6169 3.75886 29.6169 3.80361C29.617 3.89567 29.6169 3.98773 29.6167 4.07979C29.6165 4.19803 29.6166 4.31627 29.6169 4.43452C29.617 4.54695 29.6169 4.65938 29.6168 4.77181C29.6169 4.81446 29.6169 4.85712 29.617 4.90106C29.6169 4.95984 29.6169 4.95984 29.6167 5.0198C29.6167 5.05449 29.6166 5.08918 29.6166 5.12493C29.6123 5.20328 29.6123 5.20328 29.5785 5.23712C29.5089 5.2404 29.4391 5.24125 29.3693 5.24119C29.3472 5.24122 29.3251 5.24125 29.3024 5.24128C29.2278 5.24134 29.1532 5.24115 29.0786 5.24096C29.0254 5.24095 28.9721 5.24096 28.9189 5.24098C28.7739 5.24099 28.6288 5.24079 28.4838 5.24055C28.3325 5.24034 28.1811 5.24032 28.0297 5.24028C27.7428 5.24018 27.456 5.2399 27.1691 5.23956C26.8426 5.23918 26.5161 5.239 26.1896 5.23883C25.5178 5.23847 24.846 5.23785 24.1742 5.23712C24.1742 5.80666 24.1742 6.3762 24.1742 6.963C24.4081 6.96222 24.6419 6.96143 24.8829 6.96063C25.0317 6.96028 25.1806 6.95995 25.3294 6.9597C25.5653 6.9593 25.8011 6.95882 26.037 6.9579C26.2273 6.95716 26.4176 6.95676 26.6079 6.95658C26.6803 6.95646 26.7526 6.95622 26.8249 6.95585C27.899 6.95061 28.8015 7.19373 29.5997 7.94862C30.2378 8.60829 30.4744 9.42304 30.464 10.3269C30.4482 10.9107 30.2379 11.4544 29.9163 11.9376C29.894 11.9376 29.8717 11.9376 29.8488 11.9376C29.8376 11.9823 29.8265 12.0269 29.815 12.073C29.7927 12.073 29.7704 12.073 29.7474 12.073C29.7398 12.0975 29.7321 12.1221 29.7242 12.1474C29.6706 12.262 29.6057 12.3219 29.511 12.405C29.481 12.4318 29.4511 12.4585 29.4202 12.4861C29.3421 12.5467 29.3421 12.5467 29.2746 12.5467C29.2746 12.5691 29.2746 12.5914 29.2746 12.6144C28.9886 12.843 28.6241 13.0048 28.2802 13.122C28.2546 13.131 28.229 13.14 28.2026 13.1493C27.5307 13.3631 26.826 13.3395 26.1302 13.3365C25.9863 13.336 25.8424 13.336 25.6985 13.336C25.4578 13.3359 25.2171 13.3354 24.9764 13.3346C24.6672 13.3336 24.3579 13.3333 24.0487 13.3331C23.7822 13.333 23.5156 13.3326 23.2491 13.3321C23.1636 13.332 23.078 13.3319 22.9925 13.3318C22.8587 13.3316 22.725 13.3313 22.5912 13.3308C22.542 13.3306 22.4928 13.3305 22.4437 13.3305C22.3769 13.3304 22.31 13.3301 22.2432 13.3298C22.2058 13.3297 22.1683 13.3296 22.1298 13.3295C22.0462 13.3251 22.0462 13.3251 22.0125 13.2912C22.0092 13.2376 22.0082 13.1839 22.0082 13.1302C22.0081 13.0951 22.008 13.0601 22.008 13.024C22.008 12.985 22.0081 12.946 22.0082 12.9058C22.0081 12.8648 22.0081 12.8237 22.008 12.7814C22.0079 12.667 22.008 12.5525 22.0081 12.4381C22.0081 12.3149 22.008 12.1916 22.0079 12.0684C22.0078 11.8268 22.0078 11.5852 22.0079 11.3436C22.008 11.1473 22.008 10.951 22.008 10.7547C22.0079 10.7269 22.0079 10.699 22.0079 10.6702C22.0079 10.6136 22.0079 10.557 22.0079 10.5004C22.0078 9.96871 22.0079 9.43706 22.0081 8.90541C22.0082 8.44872 22.0082 7.99203 22.0081 7.53534C22.0079 7.00566 22.0078 6.47598 22.0079 5.9463C22.0079 5.88987 22.0079 5.83344 22.008 5.77702C22.008 5.74925 22.008 5.72149 22.008 5.69288C22.008 5.49672 22.0079 5.30057 22.0079 5.10441C22.0078 4.86553 22.0078 4.62665 22.008 4.38777C22.0081 4.26577 22.0081 4.14377 22.008 4.02177C22.0079 3.88982 22.008 3.75787 22.0082 3.62592C22.0081 3.58693 22.008 3.54795 22.008 3.50778C22.008 3.47273 22.0081 3.43767 22.0082 3.40155C22.0082 3.37105 22.0082 3.34055 22.0082 3.30912C22.0173 3.16176 22.1251 3.20256 22.2476 3.20215ZM24.1742 8.92577C24.1742 9.71866 24.1742 10.5116 24.1742 11.3285C24.7106 11.3314 24.7106 11.3314 25.247 11.3334C25.4661 11.334 25.6851 11.3347 25.9041 11.3361C26.0809 11.3372 26.2576 11.3378 26.4343 11.3381C26.5015 11.3383 26.5687 11.3387 26.6358 11.3392C27.1377 11.3432 27.6686 11.3406 28.0685 10.9898C28.312 10.7347 28.3803 10.4744 28.3752 10.1271C28.3756 10.1004 28.376 10.0736 28.3764 10.0461C28.3749 9.73357 28.2889 9.49421 28.0735 9.26682C27.7637 9.00264 27.3926 8.91469 26.9964 8.91809C26.9658 8.91808 26.9351 8.91807 26.9035 8.91806C26.803 8.91811 26.7025 8.91863 26.6019 8.91916C26.5319 8.91929 26.4619 8.91939 26.3918 8.91945C26.2081 8.91971 26.0244 8.92038 25.8408 8.92113C25.62 8.92194 25.3993 8.92225 25.1785 8.92265C24.8437 8.9233 24.509 8.9246 24.1742 8.92577Z" fill="white"/>
<path d="M48.3041 3.47228C48.3287 3.48328 48.3533 3.49428 48.3786 3.50561C48.7194 3.6606 49.0222 3.84992 49.3164 4.08117C49.3351 4.09578 49.3538 4.11039 49.373 4.12544C50.0927 4.69603 50.5906 5.41339 50.9193 6.26937C50.9279 6.29168 50.9366 6.31398 50.9454 6.33696C50.9923 6.46488 51.0037 6.54543 51.0037 6.68587C50.2576 6.68587 49.5115 6.68587 48.7428 6.68587C48.6537 6.52959 48.5646 6.37331 48.4728 6.21229C48.3733 6.09171 48.2791 5.98303 48.1691 5.87402C48.1493 5.85296 48.1294 5.83189 48.1089 5.8102C47.5646 5.27655 46.7025 5.11509 45.9756 5.11752C45.3251 5.12788 44.7983 5.31854 44.2548 5.67105C44.2325 5.67105 44.2103 5.67105 44.1873 5.67105C44.1873 5.69338 44.1873 5.71571 44.1873 5.73871C44.1675 5.74717 44.1476 5.75563 44.1272 5.76434C44.0424 5.81192 43.9961 5.86273 43.9342 5.93744C43.8533 6.03352 43.7699 6.12337 43.6812 6.21229C43.67 6.23462 43.6589 6.25694 43.6474 6.27995C43.6251 6.27995 43.6029 6.27995 43.5799 6.27995C43.5714 6.30314 43.563 6.32634 43.5542 6.35024C43.5151 6.44287 43.469 6.52803 43.4191 6.61519C42.9958 7.36206 42.9042 8.33046 43.113 9.16186C43.1764 9.38625 43.2678 9.59295 43.3775 9.79798C43.3944 9.83156 43.4113 9.86514 43.4287 9.89973C43.7891 10.573 44.4129 11.0147 45.1301 11.2462C45.9125 11.4819 46.7794 11.437 47.5074 11.054C47.5709 11.0193 47.6339 10.9839 47.6967 10.9481C47.7484 10.9193 47.7484 10.9193 47.8011 10.8898C48.2482 10.6236 48.5073 10.2698 48.7091 9.79798C49.4663 9.79798 50.2235 9.79798 51.0037 9.79798C50.9657 10.1407 50.9657 10.1407 50.9037 10.289C50.884 10.3368 50.884 10.3368 50.8639 10.3855C50.8502 10.4177 50.8365 10.4498 50.8223 10.483C50.8021 10.532 50.8021 10.532 50.7814 10.5821C50.6571 10.8798 50.6571 10.8798 50.565 11.0158C50.5427 11.0158 50.5204 11.0158 50.4975 11.0158C50.4612 11.1055 50.4268 11.1945 50.3963 11.2864C50.374 11.2864 50.3517 11.2864 50.3288 11.2864C50.3176 11.331 50.3065 11.3757 50.295 11.4217C50.2728 11.4217 50.2505 11.4217 50.2275 11.4217C50.2164 11.4663 50.2053 11.511 50.1938 11.557C50.1715 11.557 50.1493 11.557 50.1263 11.557C50.1181 11.5823 50.1099 11.6075 50.1014 11.6335C50.0535 11.7378 50.0056 11.7829 49.9175 11.8551C49.7874 11.9654 49.6788 12.0807 49.5731 12.2144C49.5103 12.2758 49.4671 12.2804 49.3839 12.3012C49.3728 12.3347 49.3617 12.3682 49.3502 12.4027C49.1689 12.538 49.1689 12.538 49.0802 12.538C49.0802 12.5603 49.0802 12.5826 49.0802 12.6056C49.0468 12.6056 49.0134 12.6056 48.979 12.6056C48.979 12.628 48.979 12.6503 48.979 12.6733C48.8821 12.7219 48.7851 12.7704 48.688 12.8187C48.6199 12.8531 48.5522 12.8884 48.4855 12.9254C47.9648 13.2082 47.3714 13.3774 46.7856 13.4513C46.7386 13.4579 46.7386 13.4579 46.6906 13.4645C45.3738 13.6177 43.9346 13.2551 42.8887 12.4273C42.7195 12.2901 42.5571 12.1465 42.3989 11.9968C42.3699 11.9702 42.3408 11.9437 42.311 11.9164C41.424 11.0748 40.9055 9.83553 40.8397 8.62054C40.8364 8.49143 40.8355 8.36262 40.8361 8.23347C40.8362 8.21074 40.8362 8.18802 40.8363 8.1646C40.838 7.78753 40.8628 7.42565 40.9479 7.05797C40.9535 7.03297 40.9591 7.00796 40.9649 6.98219C41.2239 5.86186 41.8905 4.81179 42.8038 4.115C42.8325 4.0925 42.8611 4.07 42.8907 4.04682C44.4286 2.87614 46.5578 2.68687 48.3041 3.47228Z" fill="white"/>
<path d="M32.1997 3.20113C32.8796 3.20113 33.5596 3.20113 34.2602 3.20113C34.2713 4.56514 34.2825 5.92916 34.294 7.33451C34.4277 7.1668 34.4277 7.1668 34.5642 6.99571C34.6258 6.922 34.6877 6.84855 34.75 6.77549C34.859 6.64715 34.9665 6.51804 35.0709 6.38586C35.1908 6.2341 35.3151 6.08659 35.4402 5.9392C35.5329 5.82975 35.6238 5.7192 35.7127 5.60662C35.8326 5.45486 35.9569 5.30734 36.082 5.15996C36.1973 5.02389 36.3088 4.88528 36.4193 4.74532C36.5008 4.6441 36.5848 4.54513 36.6691 4.44622C36.7976 4.29524 36.9216 4.14158 37.0427 3.98461C37.2504 3.7159 37.4658 3.44174 37.7057 3.20113C37.7834 3.19793 37.8612 3.19715 37.939 3.19728C37.9633 3.19728 37.9877 3.19727 38.0129 3.19727C38.0938 3.19729 38.1748 3.19755 38.2558 3.19782C38.3118 3.19788 38.3677 3.19793 38.4237 3.19796C38.5714 3.19809 38.7191 3.19843 38.8667 3.1988C39.0173 3.19915 39.1679 3.1993 39.3184 3.19947C39.614 3.19984 39.9097 3.20041 40.2053 3.20113C40.2053 3.23467 40.2053 3.26821 40.2053 3.30277C40.183 3.30277 40.1607 3.30277 40.1378 3.30277C40.1287 3.33002 40.1196 3.35727 40.1103 3.38535C40.0971 3.414 40.0838 3.44265 40.0702 3.47217C40.0368 3.48335 40.0033 3.49453 39.9689 3.50605C39.9577 3.534 39.9466 3.56195 39.9351 3.59075C39.9239 3.6187 39.9128 3.64665 39.9013 3.67545C39.8679 3.68663 39.8344 3.69781 39.8 3.70933C39.7888 3.73728 39.7777 3.76523 39.7662 3.79403C39.755 3.82198 39.7439 3.84993 39.7324 3.87873C39.699 3.88991 39.6655 3.90109 39.6311 3.91261C39.6199 3.94056 39.6088 3.96851 39.5973 3.99731C39.5861 4.02526 39.575 4.05321 39.5635 4.08201C39.5301 4.09319 39.4966 4.10437 39.4622 4.11589C39.451 4.14384 39.4399 4.17179 39.4284 4.20059C39.4172 4.22854 39.4061 4.25649 39.3946 4.28529C39.3612 4.29647 39.3277 4.30765 39.2933 4.31917C39.2821 4.34712 39.271 4.37508 39.2595 4.40387C39.2484 4.43182 39.2372 4.45978 39.2257 4.48857C39.1923 4.49975 39.1588 4.51093 39.1244 4.52245C39.1132 4.55041 39.1021 4.57836 39.0906 4.60715C39.0795 4.63511 39.0683 4.66306 39.0568 4.69186C39.0234 4.70304 38.9899 4.71422 38.9555 4.72574C38.932 4.78179 38.9095 4.8383 38.8879 4.89514C38.8436 4.94384 38.8436 4.94384 38.7866 4.99678C38.7451 5.04609 38.7036 5.09544 38.6627 5.14527C38.6178 5.19988 38.5724 5.25396 38.5269 5.30805C38.4473 5.40196 38.4473 5.40196 38.3812 5.50498C38.3589 5.50498 38.3367 5.50498 38.3137 5.50498C38.3001 5.54586 38.3001 5.54586 38.2862 5.58756C38.273 5.61621 38.2598 5.64486 38.2461 5.67438C38.2127 5.68556 38.1792 5.69674 38.1448 5.70826C38.1336 5.73621 38.1225 5.76416 38.111 5.79296C38.0999 5.82091 38.0887 5.84886 38.0772 5.87766C38.0438 5.88884 38.0103 5.90002 37.9759 5.91154C37.9647 5.93949 37.9536 5.96744 37.9421 5.99624C37.931 6.02419 37.9198 6.05214 37.9083 6.08094C37.8749 6.09212 37.8415 6.1033 37.807 6.11482C37.7959 6.14277 37.7847 6.17073 37.7732 6.19952C37.7621 6.22747 37.7509 6.25543 37.7394 6.28422C37.706 6.2954 37.6726 6.30659 37.6381 6.3181C37.627 6.34606 37.6158 6.37401 37.6043 6.4028C37.5932 6.43076 37.582 6.45871 37.5705 6.48751C37.5371 6.49869 37.5037 6.50987 37.4692 6.52139C37.4581 6.54934 37.4469 6.57729 37.4354 6.60609C37.4243 6.63404 37.4131 6.66199 37.4016 6.69079C37.3682 6.70197 37.3348 6.71315 37.3003 6.72467C37.2892 6.75262 37.278 6.78057 37.2665 6.80937C37.2554 6.83732 37.2442 6.86527 37.2328 6.89407C37.1993 6.90525 37.1659 6.91643 37.1314 6.92795C37.1203 6.9559 37.1091 6.98385 37.0976 7.01265C37.0865 7.0406 37.0753 7.06855 37.0639 7.09735C37.0304 7.10853 36.997 7.11971 36.9625 7.13123C36.9514 7.15918 36.9402 7.18713 36.9287 7.21593C36.9176 7.24388 36.9064 7.27183 36.895 7.30063C36.8615 7.31181 36.8281 7.32299 36.7936 7.33451C36.7825 7.36246 36.7713 7.39041 36.7598 7.41921C36.7487 7.44716 36.7376 7.47511 36.7261 7.50391C36.6926 7.51509 36.6592 7.52627 36.6247 7.53779C36.6136 7.56574 36.6024 7.59369 36.591 7.62249C36.5798 7.65044 36.5687 7.67839 36.5572 7.70719C36.5237 7.71837 36.4903 7.72955 36.4558 7.74107C36.4447 7.76902 36.4335 7.79697 36.4221 7.82577C36.4109 7.85372 36.3998 7.88167 36.3883 7.91047C36.3548 7.92165 36.3214 7.93283 36.2869 7.94435C36.2453 8.00191 36.2453 8.00191 36.2532 8.07987C36.313 8.15186 36.3705 8.21185 36.4389 8.27469C36.5786 8.40643 36.7087 8.54154 36.8339 8.68732C36.9375 8.8063 37.0463 8.92031 37.1546 9.03487C37.3345 9.22577 37.5135 9.4174 37.6908 9.61072C37.8196 9.75114 37.9494 9.89072 38.0793 10.0301C38.2505 10.2137 38.4203 10.3984 38.5893 10.584C38.7187 10.7255 38.8497 10.8656 38.9804 11.0059C39.1243 11.1602 39.2674 11.3153 39.4101 11.4707C39.5402 11.6122 39.671 11.7529 39.8021 11.8935C39.9729 12.0768 40.1424 12.2612 40.3111 12.4464C40.3836 12.5258 40.4568 12.6045 40.5302 12.6831C40.5512 12.7056 40.5723 12.7282 40.594 12.7514C40.6349 12.7951 40.6758 12.8388 40.7168 12.8824C40.8325 13.006 40.9429 13.1322 41.0498 13.2635C41.0386 13.2859 41.0275 13.3083 41.016 13.3313C40.6863 13.3447 40.3566 13.3549 40.0266 13.3611C39.8733 13.3641 39.7202 13.3682 39.5671 13.3748C38.4955 13.4196 38.4955 13.4196 38.2183 13.2084C38.0991 13.0934 38.0063 12.9682 37.9204 12.8269C37.8492 12.7157 37.7595 12.6249 37.6677 12.5309C37.6351 12.4956 37.6026 12.4602 37.5703 12.4247C37.4584 12.3029 37.3456 12.1818 37.2328 12.0608C37.0693 11.8854 36.9065 11.7094 36.7444 11.5328C36.6143 11.3913 36.4834 11.2506 36.3524 11.11C36.1812 10.9264 36.0115 10.7417 35.8424 10.5562C35.713 10.4146 35.5821 10.2745 35.4513 10.1343C35.324 9.99765 35.1972 9.8606 35.0709 9.72306C34.9187 9.55741 34.7659 9.39231 34.6128 9.22757C34.5826 9.19504 34.5826 9.19504 34.5517 9.16186C34.5328 9.14153 34.5139 9.1212 34.4944 9.10025C34.4777 9.08229 34.461 9.06434 34.4438 9.04584C34.3947 8.99404 34.3443 8.94352 34.294 8.893C34.2828 10.3576 34.2717 11.8223 34.2602 13.3313C33.5914 13.3313 32.9225 13.3313 32.2335 13.3313C32.1997 13.2974 32.1997 13.2974 32.1955 13.2285C32.1955 13.1978 32.1955 13.1672 32.1955 13.1356C32.1954 13.1003 32.1954 13.0651 32.1953 13.0288C32.1954 12.9896 32.1955 12.9504 32.1956 12.9101C32.1956 12.8688 32.1956 12.8275 32.1955 12.785C32.1955 12.67 32.1956 12.555 32.1958 12.4399C32.1959 12.3161 32.1958 12.1922 32.1958 12.0683C32.1958 11.8536 32.1959 11.6388 32.1961 11.424C32.1964 11.1135 32.1965 10.803 32.1965 10.4925C32.1966 9.98875 32.1968 9.48501 32.1971 8.98126C32.1974 8.4918 32.1977 8.00233 32.1978 7.51287C32.1978 7.48272 32.1978 7.45257 32.1978 7.42151C32.1979 7.27027 32.1979 7.11903 32.198 6.96779C32.1983 5.71223 32.1989 4.45668 32.1997 3.20113Z" fill="white"/>
<path d="M6.59674 0.0660973C7.29555 -0.042892 8.05395 -0.00793188 8.74908 0.104183L8.8233 0.115902C9.17278 0.174552 9.50864 0.269907 9.84576 0.377621L9.93951 0.406918C10.152 0.474432 10.3548 0.562377 10.5587 0.652035L10.6534 0.692074C10.9324 0.812888 11.1984 0.954141 11.4581 1.112L11.5225 1.15008C11.613 1.20593 11.6914 1.25803 11.7647 1.33563C11.6171 1.32298 11.4706 1.30626 11.3243 1.28289C11.261 1.2731 11.1972 1.26318 11.1338 1.2536L11.0381 1.23895C10.7116 1.19509 10.3879 1.18948 10.0587 1.19012C9.96657 1.19021 9.87437 1.18984 9.78228 1.18914C8.85724 1.18465 8.85669 1.18446 7.9815 1.445C7.9247 1.46101 7.86703 1.47623 7.80963 1.48993L7.71978 1.51141L7.6524 1.52703C7.6675 1.62735 7.6915 1.69309 7.75103 1.77508L7.79596 1.83758L7.84576 1.90399L7.89752 1.97235C8.16805 2.32789 8.47469 2.65197 8.83111 2.92254L8.9151 2.98895C9.80446 3.66388 10.8921 3.99656 12.0001 3.99481H12.0626C12.6679 3.99319 13.2321 3.91011 13.7979 3.68719C13.8749 3.66241 13.9335 3.65664 14.0137 3.6618C14.2979 4.15053 14.5421 4.6508 14.7081 5.19207C14.7253 5.24745 14.7441 5.30219 14.7628 5.35711C14.8963 5.75569 14.9846 6.1688 15.0001 6.58953C14.4066 6.72753 13.8435 6.84153 13.2325 6.84149C13.1626 6.84155 13.0924 6.84195 13.0225 6.84246C12.6098 6.84392 12.2133 6.80763 11.8116 6.7077L11.7237 6.68621C11.3319 6.5875 10.9331 6.46248 10.5782 6.26629C10.4238 6.18225 10.314 6.13548 10.1387 6.1745C10.0773 6.19335 10.0159 6.21309 9.95514 6.23407L9.79791 6.28094C9.62052 6.33437 9.44466 6.39425 9.26959 6.45477L9.21295 6.4743C9.07995 6.52111 8.95633 6.57977 8.83111 6.64422L8.75885 6.6784C8.56152 6.77255 8.37312 6.88133 8.18463 6.99188L8.10357 7.03875L8.0274 7.08465L7.95807 7.12469C7.90304 7.16111 7.86168 7.19919 7.81646 7.24676C7.76954 7.27667 7.76953 7.27704 7.72076 7.3034C7.65875 7.3372 7.60116 7.3715 7.54205 7.41082C7.55747 7.50629 7.58562 7.54385 7.66119 7.60321L7.71978 7.64911L7.78424 7.69793L7.85064 7.74871C8.0732 7.91581 8.30772 8.06011 8.54986 8.19696C8.60408 8.22761 8.65822 8.25828 8.71197 8.28973C9.39906 8.67653 10.1353 8.88 10.9044 9.01922L11.003 9.0368C11.2167 9.06959 11.4285 9.08461 11.6446 9.08661L11.7188 9.08758C12.4805 9.0942 13.1925 9.03205 13.9307 8.83368L13.9922 8.81805C14.2545 8.74957 14.5012 8.6583 14.7491 8.54852L14.8126 8.52118L14.8682 8.49578C14.9179 8.47789 14.9182 8.47821 15.0001 8.47821C14.96 9.20591 14.7175 9.89511 14.4249 10.5573L14.3965 10.6218C14.3016 10.8362 14.1978 11.0465 14.0821 11.2507L14.0547 11.3014C13.9273 11.5174 13.6813 11.568 13.4551 11.6384L13.3741 11.6638C11.9733 12.0927 10.3215 12.0983 8.94537 11.5661C8.88347 11.5422 8.82107 11.5188 8.75885 11.4958L8.75787 11.4948C8.07906 11.2389 7.44669 10.8787 6.88482 10.4206L6.83892 10.3835C6.47158 10.083 6.13621 9.75371 5.84283 9.38055L5.72076 9.237C5.57348 9.05682 5.44585 8.86586 5.32135 8.66961L5.28814 8.61688C4.92072 8.03791 4.67021 7.40742 4.47174 6.7536L4.45221 6.6911C4.3582 6.38162 4.30172 6.06109 4.25201 5.74188L4.23639 5.64618C4.1949 5.35761 4.18955 5.07316 4.19146 4.78192C4.19196 4.70386 4.19245 4.62561 4.19244 4.54754L4.53814 3.10614L3.52447 4.43133C3.4652 4.50824 3.43165 4.55172 3.37506 4.63055C2.99247 5.16342 2.75917 5.59786 2.57818 6.10907C2.5554 6.17103 2.52889 6.22617 2.49713 6.28387C2.41666 6.43844 2.37222 6.60856 2.3233 6.77508C2.30474 6.83768 2.28506 6.90023 2.26568 6.96258L2.22857 7.08953L2.21002 7.14715C2.12696 7.43429 2.16504 7.70057 2.25006 7.98211L2.2774 8.07196C2.30434 8.1619 2.33204 8.25199 2.36041 8.34149L2.38482 8.41864C2.72221 9.46004 3.30771 10.4297 4.05377 11.2302C4.10576 11.2864 4.1551 11.3443 4.20416 11.403C4.43633 11.6691 4.71542 11.9001 4.99225 12.1179L5.07232 12.1813C6.66771 13.4463 8.79353 14.0227 10.8106 13.8161C11.0563 13.787 11.3016 13.7497 11.544 13.6999C11.6372 13.6813 11.7013 13.6782 11.792 13.7048C10.8149 14.337 9.77126 14.7792 8.61139 14.9362L8.5108 14.9509C8.18547 14.9953 7.86227 15.0013 7.53424 15.0007H7.45025C6.99724 14.9996 6.56104 14.9738 6.11627 14.8815L6.02935 14.8639C4.73245 14.5936 3.48263 13.9997 2.51373 13.0876C2.45243 13.0299 2.3902 12.9743 2.32623 12.9196C2.11302 12.734 1.9337 12.5292 1.75689 12.3093L1.69635 12.236C1.17301 11.6107 0.749502 10.8848 0.467831 10.1198L0.447323 10.0632C-0.225956 8.21863 -0.133364 6.15874 0.685604 4.37567C1.17921 3.33458 1.92687 2.33453 2.85357 1.63641L2.90728 1.59539C3.57358 1.08073 4.32355 0.656625 5.12994 0.404964L5.26373 0.361019C5.67895 0.22581 6.09595 0.142103 6.5274 0.0768395L6.59674 0.0660973ZM7.1817 1.68817C7.08334 1.6832 7.03017 1.70105 6.94049 1.73504C6.7301 1.81441 6.53087 1.91375 6.33111 2.01629L6.2774 2.04364C6.05747 2.15626 5.84536 2.27793 5.63971 2.41473C5.58639 2.45025 5.53248 2.48518 5.4776 2.51825C5.43631 2.54288 5.39536 2.56804 5.35455 2.59344L5.294 2.63055C5.21784 2.67406 5.15281 2.71301 5.09869 2.78289C5.06664 2.9142 5.06685 2.91467 5.14068 3.32L5.15826 3.41375C5.22852 3.78397 5.32217 4.13802 5.45514 4.4909L5.48248 4.56121C5.53371 4.6995 5.58537 4.8374 5.64264 4.97332L5.67096 5.03875C5.70363 5.12015 5.73473 5.20036 5.78424 5.27313C5.85921 5.30161 5.79823 5.38756 5.8233 5.36004C6.37161 4.75815 6.99321 4.34666 7.85455 3.87176C7.89575 3.84905 7.94709 3.82171 7.961 3.81414C7.94846 3.69781 7.85134 3.64318 7.79693 3.53973C7.63561 3.23862 7.49267 2.92087 7.39068 2.59442L7.37408 2.5368C7.31801 2.34094 7.27938 2.14395 7.24713 1.94305C7.23483 1.86285 7.23982 1.74617 7.1817 1.68817Z" fill="#B6BDC3"/>
<path d="M5.04782 1.19629C5.05686 1.19629 5.06591 1.19629 5.07524 1.19629C5.07499 1.21241 5.07475 1.22854 5.0745 1.24515C5.05087 2.32108 5.05087 2.32108 5.18491 3.38547C5.19357 3.43072 5.20221 3.47597 5.21083 3.52122C5.27216 3.82829 5.36477 4.12702 5.45911 4.42533C5.46936 4.45828 5.47961 4.49122 5.49017 4.52517C5.53365 4.66082 5.58322 4.78524 5.648 4.91193C5.6799 4.97549 5.70986 5.03969 5.73951 5.10432C5.88206 5.41324 6.03742 5.70254 6.22685 5.98512C6.2389 6.00342 6.25095 6.02172 6.26337 6.04057C6.43595 6.30227 6.62274 6.54367 6.83007 6.7787C6.84594 6.79757 6.86181 6.81644 6.87816 6.83588C7.13573 7.14061 7.42519 7.4098 7.74484 7.64802C7.78689 7.67959 7.8283 7.71201 7.86965 7.74448C8.10451 7.9269 8.35566 8.07935 8.61233 8.22903C8.62895 8.23887 8.64557 8.2487 8.66269 8.25884C9.35806 8.66675 10.1195 8.87399 10.9052 9.01619C10.9537 9.02499 10.9537 9.02499 11.0032 9.03396C11.2171 9.0668 11.4291 9.08187 11.6454 9.08386C11.6697 9.08412 11.694 9.08439 11.7191 9.08466C12.481 9.0913 13.1932 9.02953 13.9317 8.83105C13.9519 8.8258 13.9721 8.82056 13.9929 8.81515C14.2552 8.74665 14.5021 8.65603 14.75 8.5462C14.7709 8.53702 14.7917 8.52784 14.8132 8.51839C14.8316 8.51009 14.85 8.50179 14.869 8.49324C14.9188 8.47531 14.9188 8.47531 15.001 8.47531C14.961 9.20326 14.718 9.89263 14.4252 10.555C14.4159 10.5763 14.4066 10.5976 14.3969 10.6195C14.302 10.8339 14.1982 11.0436 14.0825 11.2477C14.0734 11.2646 14.0643 11.2815 14.0549 11.2988C13.9274 11.515 13.6815 11.5655 13.4553 11.6359C13.4155 11.6484 13.4155 11.6484 13.3749 11.661C11.974 12.0901 10.322 12.0954 8.94575 11.563C8.88337 11.5389 8.8207 11.5158 8.75799 11.4926C8.07911 11.2367 7.44682 10.8764 6.88491 10.4182C6.86977 10.4059 6.85463 10.3936 6.83903 10.381C6.47169 10.0805 6.13636 9.75151 5.84298 9.37835C5.80243 9.33045 5.76187 9.28256 5.7213 9.23468C5.57395 9.05444 5.44656 8.86319 5.32201 8.66686C5.31095 8.6496 5.29989 8.63234 5.2885 8.61455C4.92104 8.03556 4.6705 7.4052 4.47201 6.75133C4.46566 6.73072 4.45931 6.71011 4.45277 6.68888C4.35867 6.37919 4.30227 6.0583 4.25266 5.73884C4.2477 5.7071 4.24273 5.67537 4.23762 5.64268C4.19429 5.33653 4.1869 5.03354 4.18754 4.72463C4.18754 4.69839 4.18755 4.67215 4.18755 4.64512C4.19016 3.45609 4.4375 2.23107 5.04782 1.19629Z" fill="white"/>
<path d="M3.34728 1.30859C3.30166 1.44439 3.22341 1.55437 3.14506 1.67289C3.0118 1.87879 2.89462 2.08971 2.78518 2.30912C2.7717 2.3361 2.75822 2.36307 2.74434 2.39087C2.66308 2.55641 2.59097 2.72374 2.5247 2.89575C2.51314 2.92477 2.51314 2.92477 2.50134 2.95439C2.27066 3.53457 2.11739 4.13864 2.03115 4.75655C2.02629 4.79026 2.02143 4.82397 2.01642 4.85869C1.97405 5.16974 1.96641 5.47768 1.96775 5.79128C1.96782 5.81702 1.96788 5.84275 1.96795 5.86927C1.9729 7.08091 2.23111 8.2647 2.77147 9.35383C2.78237 9.37631 2.79327 9.39879 2.80449 9.42196C3.12989 10.09 3.55808 10.6923 4.06136 11.238C4.11 11.2912 4.1562 11.3458 4.20242 11.4011C4.43552 11.6677 4.71477 11.8993 4.99244 12.1177C5.03183 12.1495 5.03183 12.1495 5.07202 12.182C6.66744 13.447 8.79366 14.0229 10.8108 13.8162C11.0565 13.7872 11.3014 13.7499 11.5438 13.7001C11.6372 13.6815 11.7015 13.6782 11.7924 13.7048C10.8152 14.3372 9.77178 14.7792 8.61178 14.9362C8.57857 14.941 8.54535 14.9458 8.51112 14.9508C8.18555 14.9953 7.86214 15.0019 7.53386 15.0012C7.50617 15.0012 7.47848 15.0012 7.44996 15.0012C6.99694 15.0001 6.5614 14.9738 6.11663 14.8815C6.07332 14.8727 6.07332 14.8727 6.02914 14.8637C4.73223 14.5933 3.48289 14.0001 2.51399 13.088C2.45254 13.0302 2.39004 12.9746 2.32591 12.9198C2.11266 12.7342 1.93381 12.5292 1.75696 12.3092C1.73688 12.2852 1.71681 12.2612 1.69612 12.2365C1.17277 11.6112 0.749932 10.885 0.468254 10.12C0.461278 10.1012 0.454302 10.0824 0.447114 10.063C-0.226221 8.21832 -0.133056 6.15874 0.686102 4.37556C1.18043 3.33294 1.92748 2.33774 2.85373 1.63697C2.89172 1.60775 2.92971 1.57854 2.96769 1.54932C3.00794 1.51864 3.04821 1.48799 3.08851 1.45739C3.10781 1.44267 3.12711 1.42795 3.147 1.41278C3.16506 1.39925 3.18312 1.38571 3.20172 1.37177C3.21789 1.35958 3.23407 1.34739 3.25073 1.33483C3.29244 1.30859 3.29244 1.30859 3.34728 1.30859Z" fill="white"/>
<path d="M7.12931 0.594727C7.18554 0.650844 7.20265 0.685523 7.2317 0.757935C7.24057 0.779673 7.24943 0.80141 7.25857 0.823807C7.26794 0.846969 7.27731 0.870131 7.28696 0.893995C7.61362 1.68231 8.14762 2.40124 8.82915 2.92047C8.85703 2.9422 8.88492 2.96392 8.91364 2.98631C9.80303 3.66102 10.8896 3.99446 11.9975 3.9927C12.0183 3.99268 12.0391 3.99265 12.0606 3.99263C12.6659 3.99101 13.2299 3.90735 13.7957 3.68435C13.8727 3.65958 13.9307 3.65407 14.0109 3.65923C14.2951 4.14797 14.54 4.64795 14.706 5.18924C14.7233 5.24473 14.7416 5.29977 14.7602 5.3548C14.8938 5.75341 14.9825 6.16616 14.9979 6.58693C14.4043 6.72495 13.8411 6.83832 13.23 6.83826C13.1601 6.83832 13.0902 6.83881 13.0203 6.83933C12.6074 6.8408 12.2108 6.80491 11.809 6.70493C11.7801 6.69788 11.7513 6.69083 11.7215 6.68357C10.6657 6.41759 9.72787 5.88196 8.93881 5.13676C8.91333 5.11282 8.88785 5.08887 8.8616 5.06419C8.66555 4.87466 8.49894 4.67041 8.33565 4.45272C8.32424 4.43782 8.31283 4.42292 8.30108 4.40757C7.97871 3.98558 7.72874 3.52321 7.53499 3.02986C7.51411 2.9776 7.49204 2.92605 7.46945 2.87451C7.33831 2.56548 7.27394 2.23634 7.21156 1.90809C7.20734 1.88683 7.20313 1.86557 7.19878 1.84366C7.1179 1.42813 7.12038 1.01681 7.12931 0.594727Z" fill="white"/>
<path d="M4.58643 7.1084C4.63113 7.17531 4.65779 7.22629 4.68593 7.29993C4.69436 7.32167 4.7028 7.34342 4.7115 7.36582C4.72055 7.38922 4.72961 7.41263 4.73894 7.43674C5.0069 8.11348 5.35485 8.7156 5.79277 9.29733C5.6873 9.47858 5.5813 9.65929 5.47094 9.83762C5.43464 9.90233 5.40867 9.96709 5.38152 10.0361C5.35913 10.0832 5.33673 10.1304 5.31402 10.1774C5.23216 10.3473 5.16102 10.5156 5.10521 10.6961C5.08614 10.7555 5.06465 10.8142 5.04202 10.8723C4.98425 11.0244 4.94194 11.1809 4.8983 11.3375C4.88975 11.3675 4.88119 11.3976 4.87238 11.4285C4.83124 11.5753 4.79449 11.7176 4.77835 11.8693C4.65935 11.8693 4.6524 11.867 4.57262 11.7911C4.54576 11.7658 4.54576 11.7658 4.51836 11.7401C4.49014 11.7126 4.49014 11.7126 4.46135 11.6846C4.44189 11.666 4.42244 11.6475 4.4024 11.6283C4.23723 11.469 4.07663 11.3058 3.92843 11.1306C3.91367 11.1175 3.89892 11.1044 3.88371 11.0909C3.75849 10.9637 3.74961 10.8421 3.75001 10.6718C3.75179 10.5761 3.75594 10.4806 3.76051 10.385C3.76237 10.3344 3.76422 10.2839 3.76604 10.2333C3.78862 9.67589 3.8526 9.12245 4.01068 8.58593C4.01698 8.56393 4.02328 8.54193 4.02977 8.51926C4.10328 8.26285 4.17908 8.01033 4.28485 7.76508C4.30144 7.72176 4.318 7.67844 4.33454 7.63511C4.40672 7.45401 4.49738 7.28166 4.58643 7.1084Z" fill="#B6BDC3"/>
<path d="M13.8369 3.57246C13.8667 3.58417 13.8966 3.59588 13.9274 3.60794C13.9489 3.61655 13.9705 3.62516 13.9928 3.63402C13.6975 3.78749 13.3542 3.87704 13.0298 3.94526C13.0097 3.94951 12.9897 3.95375 12.969 3.95813C12.6605 4.01899 12.3492 4.02367 12.0359 4.02393C12.0154 4.02394 11.9948 4.02396 11.9736 4.02398C11.6357 4.0235 11.3084 4.00571 10.977 3.935C10.9555 3.93045 10.934 3.9259 10.9119 3.92121C10.3592 3.79911 9.85217 3.57997 9.35938 3.30568C9.35938 3.29665 9.35938 3.28762 9.35938 3.27832C10.8888 2.97595 12.367 2.99215 13.8369 3.57246Z" fill="#B6BDC3"/>
<path d="M15.0049 8.47821C14.9003 8.45536 14.8232 8.40523 14.7192 8.38011C13.6229 8.11068 12.4696 8.07927 11.3852 8.43343L11.2831 8.46795C10.9931 8.56484 10.7131 8.67387 10.4398 8.81168C10.3853 8.83992 10.3306 8.86799 10.2757 8.89547L10.2344 8.916C10.3645 8.94374 10.4947 8.97049 10.6253 8.99562L10.7827 9.02544C11.1649 9.10243 11.5417 9.11418 11.9305 9.11445L12.013 9.11437C12.093 9.11431 12.1729 9.11414 12.2528 9.11366L12.3281 9.11309C13.2354 9.10842 14.1127 8.84265 14.944 8.50323L15.0049 8.47821Z" fill="#B6BDC3"/>
<path d="M8.32488 11.2875C8.20235 11.227 8.08249 11.1718 7.95133 11.1318C7.83147 11.3349 7.71228 11.5347 7.62919 11.756C7.60016 11.8372 7.57183 11.9163 7.53462 11.994C7.32094 12.4226 7.237 12.9076 7.15625 13.3755C7.23802 13.4033 7.31968 13.4299 7.40279 13.4535L7.48182 13.4747L7.62233 13.5123C7.6339 13.4763 7.65065 13.3939 7.72679 13.2915C7.72679 13.2915 8.9076 12.0405 9.02999 11.95L9.03445 11.9467C9.15503 11.8574 9.26303 11.7775 9.41298 11.7458L9.51408 11.7338V11.7064C9.41978 11.6947 9.33952 11.6754 9.25009 11.6423C9.18985 11.6193 9.12965 11.5968 9.06863 11.5759C8.81465 11.4913 8.56621 11.4039 8.32488 11.2875Z" fill="#B6BDC3"/>
</svg>
