<svg width="60" height="13" viewBox="0 0 60 13" fill="none" xmlns="http://www.w3.org/2000/svg">
<path d="M27.3953 6.80054C27.9702 6.98151 28.4205 7.28631 28.7463 7.71493C29.0721 8.13402 29.235 8.65313 29.235 9.27224C29.235 10.1485 28.89 10.8248 28.2001 11.301C27.5198 11.7678 26.5233 12.0011 25.2107 12.0011H20.0078V2H24.9232C26.1497 2 27.0887 2.23336 27.7402 2.70008C28.4013 3.1668 28.7319 3.8002 28.7319 4.60029C28.7319 5.08606 28.6121 5.51944 28.3726 5.90044C28.1426 6.28143 27.8169 6.58147 27.3953 6.80054ZM22.3218 3.74305V6.10046H24.6358C25.2107 6.10046 25.6466 6.00045 25.9437 5.80043C26.2407 5.6004 26.3892 5.30513 26.3892 4.91461C26.3892 4.52409 26.2407 4.23358 25.9437 4.04309C25.6466 3.84306 25.2107 3.74305 24.6358 3.74305H22.3218ZM25.0382 10.2581C25.6514 10.2581 26.1113 10.1581 26.4179 9.95803C26.7341 9.75801 26.8922 9.44845 26.8922 9.02936C26.8922 8.20069 26.2742 7.78636 25.0382 7.78636H22.3218V10.2581H25.0382Z" fill="white"/>
<path d="M39.7218 12.0011L39.7074 6.00045L36.7467 10.9439H35.6975L32.7512 6.12903V12.0011H30.5665V2H32.4925L36.2581 8.21498L39.9662 2H41.8777L41.9064 12.0011H39.7218Z" fill="white"/>
<path d="M59.0122 2L55.7209 12.0011H53.2201L51.0067 5.22893L48.7215 12.0011H46.235L42.9294 2H45.3439L47.6148 9.02936L49.9863 2H52.1421L54.4417 9.08651L56.7844 2H59.0122Z" fill="white"/>
<path d="M5.99782 0.0110885C4.41603 0.149384 3.00837 0.800189 1.90502 1.90493C1.38102 2.4272 0.975805 2.99503 0.651962 3.65396C0.324864 4.32592 0.127954 4.9995 0.0303125 5.78535C-0.0103714 6.11726 -0.0103714 6.88358 0.0319398 7.22525C0.188166 8.53012 0.676372 9.67065 1.50144 10.6696C1.67719 10.8811 2.14913 11.3514 2.3558 11.5189C3.36639 12.3422 4.48113 12.814 5.77813 12.9702C6.1215 13.0125 6.8831 13.0125 7.22647 12.9702C8.52347 12.8157 9.63496 12.3438 10.6488 11.5189C10.8522 11.3546 11.3567 10.8502 11.5211 10.6469C12.3461 9.63323 12.8181 8.52198 12.9727 7.22525C12.9954 7.0414 13.002 6.86243 13.002 6.50123C13.002 6.14004 12.9954 5.96107 12.9727 5.77721C12.8181 4.48049 12.3429 3.36436 11.5211 2.35561C11.3534 2.14898 10.8831 1.67715 10.6716 1.50143C9.67564 0.678163 8.52836 0.186806 7.23461 0.0338667C6.97423 0.00295346 6.24518 -0.0116896 5.99782 0.0110885ZM7.2997 0.269783C8.13942 0.382047 8.888 0.629352 9.58614 1.02634C11.2054 1.94398 12.3461 3.53682 12.6781 5.33629C12.7595 5.78535 12.7758 5.97245 12.7741 6.50937C12.7741 7.05604 12.753 7.29521 12.6618 7.74101C12.4112 8.97917 11.801 10.0986 10.8929 10.9853C10.3982 11.4685 9.92625 11.8053 9.31762 12.1128C8.65692 12.4463 8.01899 12.6399 7.22647 12.7441C6.9189 12.7847 6.09383 12.7847 5.77813 12.7441C4.50391 12.5797 3.42497 12.1144 2.47623 11.3237C1.35823 10.3914 0.586868 9.07679 0.326491 7.66617C0.245123 7.222 0.22885 7.03001 0.22885 6.50123C0.22885 5.97245 0.245123 5.78047 0.326491 5.33629C0.552693 4.10627 1.15807 2.96411 2.06125 2.06112C3.12391 0.997057 4.47299 0.372285 5.98968 0.237243C6.26959 0.212838 7.01166 0.230735 7.2997 0.269783Z" fill="white"/>
<path d="M5.97629 0.498119C4.73136 0.616891 3.5971 1.08222 2.64672 1.86806C2.44005 2.0389 2.03321 2.44565 1.86234 2.65228C1.10399 3.56829 0.658095 4.62259 0.505124 5.85098C0.477459 6.07876 0.477459 6.92481 0.505124 7.15259C0.658095 8.38098 1.10399 9.43529 1.86234 10.3513C2.03321 10.5579 2.44005 10.9647 2.64672 11.1355C3.56292 11.8937 4.61745 12.3395 5.8461 12.4924C6.07393 12.5201 6.92015 12.5201 7.14798 12.4924C8.37663 12.3395 9.43116 11.8937 10.3474 11.1355C10.554 10.9647 10.9609 10.5579 11.1317 10.3513C11.8055 9.53453 12.2676 8.53392 12.4353 7.51867C12.5003 7.13144 12.5101 6.98826 12.5101 6.50179C12.5101 6.01531 12.5003 5.87213 12.4353 5.48491C12.2676 4.46965 11.8055 3.46904 11.1317 2.65228C10.9609 2.44565 10.554 2.0389 10.3474 1.86806C9.44906 1.12615 8.41894 0.681971 7.22121 0.520897C7.0064 0.491611 6.20086 0.476968 5.97629 0.498119ZM6.30501 1.36043C6.41893 1.6598 6.51494 1.91199 6.5182 1.92175C6.52471 1.93802 6.53772 1.90386 6.80624 1.20099L6.95758 0.807251H7.19843H7.44091V1.59635V2.38545H7.27817H7.11543L7.11218 1.84528L7.1073 1.30512L6.90388 1.84528L6.70209 2.38708L6.52471 2.3822L6.3457 2.37732L6.14879 1.85342C6.03975 1.56544 5.94537 1.32464 5.93886 1.31813C5.93235 1.31162 5.92747 1.54917 5.92747 1.84528V2.38545H5.77287H5.61827V1.59635V0.805624L5.85749 0.810505L6.09671 0.815386L6.30501 1.36043ZM10.2562 2.17394L10.3734 2.322L10.2774 2.44728C9.85264 3.00372 9.76802 3.11761 9.77941 3.11761C9.78755 3.11761 9.99748 3.02975 10.2481 2.92236C10.4971 2.81498 10.707 2.732 10.7135 2.74014C10.7721 2.80197 10.956 3.03951 10.956 3.05253C10.956 3.06066 10.8274 3.24939 10.6712 3.47067C10.515 3.69194 10.3897 3.87579 10.3929 3.87742C10.3962 3.88067 10.5622 3.80583 10.7623 3.70984C10.9625 3.61547 11.1643 3.51948 11.2115 3.49833L11.2961 3.46091L11.4182 3.60896C11.4865 3.69194 11.5386 3.76027 11.537 3.7619C11.5321 3.76841 10.253 4.3883 10.1651 4.42735L10.0805 4.4664L9.93889 4.28743C9.84939 4.17516 9.8022 4.10357 9.81033 4.09056C9.81684 4.07917 9.94215 3.89532 10.0886 3.68055C10.2351 3.46741 10.3522 3.28844 10.3474 3.28519C10.3425 3.28031 10.2676 3.30634 10.1797 3.34213C10.0919 3.37955 9.88682 3.46416 9.72408 3.53087L9.42628 3.65289L9.28632 3.48206C9.20984 3.38932 9.14963 3.30309 9.15288 3.29007C9.15939 3.26404 10.113 2.02914 10.1293 2.02751C10.1342 2.02751 10.1928 2.09422 10.2562 2.17394ZM2.96894 2.31549C3.00799 2.34152 3.06821 2.4066 3.10401 2.45867C3.16422 2.5449 3.1691 2.55954 3.1691 2.66367C3.1691 2.75804 3.17236 2.77431 3.19351 2.76617C3.39368 2.67994 3.54502 2.70597 3.68497 2.8524C3.76146 2.93213 3.79563 3.01348 3.79563 3.12086C3.79563 3.2738 3.7403 3.35678 3.26837 3.91809L2.83387 4.43548L2.38309 4.05802C1.68658 3.47555 1.628 3.42348 1.63776 3.40071C1.64915 3.36979 2.39285 2.48795 2.47585 2.40498C2.58976 2.29434 2.67764 2.25366 2.79807 2.26017C2.88106 2.26343 2.91198 2.27481 2.96894 2.31549ZM6.93643 2.67831C8.72326 2.89471 10.1049 4.27604 10.3213 6.06249C10.3425 6.23984 10.3425 6.76374 10.3213 6.94108C10.1049 8.72754 8.72326 10.1089 6.93643 10.3253C6.75904 10.3464 6.23504 10.3464 6.05765 10.3253C4.27082 10.1089 2.8892 8.72754 2.67276 6.94108C2.6516 6.76374 2.6516 6.23984 2.67276 6.06249C2.88594 4.30044 4.23176 2.9305 5.99256 2.68645C6.18133 2.66042 6.74765 2.65553 6.93643 2.67831Z" fill="white"/>
<path d="M2.58614 2.70396C2.53895 2.74463 2.10938 3.26196 2.10938 3.2766C2.111 3.28799 2.35996 3.49623 2.38437 3.50436C2.39738 3.50924 2.8416 2.98215 2.87252 2.92358C2.90181 2.8699 2.88228 2.78856 2.82533 2.73487C2.7635 2.67468 2.63983 2.66004 2.58614 2.70396Z" fill="white"/>
<path d="M3.1289 3.07008C3.11263 3.07984 2.98571 3.223 2.84577 3.39056C2.59519 3.68665 2.59031 3.69315 2.62448 3.71918C2.64238 3.73382 2.71234 3.79076 2.77743 3.84445L2.89784 3.94531L3.14843 3.64598C3.28674 3.48004 3.40715 3.32712 3.41528 3.30272C3.43318 3.2474 3.40389 3.15142 3.35182 3.10262C3.30789 3.06032 3.17609 3.0408 3.1289 3.07008Z" fill="white"/>
<path d="M6.03074 2.93164C5.24645 3.03739 4.55164 3.37414 3.99027 3.92075C3.67623 4.22822 3.45005 4.53732 3.26455 4.91474C3.04488 5.35724 2.89844 5.94453 2.89844 6.37238V6.5009H4.69646H6.49449V8.29855V10.0962H6.62303C6.90942 10.0962 7.29668 10.0246 7.64978 9.90748C8.56262 9.60489 9.34692 8.9021 9.76022 8.01711C9.95223 7.60552 10.0905 7.02637 10.0905 6.62942V6.5009H8.29251H6.49449V4.70326V2.90561L6.34479 2.90724C6.2618 2.90887 6.12024 2.91863 6.03074 2.93164Z" fill="white"/>
</svg>
