<svg width="103" height="11" viewBox="0 0 103 11" fill="none" xmlns="http://www.w3.org/2000/svg">
<path d="M19.4794 0.0517578C20.7835 0.0517578 22.0876 0.0517578 23.4312 0.0517578C23.5159 0.347145 23.5921 0.621357 23.6492 0.919777C23.6631 0.991642 23.677 1.06351 23.6913 1.13755C23.7057 1.21361 23.7202 1.28968 23.735 1.36804C23.7502 1.44707 23.7654 1.5261 23.7811 1.60753C23.8293 1.85869 23.8772 2.1099 23.9252 2.36112C23.9579 2.53195 23.9907 2.70277 24.0235 2.87358C24.1036 3.29121 24.1835 3.70889 24.2631 4.1266C24.4712 3.13752 24.6763 2.14796 24.8741 1.1568C24.947 0.792136 25.02 0.427472 25.0951 0.0517578C26.4221 0.0517578 27.7491 0.0517578 29.1162 0.0517578C29.3328 1.89296 29.3328 1.89296 29.4265 2.68918C29.4899 3.22851 29.5533 3.76783 29.6168 4.30716C29.668 4.74288 29.7193 5.17861 29.7705 5.61433C29.7899 5.77901 29.8092 5.9437 29.8286 6.10838C29.8378 6.18669 29.8471 6.26501 29.8565 6.3457C29.8702 6.46157 29.8702 6.46157 29.8841 6.57977C29.902 6.73227 29.9199 6.88479 29.9377 7.03731C29.9831 7.42651 30.0293 7.8156 30.0767 8.20457C30.0863 8.28454 30.0959 8.36451 30.1058 8.4469C30.1239 8.59774 30.1424 8.74855 30.1611 8.89932C30.2402 9.563 30.2638 10.2275 30.2255 10.895C30.1136 11.0065 29.9922 10.9728 29.8376 10.973C29.7359 10.9733 29.7359 10.9733 29.6322 10.9736C29.5584 10.9735 29.4847 10.9734 29.4087 10.9732C29.296 10.9733 29.296 10.9733 29.181 10.9734C29.0218 10.9735 28.8626 10.9733 28.7033 10.9731C28.4587 10.9727 28.214 10.9731 27.9693 10.9735C27.815 10.9734 27.6608 10.9734 27.5065 10.9732C27.4328 10.9734 27.359 10.9735 27.2831 10.9736C27.2153 10.9734 27.1475 10.9732 27.0776 10.973C27.0177 10.9729 26.9577 10.9729 26.8959 10.9728C26.759 10.9641 26.759 10.9641 26.6897 10.895C26.6811 10.7425 26.6774 10.5897 26.6755 10.437C26.6748 10.3892 26.6741 10.3413 26.6734 10.292C26.6712 10.1332 26.6695 9.9744 26.6678 9.81557C26.6663 9.70573 26.6649 9.59589 26.6634 9.48605C26.6596 9.1964 26.6561 8.90676 26.6528 8.61711C26.6493 8.32176 26.6455 8.02642 26.6416 7.73107C26.6342 7.15117 26.6271 6.57127 26.6204 5.99136C26.6063 6.08022 26.6063 6.08022 26.5919 6.17088C26.5033 6.72883 26.4146 7.28676 26.3257 7.84466C26.2799 8.13148 26.2343 8.41832 26.1888 8.70519C26.1449 8.98196 26.1008 9.2587 26.0566 9.53542C26.0398 9.64107 26.023 9.74673 26.0063 9.8524C25.9829 10.0003 25.9593 10.1481 25.9356 10.2959C25.9222 10.3801 25.9088 10.4643 25.895 10.551C25.8577 10.7569 25.8577 10.7569 25.7884 10.9641C24.8046 10.9641 23.8208 10.9641 22.8072 10.9641C22.7144 10.6403 22.6408 10.3541 22.5892 10.0263C22.5753 9.93922 22.5614 9.85214 22.5471 9.76243C22.5325 9.66881 22.5179 9.5752 22.5034 9.48158C22.488 9.38471 22.4727 9.28785 22.4573 9.19099C22.4172 8.9375 22.3774 8.68395 22.3377 8.43039C22.297 8.17108 22.2559 7.91183 22.2149 7.65257C22.1347 7.14493 22.0549 6.63723 21.9753 6.12949C21.9745 6.18904 21.9738 6.24859 21.9731 6.30994C21.9663 6.86995 21.9592 7.42995 21.9517 7.98994C21.9479 8.27787 21.9442 8.5658 21.9408 8.85374C21.9375 9.13138 21.9339 9.40902 21.93 9.68666C21.9286 9.79282 21.9273 9.89897 21.9261 10.0051C21.9244 10.1533 21.9224 10.3015 21.9202 10.4497C21.9185 10.5764 21.9185 10.5764 21.9169 10.7058C21.9059 10.895 21.9059 10.895 21.8366 10.9641C21.7306 10.9708 21.6242 10.9729 21.518 10.973C21.4163 10.9733 21.4163 10.9733 21.3126 10.9736C21.2388 10.9735 21.1651 10.9734 21.0891 10.9732C20.9764 10.9733 20.9764 10.9733 20.8614 10.9734C20.7022 10.9735 20.543 10.9733 20.3838 10.9731C20.1391 10.9727 19.8944 10.9731 19.6497 10.9735C19.4955 10.9734 19.3412 10.9734 19.1869 10.9732C19.1132 10.9734 19.0394 10.9735 18.9635 10.9736C18.8957 10.9734 18.8279 10.9732 18.7581 10.973C18.6981 10.9729 18.6381 10.9729 18.5763 10.9728C18.4394 10.9641 18.4394 10.9641 18.3701 10.895C18.2621 9.69735 18.4316 8.48212 18.5778 7.29561C18.6074 7.05344 18.636 6.81113 18.6646 6.56885C18.7126 6.16394 18.7614 5.75911 18.8106 5.35435C18.88 4.7839 18.9481 4.21331 19.016 3.64269C19.069 3.19722 19.1224 2.75178 19.1758 2.30636C19.1815 2.25893 19.1872 2.2115 19.193 2.16263C19.2307 1.84889 19.2686 1.53519 19.3067 1.2215C19.3162 1.14268 19.3257 1.06386 19.3354 0.982656C19.3443 0.910192 19.3531 0.837729 19.3622 0.76307C19.3698 0.70035 19.3774 0.637629 19.3853 0.573008C19.4099 0.398182 19.4446 0.224867 19.4794 0.0517578Z" fill="white"/>
<path d="M63.9219 0.0517578C67.6054 0.0517578 71.2889 0.0517578 75.084 0.0517578C75.2149 0.573236 75.3409 1.09061 75.4488 1.61652C75.4623 1.68214 75.4759 1.74776 75.4899 1.81537C75.5181 1.95231 75.5462 2.08926 75.5743 2.22623C75.6173 2.43601 75.6608 2.64569 75.7043 2.85537C75.7318 2.98918 75.7593 3.12299 75.7868 3.25681C75.7998 3.31926 75.8128 3.3817 75.8261 3.44604C75.838 3.50419 75.8498 3.56233 75.862 3.62224C75.8724 3.67311 75.8829 3.72398 75.8937 3.77639C75.9159 3.91941 75.9159 3.91941 75.9159 4.19567C75.9846 4.19567 76.0532 4.19567 76.1239 4.19567C76.1341 4.11064 76.1443 4.02562 76.1548 3.93802C76.3159 2.63632 76.5338 1.34586 76.7479 0.0517578C77.8461 0.0517578 78.9443 0.0517578 80.0757 0.0517578C80.0757 1.17776 80.057 1.9337 79.718 2.94548C79.6802 3.06413 79.6425 3.18284 79.6051 3.30162C79.5061 3.6141 79.4044 3.92565 79.3021 4.23708C79.1967 4.55974 79.0938 4.88322 78.9909 5.20665C78.8477 5.65559 78.7039 6.10429 78.559 6.55266C78.2439 7.52797 77.9426 8.50709 77.6449 9.48778C77.5648 9.75062 77.4845 10.0134 77.4041 10.2761C77.3874 10.331 77.3708 10.3859 77.3536 10.4424C77.2411 10.8103 77.2411 10.8103 77.1639 10.9641C76.7208 10.9658 76.2778 10.967 75.8348 10.9678C75.6839 10.9682 75.5331 10.9687 75.3822 10.9693C75.1659 10.9701 74.9496 10.9705 74.7333 10.9708C74.6315 10.9713 74.6315 10.9713 74.5276 10.9719C74.4651 10.9719 74.4027 10.9719 74.3383 10.9719C74.283 10.972 74.2278 10.9722 74.1708 10.9724C74.044 10.9641 74.044 10.9641 73.9747 10.895C73.8927 10.124 73.9206 9.3987 74.2523 8.69219C74.4196 8.17249 74.1729 7.6806 73.9712 7.20378C73.9285 7.1006 73.9285 7.1006 73.885 6.99534C73.7927 6.77265 73.6996 6.55036 73.6064 6.32805C73.5428 6.17483 73.4792 6.02157 73.4157 5.86829C73.3209 5.63931 73.226 5.41036 73.1309 5.18151C72.8773 4.57131 72.629 3.95914 72.3845 3.3453C72.1571 2.77472 71.9256 2.20622 71.6868 1.64026C71.6622 1.69985 71.6376 1.75944 71.6123 1.82084C71.4629 2.18292 71.3082 2.53264 71.1322 2.88343C70.606 2.88343 70.0798 2.88343 69.5376 2.88343C69.5376 5.55003 69.5376 8.21664 69.5376 10.9641C68.3708 10.9641 67.204 10.9641 66.0018 10.9641C65.9324 10.895 65.9324 10.895 65.9239 10.7614C65.924 10.7024 65.924 10.6433 65.9241 10.5825C65.924 10.515 65.9239 10.4475 65.9238 10.378C65.9241 10.3033 65.9243 10.2286 65.9246 10.1517C65.9246 10.0736 65.9246 9.99541 65.9245 9.91489C65.9246 9.65516 65.9251 9.39544 65.9257 9.13571C65.9258 8.95619 65.9259 8.77667 65.926 8.59715C65.9262 8.17203 65.9268 7.74692 65.9274 7.3218C65.9282 6.83794 65.9286 6.35407 65.929 5.87021C65.9297 4.87461 65.9309 3.87902 65.9324 2.88343C65.8448 2.88397 65.8448 2.88397 65.7553 2.88452C65.5392 2.8857 65.323 2.88657 65.1069 2.88722C65.0132 2.88757 64.9195 2.88804 64.8258 2.88864C64.6914 2.88947 64.557 2.88983 64.4226 2.89017C64.3012 2.89072 64.3012 2.89072 64.1773 2.89127C63.9912 2.88343 63.9912 2.88343 63.9219 2.81436C63.9219 1.9027 63.9219 0.991044 63.9219 0.0517578Z" fill="white"/>
<path d="M10.7992 0.0379091C10.8625 0.0372334 10.9259 0.0365577 10.9912 0.0358615C11.2016 0.03379 11.412 0.0323148 11.6224 0.0310127C11.6943 0.0305588 11.7661 0.0301049 11.8401 0.0296373C12.2206 0.0273848 12.6011 0.0256966 12.9816 0.0243524C13.2963 0.0231232 13.611 0.0207203 13.9257 0.0172705C14.3058 0.0131096 14.6857 0.0109895 15.0658 0.0103202C15.2105 0.00972968 15.3551 0.00843069 15.4998 0.00640122C15.7028 0.00370759 15.9056 0.00364293 16.1086 0.00418589C16.1976 0.00211388 16.1976 0.00211388 16.2885 0C16.674 0.0046097 16.9155 0.0915614 17.2102 0.342857C17.6465 0.799338 17.646 1.28501 17.6418 1.89105C17.6423 1.97714 17.6428 2.06323 17.6433 2.15193C17.6443 2.38669 17.644 2.62138 17.6432 2.85613C17.6425 3.10263 17.6431 3.34912 17.6436 3.59562C17.6441 4.00944 17.6434 4.42325 17.6421 4.83708C17.6406 5.31446 17.641 5.79181 17.6426 6.26919C17.6438 6.6802 17.644 7.09119 17.6433 7.5022C17.6429 7.74718 17.6428 7.99215 17.6437 8.23713C17.6447 8.51037 17.6433 8.78358 17.6418 9.05683C17.6424 9.13728 17.6429 9.21774 17.6435 9.30063C17.6378 9.84985 17.5446 10.1968 17.2073 10.6409C16.8008 10.9446 16.3729 10.9953 15.8824 10.9925C15.8237 10.993 15.765 10.9935 15.7045 10.994C15.5121 10.9952 15.3198 10.995 15.1274 10.9946C14.9927 10.9949 14.858 10.9952 14.7234 10.9957C14.4418 10.9963 14.1602 10.9961 13.8786 10.9954C13.5187 10.9946 13.1588 10.996 12.7988 10.998C12.521 10.9993 12.2431 10.9993 11.9652 10.9989C11.8325 10.9989 11.6999 10.9993 11.5672 11.0002C11.3814 11.0012 11.1956 11.0005 11.0098 10.9993C10.9556 10.9999 10.9015 11.0006 10.8456 11.0013C10.3573 10.9948 9.99897 10.8388 9.64598 10.5027C9.29325 9.97066 9.2559 9.45083 9.25941 8.82564C9.25905 8.74515 9.25869 8.66466 9.25831 8.58173C9.2574 8.31711 9.258 8.05251 9.2587 7.78789C9.25856 7.60307 9.25836 7.41825 9.2581 7.23343C9.25772 6.84661 9.25822 6.4598 9.25921 6.07298C9.26034 5.62734 9.25998 5.18173 9.25883 4.73609C9.25788 4.35188 9.25776 3.96768 9.2583 3.58348C9.25862 3.35471 9.25859 3.12595 9.25798 2.89718C9.25745 2.64183 9.25826 2.38652 9.25941 2.13118C9.25899 2.05649 9.25857 1.98181 9.25814 1.90486C9.26243 1.38945 9.29767 0.85039 9.63108 0.434073C9.7028 0.37972 9.7028 0.37972 9.77597 0.32427C9.82396 0.286432 9.87195 0.248595 9.9214 0.209611C10.2029 0.0149093 10.467 0.0401303 10.7992 0.0379091ZM12.8915 2.884C12.8915 4.59336 12.8915 6.30272 12.8915 8.06388C13.2804 8.06388 13.6694 8.06388 14.0701 8.06388C14.0701 6.35452 14.0701 4.64516 14.0701 2.884C13.6811 2.884 13.2922 2.884 12.8915 2.884Z" fill="white"/>
<path d="M30.7898 0.0693359C33.5214 0.0693359 36.253 0.0693359 39.0674 0.0693359C39.0674 1.59021 39.0674 1.59021 38.5109 2.90369C37.1566 2.90369 35.8022 2.90369 34.4069 2.90369C34.4069 3.24588 34.4069 3.58808 34.4069 3.94065C34.5174 3.93847 34.6279 3.9363 34.7418 3.93406C35.1536 3.92653 35.5654 3.92178 35.9773 3.91786C36.1552 3.91578 36.3331 3.91296 36.511 3.90936C36.7675 3.9043 37.0238 3.90196 37.2803 3.90014C37.3592 3.898 37.4381 3.89586 37.5195 3.89365C38.0471 3.89343 38.3977 3.99301 38.7891 4.35543C39.0869 4.73674 39.1452 5.09732 39.1492 5.56781C39.1497 5.61259 39.1501 5.65737 39.1506 5.70351C39.152 5.8513 39.1528 5.99909 39.1535 6.14688C39.1538 6.19763 39.1541 6.24837 39.1543 6.30066C39.1558 6.5695 39.1568 6.83834 39.1574 7.10718C39.1582 7.38332 39.1606 7.65941 39.1634 7.93554C39.1652 8.14917 39.1658 8.3628 39.166 8.57644C39.1664 8.67814 39.1672 8.77983 39.1685 8.88152C39.1753 9.45503 39.1767 10.0068 38.8587 10.508C38.5106 10.8447 38.2062 11.0005 37.719 11.0007C37.6584 11.0009 37.5978 11.0011 37.5354 11.0013C37.4366 11.0011 37.4366 11.0011 37.3358 11.0009C37.266 11.001 37.1962 11.0011 37.1243 11.0013C36.8935 11.0016 36.6627 11.0014 36.432 11.0011C36.2719 11.0012 36.1118 11.0013 35.9518 11.0013C35.6164 11.0014 35.2811 11.0013 34.9458 11.001C34.5149 11.0006 34.084 11.0008 33.6531 11.0012C33.3227 11.0015 32.9923 11.0014 32.6619 11.0012C32.503 11.0012 32.344 11.0012 32.1851 11.0014C31.9636 11.0016 31.7421 11.0013 31.5205 11.0009C31.4542 11.001 31.3879 11.0012 31.3196 11.0013C31.2596 11.0011 31.1997 11.0009 31.1379 11.0007C31.0855 11.0007 31.033 11.0007 30.979 11.0007C30.8594 10.992 30.8594 10.992 30.7898 10.9228C30.7831 10.7828 30.7813 10.6426 30.7815 10.5025C30.7814 10.4581 30.7813 10.4137 30.7813 10.368C30.7812 10.2182 30.7815 10.0684 30.7819 9.91867C30.7819 9.81173 30.7819 9.70479 30.7819 9.59785C30.7819 9.30663 30.7823 9.01541 30.7828 8.72419C30.7832 8.42018 30.7832 8.11617 30.7833 7.81216C30.7835 7.23607 30.7841 6.65998 30.7848 6.08389C30.7857 5.30571 30.7861 4.52753 30.7865 3.74935C30.7872 2.52268 30.7886 1.29601 30.7898 0.0693359ZM34.4069 6.84413C34.4069 7.25476 34.4069 7.6654 34.4069 8.08848C34.7742 8.08848 35.1414 8.08848 35.5198 8.08848C35.5198 7.67784 35.5198 7.26721 35.5198 6.84413C35.1526 6.84413 34.7853 6.84413 34.4069 6.84413Z" fill="white"/>
<path d="M0 0.0517578C1.16682 0.0517578 2.33364 0.0517578 3.53582 0.0517578C3.53582 1.32808 3.53582 2.60441 3.53582 3.91941C3.6731 3.91941 3.81037 3.91941 3.9518 3.91941C3.95809 3.87781 3.96438 3.83621 3.97086 3.79335C4.09216 3.03045 4.25439 2.27568 4.41111 1.51939C4.51121 1.03507 4.6113 0.550753 4.71443 0.0517578C5.85838 0.0517578 7.00232 0.0517578 8.18093 0.0517578C8.18093 1.63647 8.18093 1.63647 7.92067 2.31904C7.89434 2.39395 7.86802 2.46887 7.8409 2.54606C7.75838 2.78015 7.67309 3.0131 7.58729 3.24602C7.50162 3.482 7.41661 3.71817 7.33294 3.95486C7.28126 4.10075 7.2284 4.24622 7.17416 4.39118C6.90675 5.13918 7.09959 5.63182 7.36657 6.35206C7.4265 6.51924 7.4863 6.68647 7.54599 6.85373C7.63931 7.11421 7.7336 7.37424 7.82993 7.63363C8.25011 8.76952 8.49948 9.74904 8.38892 10.9641C7.89778 10.9693 7.40665 10.9729 6.91549 10.9754C6.7483 10.9765 6.58111 10.9779 6.41393 10.9797C6.17403 10.9822 5.93416 10.9834 5.69426 10.9843C5.58159 10.9859 5.58159 10.9859 5.46665 10.9875C5.39726 10.9875 5.32787 10.9876 5.25638 10.9876C5.1951 10.988 5.13383 10.9885 5.0707 10.989C5.02177 10.9807 4.97284 10.9725 4.92242 10.9641C4.78091 10.7526 4.74364 10.6235 4.69165 10.3783C4.675 10.3009 4.65836 10.2235 4.64121 10.1437C4.62373 10.0602 4.60624 9.97664 4.58823 9.89057C4.56996 9.80502 4.55169 9.71947 4.53287 9.63132C4.48445 9.40419 4.43642 9.17699 4.38858 8.94973C4.33963 8.71773 4.29018 8.48583 4.24077 8.25392C4.14398 7.79911 4.0477 7.3442 3.9518 6.88921C3.74589 6.85502 3.74589 6.85502 3.53582 6.82014C3.53582 8.18763 3.53582 9.55512 3.53582 10.9641C2.369 10.9641 1.20218 10.9641 0 10.9641C0 7.36299 0 3.76194 0 0.0517578Z" fill="white"/>
<path d="M80.907 0.0519505C81.867 0.0454911 82.827 0.0406409 83.7871 0.0376369C84.2329 0.0361951 84.6787 0.0342393 85.1245 0.0311096C85.5547 0.0281081 85.9848 0.026456 86.415 0.0257397C86.5792 0.0252292 86.7433 0.0242323 86.9075 0.0227415C87.1373 0.0207363 87.3672 0.0204599 87.5971 0.0205879C87.6649 0.0195947 87.7328 0.0186015 87.8027 0.0175781C88.2759 0.0204309 88.5069 0.106688 88.8528 0.433697C89.1664 0.819925 89.2473 1.12178 89.2467 1.61178C89.2472 1.66338 89.2476 1.71497 89.2481 1.76813C89.2494 1.93817 89.2497 2.10818 89.2499 2.27822C89.2503 2.39702 89.2508 2.51582 89.2513 2.63461C89.2521 2.88356 89.2523 3.1325 89.2523 3.38144C89.2522 3.69921 89.2541 4.01693 89.2565 4.33468C89.2581 4.58011 89.2583 4.82553 89.2583 5.07096C89.2584 5.18803 89.259 5.30511 89.2601 5.42218C89.2708 6.70877 89.2709 6.70877 88.8258 7.24552C88.7668 7.29146 88.7668 7.29146 88.7066 7.33832C88.6476 7.3864 88.6476 7.3864 88.5874 7.43545C88.3426 7.5852 88.0998 7.58856 87.8178 7.58789C87.7443 7.58789 87.6707 7.58788 87.595 7.58788C87.516 7.58752 87.4371 7.58716 87.3557 7.5868C87.2746 7.5867 87.1934 7.5866 87.1098 7.5865C86.8505 7.58611 86.5913 7.58525 86.332 7.58437C86.1563 7.58402 85.9805 7.58371 85.8048 7.58342C85.3739 7.58272 84.943 7.58137 84.5121 7.58005C84.5121 8.69683 84.5121 9.81362 84.5121 10.9642C84.0098 10.9658 83.5076 10.9672 83.0053 10.968C82.8342 10.9684 82.6632 10.9689 82.4922 10.9695C82.247 10.9703 82.0018 10.9707 81.7565 10.971C81.6796 10.9713 81.6026 10.9717 81.5233 10.9721C81.4171 10.9721 81.4171 10.9721 81.3088 10.9721C81.2148 10.9723 81.2148 10.9723 81.1189 10.9725C80.9763 10.9642 80.9763 10.9642 80.907 10.8952C80.9003 10.7553 80.8985 10.6152 80.8986 10.4752C80.8986 10.4309 80.8985 10.3865 80.8985 10.3409C80.8983 10.1912 80.8987 10.0416 80.8991 9.89196C80.8991 9.78512 80.8991 9.67829 80.8991 9.57145C80.8991 9.2805 80.8995 8.98956 80.8999 8.69861C80.9004 8.39489 80.9004 8.09117 80.9005 7.78745C80.9007 7.21191 80.9013 6.63636 80.902 6.06082C80.9028 5.40576 80.9031 4.75069 80.9035 4.09563C80.9042 2.74773 80.9054 1.39984 80.907 0.0519505ZM84.5121 2.88362C84.5121 3.4762 84.5121 4.06878 84.5121 4.67932C84.8782 4.67932 85.2443 4.67932 85.6214 4.67932C85.6214 4.08674 85.6214 3.49416 85.6214 2.88362C85.2553 2.88362 84.8893 2.88362 84.5121 2.88362Z" fill="white"/>
<path d="M90.2663 0.0517578C91.4561 0.0517578 92.6458 0.0517578 93.8715 0.0517578C93.8715 1.14575 93.8715 2.23974 93.8715 3.36688C94.1203 3.36368 94.3691 3.36047 94.6255 3.35717C94.8675 3.35502 95.1096 3.35334 95.3517 3.35171C95.5194 3.35032 95.6871 3.34844 95.8548 3.34604C96.0965 3.34268 96.338 3.34112 96.5797 3.33991C96.6542 3.33848 96.7287 3.33705 96.8054 3.33559C97.2517 3.33545 97.5907 3.38476 97.962 3.64315C98.3046 3.98449 98.4689 4.38803 98.4762 4.86705C98.4759 4.9147 98.4756 4.96236 98.4753 5.01146C98.4758 5.06308 98.4762 5.1147 98.4767 5.16788C98.478 5.33717 98.4777 5.50642 98.4773 5.67571C98.4777 5.79431 98.478 5.91291 98.4784 6.03151C98.4791 6.27963 98.4789 6.52774 98.4782 6.77586C98.4774 7.09254 98.4788 7.40917 98.4808 7.72584C98.4821 7.97068 98.4821 8.2155 98.4817 8.46033C98.4817 8.57702 98.4821 8.69371 98.483 8.8104C98.4915 10.1516 98.4915 10.1516 98.0096 10.6446C97.5365 10.9296 97.1872 10.9941 96.6412 10.9887C96.5388 10.9889 96.5388 10.9889 96.4344 10.9891C96.21 10.9893 95.9857 10.988 95.7613 10.9867C95.6052 10.9865 95.449 10.9864 95.2929 10.9863C94.9664 10.986 94.64 10.985 94.3135 10.9835C93.8941 10.9815 93.4746 10.9808 93.0552 10.9805C92.7332 10.9802 92.4112 10.9795 92.0892 10.9787C91.9345 10.9783 91.7797 10.9779 91.625 10.9777C91.4095 10.9772 91.1941 10.9763 90.9786 10.9752C90.9142 10.9751 90.8497 10.975 90.7833 10.9749C90.3436 10.972 90.3436 10.972 90.2663 10.895C90.2596 10.7551 90.2579 10.615 90.258 10.475C90.258 10.4307 90.2579 10.3864 90.2578 10.3407C90.2577 10.191 90.2581 10.0414 90.2585 9.89177C90.2585 9.78493 90.2585 9.67809 90.2584 9.57125C90.2584 9.28031 90.2588 8.98937 90.2593 8.69842C90.2598 8.3947 90.2598 8.09098 90.2599 7.78726C90.2601 7.21171 90.2607 6.63617 90.2614 6.06063C90.2621 5.40556 90.2625 4.7505 90.2629 4.09543C90.2636 2.74754 90.2649 1.39965 90.2663 0.0517578ZM93.8715 6.26762C93.8715 6.8602 93.8715 7.45278 93.8715 8.06331C94.1918 8.06331 94.5121 8.06331 94.8421 8.06331C94.8421 7.47074 94.8421 6.87816 94.8421 6.26762C94.5218 6.26762 94.2015 6.26762 93.8715 6.26762Z" fill="white"/>
<path d="M41.7628 0.0434637C41.8441 0.0438362 41.8441 0.0438362 41.9271 0.0442162C41.9839 0.0442061 42.0407 0.044196 42.0993 0.0441856C42.288 0.0442339 42.4766 0.0447722 42.6653 0.0453122C42.7958 0.0454409 42.9263 0.0455393 43.0567 0.0456083C43.4008 0.0458725 43.7449 0.0465515 44.089 0.0473145C44.4399 0.0480198 44.7907 0.0483362 45.1416 0.0486845C45.8305 0.0494261 46.5194 0.0506056 47.2083 0.0520568C47.4 1.19921 47.5899 2.34663 47.7778 3.4944C47.8652 4.02753 47.953 4.56057 48.0422 5.09339C48.1201 5.55876 48.197 6.0243 48.2726 6.49005C48.3125 6.73579 48.3529 6.98142 48.3946 7.22686C48.4416 7.50344 48.4862 7.78036 48.5306 8.05736C48.551 8.1742 48.551 8.1742 48.5719 8.29341C48.7129 9.19929 48.6643 10.0156 48.6643 10.9643C45.7587 10.9643 42.853 10.9643 39.8594 10.9643C39.8594 8.98061 39.8594 8.98061 39.9919 8.20593C40.006 8.11687 40.0201 8.0278 40.0346 7.93605C40.0722 7.6985 40.1115 7.46124 40.1511 7.22402C40.1926 6.9735 40.2326 6.72273 40.2729 6.47199C40.3402 6.05325 40.4085 5.63469 40.4776 5.21623C40.5751 4.62531 40.6707 4.0341 40.766 3.44282C40.8323 3.03187 40.899 2.621 40.9659 2.21014C40.982 2.11082 40.9982 2.0115 41.0143 1.91217C41.067 1.58752 41.1203 1.26296 41.1738 0.938438C41.1871 0.856152 41.2005 0.773866 41.2143 0.689086C41.2266 0.614778 41.239 0.54047 41.2517 0.46391C41.2624 0.398987 41.273 0.334065 41.284 0.267175C41.3451 -0.0181351 41.4996 0.0439728 41.7628 0.0434637ZM45.0591 1.1571C45.0591 1.20268 45.0591 1.24827 45.0591 1.29523C45.0134 1.29523 44.9676 1.29523 44.9205 1.29523C44.805 1.64031 44.8072 1.98987 44.9205 2.33552C44.9433 2.37968 44.9662 2.42384 44.9898 2.46934C44.7839 2.51492 44.578 2.5605 44.3658 2.60747C44.3523 2.45459 44.3387 2.30171 44.3252 2.14883C44.2773 1.87692 44.2076 1.74468 43.9802 1.58444C43.6693 1.47746 43.4339 1.48786 43.1179 1.57149C42.9078 1.68281 42.8001 1.75712 42.7271 1.98642C42.7103 2.06094 42.7103 2.06094 42.6932 2.13696C42.6632 2.2673 42.6632 2.2673 42.6326 2.40027C42.5639 2.42306 42.4953 2.44585 42.4246 2.46934C42.4306 2.52609 42.4306 2.52609 42.4368 2.584C42.4597 2.9851 42.3876 3.311 42.2513 3.68661C42.0598 4.20621 42.0598 4.20621 42.0779 4.74849C42.1678 4.88656 42.2646 4.9992 42.3804 5.11647C42.4886 5.22656 42.5703 5.33906 42.6586 5.46504C42.9055 5.71102 43.0529 5.70384 43.3952 5.7154C43.4694 6.30913 43.4677 6.80592 43.3045 7.38402C43.2477 7.5759 43.2477 7.5759 43.2655 7.76118C43.2532 7.98645 43.1665 8.04765 43.0052 8.20174C42.6789 8.54475 42.2859 9.09013 42.2859 9.58305C42.2402 9.58305 42.1944 9.58305 42.1473 9.58305C42.1187 9.64572 42.0901 9.7084 42.0606 9.77298C41.9469 9.98339 41.8389 10.1156 41.662 10.2737C41.6848 10.3421 41.7077 10.4104 41.7313 10.4809C41.9545 10.5601 41.9545 10.5601 42.2166 10.619C42.301 10.6461 42.3853 10.6732 42.4722 10.701C42.6856 10.7532 42.7797 10.7676 42.9792 10.6881C42.9463 10.6639 42.9134 10.6397 42.8796 10.6147C42.6862 10.3758 42.6955 10.0997 42.7141 9.80292C42.7863 9.52504 42.9328 9.34165 43.1135 9.12549C43.351 8.84232 43.351 8.84232 43.5431 8.52845C43.6429 8.32992 43.8348 8.24891 44.0192 8.13268C44.2273 7.96644 44.2656 7.82613 44.3095 7.56721C44.3205 7.50498 44.3315 7.44275 44.3428 7.37863C44.3504 7.33118 44.358 7.28372 44.3658 7.23483C44.5738 7.3039 44.5738 7.3039 44.645 7.41397C44.6659 7.45742 44.6867 7.50086 44.7081 7.54563C44.8064 7.74624 44.8064 7.74624 45.0028 7.83915C45.0443 7.84485 45.0857 7.85055 45.1284 7.85642C45.195 8.05532 45.202 8.18108 45.2064 8.38736C45.2437 8.86588 45.4394 9.25837 45.6419 9.68637C45.7815 9.99205 45.8311 10.2151 45.8217 10.55C45.9104 10.5514 45.9991 10.5528 46.0904 10.5543C46.1652 10.5555 46.1652 10.5555 46.2415 10.5567C46.3821 10.5587 46.3821 10.5587 46.515 10.4809C46.6948 10.4621 46.8745 10.4501 47.0548 10.438C47.1055 10.4294 47.1561 10.4207 47.2083 10.4118C47.2312 10.3662 47.2541 10.3207 47.2777 10.2737C47.2161 10.2635 47.2161 10.2635 47.1534 10.2532C47.0986 10.2429 47.0438 10.2325 46.9874 10.2219C46.9335 10.2123 46.8796 10.2027 46.8241 10.1928C46.6005 10.1177 46.4738 10.026 46.3071 9.85931C46.2174 9.64024 46.2174 9.64024 46.1554 9.39312C46.1332 9.30685 46.1111 9.22058 46.0882 9.1317C46.0689 9.05273 46.0496 8.97376 46.0297 8.8924C46.0147 8.83978 45.9997 8.78716 45.9842 8.73295C45.9116 8.47718 45.8836 8.23664 45.8694 7.97297C45.8417 7.60803 45.7259 7.34221 45.5634 7.01738C45.4389 6.73962 45.3737 6.45577 45.3072 6.15974C45.2741 5.99237 45.2741 5.99237 45.1978 5.85353C45.195 5.6924 45.1948 5.5312 45.1978 5.37007C45.2435 5.34728 45.2893 5.32449 45.3364 5.30101C45.3599 5.3692 45.3833 5.4374 45.4074 5.50766C45.4386 5.59706 45.4698 5.68645 45.5011 5.77583C45.5165 5.82079 45.5318 5.86575 45.5477 5.91207C45.6186 6.11359 45.6682 6.25311 45.8217 6.40605C45.9596 6.43351 46.0983 6.457 46.2377 6.47512C46.1656 6.21533 46.0894 5.95812 46.0037 5.70245C45.9864 5.6501 45.9691 5.59775 45.9512 5.54382C45.9078 5.41847 45.8616 5.2941 45.8136 5.17043C45.6594 4.75727 45.5888 4.45145 45.6576 4.01467C45.7128 3.65948 45.6949 3.31159 45.6441 2.95711C45.6138 2.7456 45.6138 2.7456 45.6831 2.60747C45.7278 2.59821 45.7725 2.58895 45.8185 2.57941C45.8887 2.55911 45.8887 2.55911 45.9604 2.5384C46.1607 2.13935 46.1961 1.8057 46.1684 1.36429C46.0659 1.3181 45.9633 1.27209 45.8607 1.22616C45.8036 1.20052 45.7465 1.17488 45.6877 1.14847C45.4656 1.0548 45.296 1.11693 45.0591 1.1571Z" fill="white"/>
<path d="M48.5312 0.0517578C51.0937 0.0517578 53.6561 0.0517578 56.2962 0.0517578C56.2962 1.71923 56.2962 1.71923 56.0189 2.28343C55.9274 2.48143 55.8358 2.67943 55.7416 2.88343C55.2153 2.88343 54.6891 2.88343 54.147 2.88343C54.1473 3.12576 54.1477 3.36809 54.1481 3.61777C54.1492 4.41637 54.15 5.21498 54.1506 6.01358C54.1509 6.49801 54.1514 6.98244 54.1522 7.46687C54.153 7.93393 54.1534 8.401 54.1536 8.86806C54.1537 9.0467 54.1539 9.22534 54.1543 9.40398C54.1548 9.65322 54.1549 9.90246 54.1548 10.1517C54.1551 10.2264 54.1553 10.301 54.1556 10.378C54.1555 10.4455 54.1554 10.513 54.1553 10.5825C54.1554 10.6415 54.1554 10.7006 54.1555 10.7614C54.147 10.895 54.147 10.895 54.0776 10.9641C52.9108 10.9641 51.744 10.9641 50.5418 10.9641C50.5418 8.29745 50.5418 5.63084 50.5418 2.88343C49.8783 2.88343 49.2148 2.88343 48.5312 2.88343C48.5312 1.94898 48.5312 1.01453 48.5312 0.0517578Z" fill="white"/>
<path d="M99.2109 0.0517578C100.355 0.0517578 101.499 0.0517578 102.677 0.0517578C102.677 3.65281 102.677 7.25387 102.677 10.9641C101.533 10.9641 100.39 10.9641 99.2109 10.9641C99.2109 7.36299 99.2109 3.76194 99.2109 0.0517578Z" fill="white"/>
<path d="M59.7621 2.67773C59.8307 2.67773 59.8994 2.67773 59.9701 2.67773C60.0691 2.95048 60.1678 3.22333 60.2663 3.49627C60.2998 3.58914 60.3334 3.68198 60.3671 3.77479C60.4155 3.90808 60.4636 4.04146 60.5117 4.17487C60.5407 4.25515 60.5698 4.33544 60.5997 4.41815C60.6633 4.61133 60.6633 4.61133 60.6633 4.74945C61.3954 4.74945 62.1274 4.74945 62.8816 4.74945C62.8816 4.8406 62.8816 4.93176 62.8816 5.02567C62.8359 5.02567 62.7901 5.02567 62.743 5.02567C62.743 5.07125 62.743 5.11683 62.743 5.16379C62.6515 5.18658 62.56 5.20936 62.4657 5.23284C62.4657 5.27842 62.4657 5.324 62.4657 5.37096C62.3644 5.45998 62.3644 5.45998 62.2317 5.55223C62.1883 5.58303 62.1449 5.61383 62.1001 5.64557C61.9804 5.71624 61.9804 5.71624 61.8418 5.71624C61.8418 5.76182 61.8418 5.8074 61.8418 5.85436C61.7503 5.87715 61.6588 5.89994 61.5645 5.92341C61.5645 5.96899 61.5645 6.01457 61.5645 6.06153C61.473 6.08432 61.3815 6.10711 61.2872 6.13059C61.3311 6.6325 61.4633 7.09784 61.6035 7.58078C61.6263 7.66063 61.6492 7.74048 61.6727 7.82275C61.7287 8.01843 61.7851 8.21399 61.8418 8.40947C61.7732 8.44365 61.7732 8.44365 61.7031 8.47852C61.6542 8.44542 61.6053 8.41231 61.5548 8.37819C61.3726 8.25522 61.1902 8.13262 61.0076 8.01025C60.9287 7.95727 60.8499 7.90416 60.7712 7.85089C60.6578 7.77424 60.5441 7.69814 60.4304 7.62206C60.3622 7.57613 60.2939 7.5302 60.2236 7.48288C60.0607 7.38623 59.9488 7.32611 59.7621 7.30456C59.6935 7.32734 59.6249 7.35013 59.5542 7.37361C59.5542 7.41919 59.5542 7.46477 59.5542 7.51173C59.3973 7.62475 59.2413 7.72896 59.0776 7.83111C59.0324 7.86014 58.9873 7.88916 58.9408 7.91905C58.6022 8.13324 58.6022 8.13324 58.445 8.13324C58.445 8.17882 58.445 8.22439 58.445 8.27135C58.237 8.40947 58.237 8.40947 57.9597 8.40947C58.0005 7.96735 58.1059 7.57127 58.2414 7.14918C58.2801 7.02808 58.3185 6.90687 58.3564 6.78555C58.3734 6.73265 58.3904 6.67975 58.4079 6.62525C58.4561 6.45682 58.4561 6.45682 58.445 6.19964C58.3209 6.06864 58.3209 6.06864 58.1515 5.95336C58.0902 5.90845 58.0288 5.86354 57.9657 5.81727C57.9008 5.77111 57.8359 5.72495 57.7691 5.6774C57.7053 5.63098 57.6415 5.58455 57.5758 5.53672C57.4566 5.45008 57.3371 5.3638 57.2173 5.27801C57.0707 5.1725 56.9256 5.06521 56.7812 4.95662C56.8041 4.88825 56.827 4.81988 56.8506 4.74945C57.5826 4.74945 58.3147 4.74945 59.0689 4.74945C59.0918 4.6355 59.1146 4.52156 59.1382 4.40416C59.1837 4.26626 59.2316 4.12917 59.2815 3.99279C59.3094 3.91601 59.3373 3.83923 59.3661 3.76012C59.3953 3.68067 59.4244 3.60122 59.4545 3.51937C59.4839 3.43858 59.5134 3.3578 59.5437 3.27457C59.6163 3.07554 59.6891 2.8766 59.7621 2.67773Z" fill="white"/>
</svg>
