<svg width="60" height="15" viewBox="0 0 60 15" fill="none" xmlns="http://www.w3.org/2000/svg">
<path d="M7.03784 0.020337C7.0068 0.056226 6.80743 0.382816 6.69162 0.588579C6.16753 1.52169 5.87862 2.32202 5.7091 3.30777C5.6315 3.76595 5.59807 4.1045 5.58852 4.57585C5.56584 5.56878 5.69119 6.38465 6.02308 7.42304C6.19857 7.97214 6.45166 8.51646 6.79191 9.07992C6.88503 9.23304 7.05097 9.4747 7.0641 9.4747C7.07365 9.4747 7.15603 9.35865 7.26228 9.19356C7.50701 8.81434 7.75653 8.31787 7.95351 7.81782C8.25555 7.0498 8.44776 6.22076 8.52297 5.34746C8.54327 5.12016 8.54207 4.39999 8.52297 4.16911C8.47283 3.58531 8.32837 2.81011 8.17318 2.28852C8.04185 1.84709 7.83054 1.33986 7.58342 0.872103C7.43538 0.593365 7.08201 0.0011962 7.06291 -1.00583e-07C7.05933 -1.00583e-07 7.04739 0.0095703 7.03784 0.020337ZM7.16438 0.935506C7.4139 1.3913 7.67893 2.00978 7.8198 2.46438C7.99052 3.01348 8.10393 3.60684 8.16482 4.27079C8.18511 4.49569 8.18511 5.34148 8.16482 5.56279C8.13378 5.90494 8.06454 6.39303 8.04424 6.41456C8.04066 6.41935 8.03588 6.28895 8.03469 6.12506C8.03111 5.51255 7.94993 4.82468 7.82099 4.29711C7.72191 3.89037 7.55238 3.37596 7.3733 2.93692C7.26347 2.66536 7.07604 2.29091 7.05216 2.29091C7.01038 2.29091 6.74057 2.88906 6.59015 3.31375C6.23558 4.31146 6.10545 5.03403 6.0756 6.14898C6.06725 6.44447 6.06605 6.46122 6.05292 6.38824C6.02069 6.21717 5.97652 5.80564 5.95264 5.47307C5.93354 5.2039 5.93354 4.48971 5.95264 4.27677C5.99562 3.78749 6.08754 3.26231 6.21051 2.79336C6.3287 2.33877 6.68327 1.43077 6.91487 0.986947C7.03426 0.757258 7.045 0.741706 7.06052 0.756061C7.06768 0.764436 7.11544 0.845784 7.16438 0.935506ZM7.1226 5.82598C7.28974 6.18726 7.40673 6.63109 7.45687 7.09645C7.47359 7.24599 7.47359 7.63598 7.45687 7.78552C7.41509 8.17432 7.31839 8.54637 7.16796 8.90167C7.11663 9.0201 7.06768 9.11581 7.05694 9.11581C7.04978 9.11581 6.97218 8.9555 6.92562 8.84425C6.76206 8.45186 6.66417 7.9853 6.64029 7.49482C6.6188 7.07611 6.71669 6.5318 6.89338 6.07122C6.94711 5.93125 7.04978 5.71831 7.06291 5.71831C7.06768 5.71831 7.09514 5.76617 7.1226 5.82598Z" fill="white"/>
<path d="M4.7209 4.6318C3.97475 4.69879 3.21308 4.94284 2.55886 5.32804C1.95597 5.68215 1.39248 6.19536 0.980608 6.766C-0.043704 8.18361 -0.282471 10.0283 0.344293 11.6708C0.833766 12.9509 1.83181 14.0012 3.09012 14.5575C3.5975 14.7824 4.13115 14.92 4.71971 14.9798C4.90475 14.9977 5.46586 14.9977 5.6509 14.9798C6.7361 14.8709 7.69952 14.469 8.51611 13.7847C8.5758 13.7344 8.69996 13.6184 8.79427 13.5263L8.9638 13.3588V11.5847V9.81058H7.07157H5.17933V10.6193V11.428L5.2247 11.3897C5.46944 11.1839 5.70701 11.0643 5.96727 11.0176C6.09381 10.9949 6.3672 10.9973 6.49614 11.0236C7.05485 11.1337 7.49418 11.556 7.63625 12.1194C7.6649 12.2331 7.66848 12.2654 7.66729 12.4604C7.66729 12.6614 7.6649 12.6853 7.63028 12.8133C7.54313 13.1435 7.38435 13.3803 7.07157 13.6483C6.66327 13.9988 6.1941 14.2166 5.6509 14.3111C5.51719 14.3338 5.45272 14.3374 5.1853 14.3374C4.92027 14.3374 4.85222 14.3338 4.71971 14.3111C4.08459 14.2034 3.54139 13.9175 3.09609 13.4581C2.86568 13.22 2.71048 12.9999 2.5708 12.7116C1.98224 11.5057 2.29502 10.0427 3.32292 9.19449C3.62257 8.94685 3.92819 8.77817 4.28396 8.66213C4.5275 8.58198 4.89759 8.51858 5.11725 8.51858H5.17933V6.56861V4.61864L5.00981 4.61983C4.9155 4.62103 4.78656 4.62701 4.7209 4.6318Z" fill="white"/>
<path d="M16.0048 10.0003L16.012 15.002H17.0425H18.073L18.0802 10.5553L18.085 6.11087H19.0197H19.9543V5.55589V5.00092H17.9772H16L16.0048 10.0003Z" fill="white"/>
<path d="M22.0159 5.07483C22.0087 5.11641 21.9606 5.56218 21.9076 6.06339C21.8547 6.5646 21.7849 7.22057 21.7513 7.51852C21.7176 7.81648 21.643 8.51401 21.5829 9.06604C21.5227 9.61806 21.4409 10.3664 21.4024 10.729C21.3615 11.0917 21.2966 11.6876 21.2581 12.0571C21.2196 12.4244 21.1546 13.0226 21.1137 13.3852C20.991 14.4916 20.9453 14.9304 20.9453 14.9674C20.9453 14.9974 21.0608 15.002 21.963 14.9974L22.9782 14.9905L22.9951 14.7826C23.0119 14.5701 23.0576 13.9303 23.1226 13.0157C23.1442 12.7293 23.1659 12.4613 23.1731 12.4198L23.1851 12.3459H23.6639C24.1427 12.3459 24.1451 12.3459 24.1547 12.3967C24.1619 12.4267 24.1836 12.6992 24.2028 13.0041C24.2581 13.8541 24.3399 14.942 24.3496 14.972C24.3592 14.9951 24.5829 15.002 25.372 15.002C26.1636 15.002 26.3825 14.9951 26.3825 14.972C26.3825 14.942 26.279 13.9696 26.166 12.9464C26.1251 12.5838 26.0601 11.9855 26.0216 11.6183C25.9831 11.2487 25.9182 10.6528 25.8773 10.2902C25.8364 9.92757 25.7714 9.32935 25.7329 8.9621C25.6944 8.59255 25.6295 7.99664 25.5886 7.63401C25.5501 7.27138 25.4899 6.72167 25.4538 6.40985C25.3961 5.87631 25.3023 5.0194 25.2999 5.00554C25.2999 5.00323 24.5637 5.00092 23.6639 5.00092H22.0303L22.0159 5.07483ZM23.7216 6.27589C23.7289 6.30591 23.7457 6.51148 23.7601 6.73321C23.7866 7.15128 23.8852 8.52556 23.9887 9.97838C24.0224 10.4357 24.056 10.9069 24.0633 11.0224L24.0801 11.2372H23.6663H23.2549V11.1725C23.2549 11.1379 23.2693 10.9069 23.2886 10.6598C23.3078 10.4126 23.3367 10.0269 23.3511 9.80515C23.3656 9.58342 23.3969 9.11916 23.4233 8.77732C23.4498 8.43317 23.4762 8.07055 23.4835 7.96892C23.5508 6.97805 23.5941 6.36135 23.6062 6.29899C23.6206 6.20891 23.7048 6.19274 23.7216 6.27589Z" fill="white"/>
<path d="M28.3813 5.03585C28.0077 5.11209 27.6941 5.35699 27.5384 5.69892C27.3917 6.02005 27.385 6.07781 27.3761 7.18677L27.3672 8.18714H28.3235H29.2798L29.2865 7.24453C29.2932 6.3666 29.2954 6.2996 29.3354 6.23953C29.3933 6.15174 29.4822 6.10784 29.6068 6.10784C29.6979 6.10784 29.7202 6.1194 29.7958 6.19795L29.8848 6.28805L29.8781 7.60263C29.8714 8.89641 29.8714 8.91721 29.8225 9.00731C29.6957 9.2522 29.6157 9.27762 28.9106 9.29148L28.348 9.30072V9.85058V10.4004L28.9106 10.4097L29.4733 10.4166L29.6045 10.4859C29.6935 10.5321 29.758 10.5899 29.8047 10.6546L29.8714 10.7562L29.8781 12.214C29.8825 13.6465 29.8825 13.6765 29.8381 13.7504C29.7558 13.8913 29.5667 13.9329 29.4355 13.8405C29.2798 13.7342 29.2821 13.7504 29.2821 12.5583V11.4909H28.3235H27.3672L27.3761 12.6391C27.385 13.9029 27.3917 13.9607 27.5273 14.2633C27.7186 14.6907 28.0433 14.9194 28.5415 14.9795C28.795 15.0095 30.3896 15.0095 30.6431 14.9795C31.0123 14.9356 31.3281 14.7716 31.5038 14.5313C31.6239 14.3673 31.6795 14.2448 31.7462 13.9884L31.8041 13.7666L31.813 12.3457C31.8196 10.9688 31.8174 10.918 31.7729 10.7146C31.6818 10.2965 31.4682 10.0493 31.079 9.90603C31.0323 9.88986 30.89 9.86444 30.761 9.84827C30.5564 9.82517 30.5275 9.81592 30.5275 9.77896C30.5275 9.73968 30.5453 9.73506 30.6632 9.73506C30.9456 9.73506 31.2325 9.61724 31.4416 9.41855C31.6084 9.25682 31.7151 9.06045 31.7729 8.80169C31.8174 8.60762 31.8196 8.55217 31.8107 7.4178C31.8018 6.07319 31.7974 6.03853 31.6284 5.67812C31.5083 5.42399 31.3548 5.26226 31.1169 5.14444C30.8389 5.00813 30.7343 4.99889 29.5756 5.0012C28.7905 5.00351 28.4992 5.01044 28.3813 5.03585Z" fill="white"/>
<path d="M33.3047 10.0015V15.002H34.2611H35.2176V10.5558V6.10959H35.529H35.8404V10.5558V15.002H36.7968H37.7533V10.0015V5.00092H35.529H33.3047V10.0015Z" fill="white"/>
<path d="M39.2266 10.0015V15.002H40.2895C41.2458 15.002 41.3524 14.9974 41.3672 14.9651C41.3747 14.9443 41.3821 14.1821 41.3821 13.2721L41.3796 11.6183L42.1551 11.6044C42.8365 11.5929 42.9529 11.5836 43.1239 11.5421C43.6491 11.4081 43.9514 11.1148 44.1125 10.5789L44.1694 10.3941V8.30383V6.21353L44.1001 5.98255C43.9762 5.57142 43.7557 5.30349 43.4063 5.14874C43.0768 5.00323 43.0396 5.00092 41.0328 5.00092H39.2266V10.0015ZM41.8529 6.16964C41.895 6.20429 41.952 6.27127 41.9767 6.31977C42.0238 6.40523 42.0263 6.4676 42.0263 8.29921V10.1909L41.9693 10.2925C41.89 10.4357 41.7463 10.5027 41.5357 10.4935L41.3821 10.4865V8.30383C41.3821 7.10277 41.3821 6.11883 41.3821 6.11421C41.3821 6.1119 41.4713 6.10959 41.5778 6.10959C41.7538 6.10959 41.7835 6.11652 41.8529 6.16964Z" fill="white"/>
<path d="M46.2965 5.02796C45.7845 5.1159 45.4078 5.44914 45.2626 5.93743C45.1617 6.28224 45.1592 6.40489 45.1666 10.1539L45.174 13.7524L45.2405 13.9769C45.3315 14.287 45.4546 14.4975 45.6343 14.6549C45.8066 14.8053 45.9494 14.8771 46.2128 14.9488C46.3999 15.002 46.4294 15.002 47.6356 15.002C48.9968 15.002 48.9968 15.002 49.3464 14.847C49.6664 14.7035 49.9298 14.3726 50.0208 13.9954C50.107 13.6413 50.1119 13.3312 50.1045 9.79515C50.0947 6.634 50.0898 6.30539 50.0528 6.12951C49.9224 5.53477 49.6221 5.20153 49.0756 5.04648C48.9599 5.01408 48.7679 5.00714 47.7094 5.00251C46.7494 4.99788 46.4392 5.00251 46.2965 5.02796ZM47.7956 6.13876C47.8374 6.15959 47.8916 6.21513 47.9187 6.26604C47.9679 6.3563 47.9679 6.39564 47.9679 9.99649C47.9679 13.4168 47.9654 13.6413 47.9236 13.7177C47.8719 13.8149 47.739 13.9028 47.643 13.9028C47.5346 13.9028 47.4017 13.8357 47.35 13.7547C47.3057 13.6853 47.3033 13.5719 47.3082 9.97335L47.3156 6.26142L47.4066 6.18273C47.483 6.11794 47.5174 6.10405 47.611 6.10405C47.6725 6.10405 47.7562 6.12025 47.7956 6.13876Z" fill="white"/>
<path d="M51.1062 9.99482L51.1133 14.991H52.1194H53.1255L53.1325 11.8542C53.1372 9.08936 53.1419 8.71978 53.1723 8.71978C53.191 8.71978 53.2074 8.72671 53.2074 8.73364C53.2074 8.74288 53.2495 9.00389 53.301 9.31803C53.3969 9.88626 53.5397 10.7478 53.7339 11.9189C53.79 12.2608 53.8953 12.896 53.9679 13.3279C54.1925 14.6815 54.2416 14.9679 54.2533 14.9841C54.2673 15.0095 55.8467 15.0072 55.8608 14.9818C55.8725 14.9633 55.9778 14.342 56.3334 12.2077C56.3896 11.8589 56.4949 11.2283 56.5651 10.8102C56.6353 10.3898 56.7405 9.7569 56.799 9.4035C56.8575 9.05009 56.9114 8.74981 56.9184 8.73826C56.9254 8.72902 56.9394 8.71978 56.9535 8.71978C56.9652 8.71978 56.9769 9.92321 56.9792 11.8542L56.9862 14.991H57.9924H58.9985L59.0055 9.99482L59.0102 5.00092H57.6882C56.9605 5.00092 56.3662 5.00554 56.3662 5.01247C56.3662 5.0194 56.3404 5.16723 56.3077 5.34278C56.2749 5.51602 56.2 5.91331 56.1415 6.22514C56.0831 6.53697 56.0152 6.895 55.9918 7.02204C55.9684 7.14908 55.8795 7.62722 55.7929 8.08457C55.7063 8.54192 55.6174 9.02006 55.594 9.1471C55.4677 9.81927 55.3296 10.5538 55.3016 10.7063C55.2711 10.8749 55.1167 11.6879 55.0816 11.8727C55.0535 12.0113 55.0652 12.0575 54.8453 10.8795C54.8055 10.6624 54.7423 10.3251 54.7049 10.1288C54.6675 9.93245 54.6043 9.5929 54.5645 9.37809C54.5247 9.16096 54.4709 8.88147 54.4475 8.75443C54.4218 8.62739 54.3422 8.20699 54.2697 7.81894C54.1995 7.43088 54.1153 6.97815 54.0825 6.81415C54.0521 6.64784 53.9936 6.33832 53.9562 6.12351C53.9164 5.90869 53.8743 5.68926 53.8626 5.63844C53.8509 5.58531 53.8298 5.47213 53.8158 5.38435C53.8017 5.29658 53.7783 5.17416 53.7666 5.11179L53.7409 5.00092H52.4212H51.1016L51.1062 9.99482Z" fill="white"/>
</svg>
