<svg width="45" height="11" viewBox="0 0 45 11" fill="none" xmlns="http://www.w3.org/2000/svg">
<path d="M29.1952 0.0259052C29.2092 0.0258973 29.2233 0.0258894 29.2377 0.0258812C29.6574 0.0257576 30.073 0.0303653 30.4898 0.0840924C30.5144 0.0870272 30.539 0.0899377 30.5636 0.0928257C31.3914 0.191347 32.228 0.441952 32.7962 1.08803C32.8797 1.19451 32.9488 1.3099 33.0165 1.42687C33.0267 1.44434 33.0368 1.46182 33.0473 1.47982C33.2473 1.85124 33.3415 2.29877 33.342 2.71846C33.3421 2.73553 33.3422 2.75259 33.3423 2.77017C33.3424 2.8252 33.3424 2.88023 33.3424 2.93526C33.3424 2.95397 33.3424 2.97267 33.3424 2.99194C33.3421 3.7811 33.3421 3.7811 33.2853 3.9513C33.2346 3.97662 33.1923 3.9714 33.1356 3.97136C33.1179 3.97138 33.1179 3.97138 33.0998 3.9714C33.0601 3.97143 33.0203 3.97134 32.9805 3.97124C32.9521 3.97123 32.9237 3.97124 32.8952 3.97125C32.8179 3.97125 32.7406 3.97115 32.6632 3.97102C32.5825 3.97091 32.5017 3.9709 32.4209 3.97088C32.2679 3.97082 32.1149 3.97067 31.9619 3.97049C31.7877 3.97029 31.6136 3.9702 31.4394 3.97011C31.0811 3.96992 30.7227 3.9696 30.3644 3.96921C30.3506 3.90513 30.3465 3.85534 30.3543 3.79017C30.3957 3.34921 30.3957 3.34921 30.235 2.9503C29.9711 2.64034 29.5505 2.57289 29.1638 2.53691C29.0279 2.52917 28.892 2.52913 28.756 2.5299C28.6956 2.53019 28.6352 2.5299 28.5748 2.52956C28.1099 2.5291 27.6035 2.57338 27.2503 2.90778C26.9151 3.25271 26.858 3.78038 26.8119 4.23776C26.8101 4.25427 26.8084 4.27077 26.8066 4.28778C26.7434 4.89494 26.6946 5.50372 26.6429 6.11195C26.6403 6.14252 26.6376 6.17308 26.635 6.20365C26.6331 6.22585 26.6331 6.22585 26.6312 6.2485C26.6243 6.32937 26.617 6.4102 26.6095 6.49102C26.6078 6.50854 26.6062 6.52607 26.6045 6.54413C26.6014 6.57758 26.5982 6.61103 26.5949 6.64447C26.582 6.78209 26.5779 6.91892 26.5787 7.0571C26.5789 7.09514 26.5787 7.13317 26.5785 7.17121C26.5783 7.37586 26.597 7.5749 26.6607 7.77039C26.6645 7.78249 26.6684 7.7946 26.6724 7.80706C26.7181 7.94376 26.7797 8.04512 26.888 8.14078C26.8975 8.1492 26.907 8.15763 26.9167 8.1663C27.2713 8.45805 27.7908 8.44866 28.2244 8.44944C28.2816 8.44961 28.3387 8.45017 28.3959 8.45074C28.8498 8.45308 29.3678 8.43519 29.7181 8.10889C29.9884 7.8189 30.0235 7.36438 30.0607 6.99C30.0636 6.95997 30.0636 6.95997 30.0667 6.92934C30.0684 6.91134 30.0701 6.89335 30.0719 6.87481C30.0777 6.8338 30.0777 6.8338 30.0956 6.8159C30.1333 6.81417 30.171 6.81372 30.2087 6.81375C30.2206 6.81373 30.2325 6.81372 30.2448 6.8137C30.2852 6.81367 30.3255 6.81377 30.3658 6.81387C30.3946 6.81387 30.4233 6.81387 30.4521 6.81386C30.5305 6.81385 30.6089 6.81396 30.6872 6.81409C30.7691 6.8142 30.8509 6.81421 30.9327 6.81423C31.0877 6.81428 31.2428 6.81443 31.3978 6.81461C31.5743 6.81481 31.7507 6.81491 31.9272 6.815C32.2903 6.81519 32.6534 6.8155 33.0165 6.8159C33.0166 6.85302 33.0167 6.89013 33.0167 6.92725C33.0168 6.94792 33.0168 6.96859 33.0169 6.98988C33.0164 7.06295 33.0124 7.13486 33.0053 7.20754C33.0031 7.23017 33.0031 7.23017 33.0008 7.25325C32.9566 7.66984 32.8985 8.09548 32.7835 8.49885C32.7788 8.51563 32.7741 8.5324 32.7692 8.54968C32.55 9.31677 32.1661 9.98827 31.4578 10.3951C31.2395 10.516 31.0135 10.6059 30.7766 10.6831C30.7543 10.6904 30.7321 10.6977 30.7092 10.7053C30.2144 10.8566 29.6779 10.9037 29.1638 10.9338C29.1461 10.9349 29.1461 10.9349 29.128 10.9361C28.861 10.9533 28.5941 10.9544 28.3266 10.954C28.2661 10.9539 28.2056 10.954 28.1451 10.9541C27.6827 10.9547 27.2204 10.9464 26.7592 10.9103C26.7443 10.9091 26.7294 10.908 26.714 10.9068C25.8046 10.836 24.8351 10.6447 24.2115 9.91758C23.8648 9.49478 23.7093 8.97706 23.6267 8.44514C23.6234 8.4252 23.6201 8.40525 23.6168 8.38471C23.5838 8.15987 23.5853 7.9357 23.5864 7.70885C23.5864 7.68814 23.5865 7.66743 23.5865 7.64609C23.5875 7.32612 23.5964 7.00927 23.6267 6.69057C23.6293 6.66251 23.6319 6.63445 23.6345 6.60639C23.6464 6.47971 23.6585 6.35306 23.6709 6.22643C23.6913 6.01725 23.7093 5.80802 23.7252 5.59845C23.7494 5.28206 23.779 4.96632 23.8099 4.65053C23.821 4.53618 23.8315 4.42178 23.8418 4.30735C23.8721 3.97162 23.9042 3.63829 23.9671 3.30677C23.9704 3.28904 23.9736 3.27131 23.977 3.25305C24.1207 2.47722 24.4231 1.76502 24.9527 1.17622C24.9689 1.15808 24.9689 1.15808 24.9854 1.13957C25.8575 0.217719 27.3151 0.0714007 28.5069 0.0321356C28.7363 0.0259936 28.9658 0.0259647 29.1952 0.0259052Z" fill="white"/>
<path d="M15.0798 0.136307C15.0927 0.136287 15.1057 0.136266 15.119 0.136245C15.1624 0.136197 15.2058 0.136278 15.2492 0.136357C15.2807 0.136349 15.3121 0.136334 15.3435 0.136311C15.4299 0.136271 15.5163 0.136343 15.6027 0.136432C15.6959 0.136509 15.789 0.136483 15.8822 0.13647C16.0435 0.13646 16.2049 0.136517 16.3663 0.136617C16.5997 0.136763 16.833 0.136809 17.0664 0.136832C17.445 0.136871 17.8236 0.13699 18.2021 0.13716C18.5699 0.137324 18.9377 0.137451 19.3055 0.137527C19.3282 0.137531 19.3508 0.137536 19.3742 0.137541C19.4879 0.137564 19.6016 0.137587 19.7153 0.137609C20.6588 0.137795 21.6023 0.13811 22.5457 0.13851C22.543 0.186858 22.5401 0.235205 22.5373 0.283551C22.5366 0.297111 22.5358 0.31067 22.535 0.324641C22.5283 0.438308 22.5196 0.551707 22.5096 0.665132C22.507 0.695556 22.507 0.695556 22.5043 0.726595C22.5006 0.769533 22.4969 0.812469 22.4931 0.855403C22.4877 0.917092 22.4824 0.978786 22.4771 1.04048C22.4358 1.5158 22.3919 1.99085 22.3486 2.466C20.7402 2.466 19.1317 2.466 17.4745 2.466C17.4745 2.53099 17.4745 2.59598 17.4745 2.66294C17.4722 2.70549 17.4692 2.74801 17.4655 2.79046C17.4635 2.8135 17.4615 2.83654 17.4595 2.86028C17.4573 2.88491 17.4551 2.90953 17.4529 2.93415C17.4506 2.96032 17.4483 2.98649 17.446 3.01267C17.4413 3.06747 17.4364 3.12228 17.4315 3.17708C17.4254 3.24559 17.4194 3.31412 17.4135 3.38264C17.4088 3.43682 17.404 3.491 17.3992 3.54517C17.397 3.57032 17.3948 3.59548 17.3926 3.62064C17.3693 3.88662 17.3408 4.15187 17.3132 4.4175C18.8093 4.4175 20.3054 4.4175 21.8469 4.4175C21.8469 4.55635 21.8448 4.69076 21.8337 4.82852C21.8316 4.85565 21.8316 4.85565 21.8295 4.88334C21.8249 4.94179 21.8202 5.00024 21.8155 5.05868C21.8139 5.07869 21.8123 5.09869 21.8107 5.1193C21.7809 5.49468 21.746 5.86952 21.7035 6.24369C21.7021 6.25674 21.7007 6.26979 21.6992 6.28324C21.6876 6.38488 21.6876 6.38488 21.6677 6.40482C21.6434 6.40663 21.619 6.40722 21.5947 6.4073C21.5788 6.4074 21.563 6.4075 21.5467 6.4076C21.5291 6.40762 21.5115 6.40764 21.4934 6.40765C21.4749 6.40774 21.4564 6.40783 21.4373 6.40792C21.3747 6.4082 21.3121 6.40835 21.2495 6.4085C21.2048 6.40867 21.1601 6.40885 21.1155 6.40903C21.019 6.40942 20.9226 6.40975 20.8262 6.41003C20.6868 6.41043 20.5473 6.41094 20.4079 6.41147C20.1817 6.41232 19.9555 6.4131 19.7294 6.41382C19.5096 6.41452 19.2898 6.41527 19.07 6.41606C19.0497 6.41613 19.0497 6.41613 19.029 6.41621C18.9611 6.41645 18.8932 6.4167 18.8253 6.41694C18.2615 6.41898 17.6978 6.42089 17.1341 6.42272C17.1325 6.43983 17.131 6.45694 17.1295 6.47456C17.1238 6.53931 17.1181 6.60407 17.1124 6.66882C17.1099 6.6966 17.1075 6.72439 17.105 6.75217C17.0894 6.93016 17.0734 7.10812 17.0567 7.28602C17.0538 7.31741 17.0538 7.31741 17.0508 7.34944C17.0434 7.42747 17.0361 7.50549 17.0287 7.58351C17.0231 7.64324 17.0175 7.70297 17.0119 7.76271C17.0095 7.78796 17.0095 7.78796 17.007 7.81372C16.9869 8.03022 16.9716 8.24688 16.9549 8.46375C18.587 8.46375 20.2191 8.46375 21.9006 8.46375C21.8889 8.64017 21.876 8.81598 21.86 8.99198C21.8578 9.01627 21.8556 9.04056 21.8534 9.06485C21.8476 9.12914 21.8418 9.19343 21.8359 9.25771C21.825 9.37836 21.8141 9.49901 21.8032 9.61966C21.802 9.63298 21.8008 9.6463 21.7996 9.66002C21.7835 9.83751 21.7679 10.015 21.7528 10.1926C21.7511 10.212 21.7495 10.2315 21.7478 10.2516C21.7401 10.3411 21.7326 10.4307 21.7251 10.5203C21.7225 10.5515 21.7198 10.5827 21.7172 10.6139C21.716 10.628 21.7149 10.642 21.7137 10.6564C21.7056 10.7514 21.7056 10.7514 21.6856 10.7912C19.1133 10.7912 16.5409 10.7912 13.8906 10.7912C13.8906 10.4891 13.8906 10.4891 13.9004 10.388C13.9026 10.3649 13.9048 10.3419 13.907 10.3181C13.9094 10.2937 13.9119 10.2693 13.9143 10.2449C13.9168 10.2185 13.9193 10.1921 13.9218 10.1657C13.9272 10.1095 13.9326 10.0534 13.9381 9.99726C13.9468 9.90765 13.9554 9.81803 13.9639 9.72841C13.9654 9.71325 13.9668 9.69809 13.9683 9.68248C13.9712 9.6517 13.9741 9.62093 13.9771 9.59015C13.9815 9.54363 13.9859 9.49711 13.9904 9.45059C14.0169 9.17296 14.042 8.89522 14.0666 8.61742C14.0764 8.50761 14.0861 8.3978 14.0959 8.288C14.097 8.27576 14.0981 8.26352 14.0992 8.2509C14.1178 8.04265 14.137 7.83445 14.1563 7.62626C14.1591 7.59595 14.1619 7.56563 14.1647 7.53531C14.1756 7.41769 14.1865 7.30007 14.1975 7.18246C14.2271 6.86664 14.2551 6.55078 14.2803 6.23459C14.2985 6.00673 14.3184 5.77908 14.34 5.55152C14.3497 5.44919 14.3592 5.34685 14.3688 5.2445C14.3707 5.22347 14.3727 5.20243 14.3747 5.18075C14.3959 4.954 14.416 4.72716 14.436 4.50031C14.4595 4.23602 14.4833 3.97179 14.5084 3.70765C14.5095 3.69585 14.5106 3.68406 14.5117 3.6719C14.5174 3.61188 14.5231 3.55185 14.5288 3.49183C14.5311 3.46767 14.5334 3.44352 14.5357 3.41937C14.5369 3.40742 14.538 3.39546 14.5392 3.38315C14.5759 2.99671 14.6093 2.6101 14.6409 2.22321C14.668 1.89141 14.6984 1.56009 14.7318 1.22886C14.7602 0.947605 14.7854 0.666286 14.8063 0.384376C14.8073 0.371483 14.8083 0.35859 14.8093 0.345306C14.8119 0.311078 14.8144 0.276842 14.8169 0.242606C14.8224 0.192221 14.8224 0.192221 14.8404 0.156414C14.9202 0.137487 14.998 0.136283 15.0798 0.136307Z" fill="white"/>
<path d="M5.03535 0.138184C7.87379 0.138184 10.7122 0.138184 13.6367 0.138184C13.5951 0.698843 13.5951 0.698843 13.5699 0.972972C13.5672 1.00269 13.5672 1.00269 13.5644 1.03301C13.5626 1.05328 13.5607 1.07354 13.5588 1.09443C13.5549 1.1374 13.5509 1.18038 13.547 1.22336C13.5389 1.31219 13.5308 1.40103 13.5226 1.48986C13.5121 1.60385 13.5017 1.71786 13.4914 1.83186C13.4834 1.92004 13.4753 2.00821 13.4672 2.09638C13.4633 2.13848 13.4595 2.18057 13.4557 2.22267C13.4504 2.28097 13.445 2.33927 13.4396 2.39756C13.438 2.41492 13.4365 2.43228 13.4349 2.45016C13.4334 2.46593 13.4319 2.4817 13.4304 2.49795C13.4291 2.51168 13.4279 2.52541 13.4266 2.53956C13.4217 2.57309 13.4217 2.57309 13.4037 2.6089C12.4576 2.6089 11.5115 2.6089 10.5366 2.6089C10.5307 2.69162 10.5248 2.77433 10.5187 2.85955C10.5133 2.91778 10.5078 2.97594 10.5019 3.03411C10.4903 3.15115 10.4802 3.26818 10.4717 3.38547C10.4563 3.59594 10.4377 3.80599 10.4174 4.01602C10.416 4.02973 10.4147 4.04344 10.4133 4.05756C10.4023 4.17082 10.3912 4.28406 10.3801 4.39731C10.3486 4.7184 10.3181 5.03932 10.2943 5.36109C10.2805 5.54657 10.264 5.73182 10.2477 5.91709C10.2421 5.98136 10.2365 6.04564 10.231 6.10992C10.2125 6.32138 10.1924 6.5325 10.1691 6.74348C10.1429 6.98113 10.1234 7.21907 10.1052 7.45745C10.0763 7.83318 10.0442 8.20837 10.0046 8.58316C9.98003 8.81654 9.95634 9.04945 9.94054 9.28363C9.92744 9.47486 9.9101 9.66568 9.89265 9.85656C9.89033 9.88197 9.89033 9.88197 9.88796 9.90788C9.86094 10.2024 9.83223 10.4967 9.80193 10.7909C9.50504 10.8086 9.20899 10.8115 8.91163 10.8112C8.86295 10.8112 8.81427 10.8112 8.76559 10.8112C8.66428 10.8113 8.56297 10.8112 8.46167 10.8111C8.34527 10.8111 8.22887 10.8111 8.11247 10.8112C8.01155 10.8113 7.91062 10.8113 7.8097 10.8112C7.74985 10.8112 7.68999 10.8112 7.63014 10.8113C7.15441 10.8116 7.15441 10.8116 6.95273 10.7909C6.94995 10.637 6.95814 10.4862 6.97247 10.333C6.97457 10.3098 6.97666 10.2866 6.97882 10.2626C6.9845 10.1997 6.99031 10.1368 6.99614 10.0738C7.00104 10.0207 7.00587 9.96756 7.0107 9.91443C7.04721 9.51256 7.08504 9.11081 7.12308 8.70907C7.15389 8.38359 7.18302 8.05802 7.21018 7.73221C7.23043 7.48956 7.25299 7.24727 7.27736 7.00501C7.30988 6.68018 7.3373 6.35492 7.36488 6.02963C7.42206 5.35546 7.42206 5.35546 7.45448 5.02479C7.49162 4.64556 7.52422 4.26595 7.55695 3.88632C7.5937 3.46044 7.63163 3.03469 7.66951 2.6089C6.72928 2.6089 5.78904 2.6089 4.82031 2.6089C4.84092 2.05285 4.84092 2.05285 4.85643 1.88261C4.85901 1.85267 4.85901 1.85267 4.86165 1.82212C4.86716 1.75874 4.87284 1.69539 4.87855 1.63203C4.8825 1.58726 4.88645 1.54248 4.8904 1.49771C4.91763 1.19096 4.94672 0.884395 4.97711 0.577944C4.97997 0.548867 4.97997 0.548867 4.98289 0.519201C4.98826 0.464945 4.99373 0.410699 4.99923 0.356455C5.0016 0.332446 5.0016 0.332446 5.00402 0.307951C5.00553 0.293344 5.00704 0.278738 5.00859 0.263689C5.00987 0.251037 5.01115 0.238386 5.01247 0.225351C5.01743 0.191895 5.01743 0.191895 5.03535 0.138184Z" fill="white"/>
<path d="M0.985437 0.138184C1.91963 0.138184 2.85382 0.138184 3.81633 0.138184C3.81633 0.255738 3.81591 0.364333 3.80538 0.479964C3.80422 0.493038 3.80305 0.506111 3.80185 0.51958C3.79803 0.562131 3.79409 0.604669 3.79015 0.647207C3.78742 0.677374 3.78469 0.707542 3.78197 0.737711C3.77482 0.816836 3.76756 0.895951 3.76028 0.975064C3.75443 1.03875 3.74867 1.10243 3.7429 1.16612C3.71853 1.43555 3.69414 1.70496 3.66662 1.97409C3.65254 2.11245 3.6407 2.25099 3.62892 2.38956C3.60487 2.67203 3.57979 2.95441 3.55401 3.23673C3.55207 3.258 3.55207 3.258 3.55009 3.27969C3.54067 3.38274 3.53124 3.48579 3.52182 3.58883C3.48374 4.00497 3.4464 4.42114 3.41095 4.83751C3.38184 5.17943 3.35077 5.52111 3.318 5.86269C3.28599 6.19672 3.25682 6.53093 3.2285 6.86529C3.1983 7.22099 3.16482 7.57628 3.12852 7.93142C3.11083 8.10575 3.09591 8.27946 3.08682 8.45444C3.08207 8.53531 3.0741 8.61569 3.06565 8.69625C3.0465 8.88335 3.02946 9.0706 3.01279 9.25792C3.00761 9.31612 3.0024 9.37431 2.99719 9.4325C2.98239 9.59764 2.96765 9.76278 2.95292 9.92793C2.94384 10.0297 2.93474 10.1314 2.92561 10.2332C2.92216 10.2717 2.91873 10.3102 2.9153 10.3487C2.91054 10.4024 2.90573 10.456 2.90091 10.5097C2.89952 10.5254 2.89814 10.5411 2.89671 10.5574C2.89538 10.5721 2.89405 10.5868 2.89268 10.602C2.89155 10.6146 2.89042 10.6272 2.88926 10.6402C2.88315 10.6963 2.87471 10.7521 2.86672 10.8079C1.92071 10.8079 0.974686 10.8079 0 10.8079C0 10.6647 0 10.6647 0.017917 10.6468C0.0223172 10.6144 0.0255804 10.582 0.0283978 10.5495C0.0302632 10.5284 0.0321285 10.5073 0.0340504 10.4856C0.0360248 10.4624 0.0379992 10.4392 0.0400334 10.4152C0.0421637 10.3908 0.044301 10.3664 0.046445 10.342C0.0510382 10.2896 0.0555793 10.2371 0.0600807 10.1846C0.067232 10.1012 0.0745009 10.0179 0.0817814 9.93452C0.104396 9.6752 0.126615 9.41585 0.148655 9.15648C0.155831 9.07217 0.163018 8.98786 0.170212 8.90355C0.171986 8.88271 0.173761 8.86187 0.175589 8.8404C0.206505 8.47842 0.241214 8.11686 0.276847 7.75532C0.308879 7.42977 0.337944 7.10416 0.363665 6.77806C0.385897 6.49679 0.411462 6.21595 0.438967 5.93514C0.466557 5.65329 0.493242 5.37143 0.517354 5.08926C0.54627 4.7511 0.576815 4.4131 0.607746 4.07512C0.651824 3.59348 0.695144 3.11179 0.736838 2.62995C0.739059 2.60428 0.741281 2.57862 0.743502 2.55296C0.745143 2.534 0.745143 2.534 0.746817 2.51466C0.752262 2.45176 0.757707 2.38886 0.763153 2.32596C0.764213 2.31371 0.765273 2.30147 0.766365 2.28886C0.797646 1.92764 0.829768 1.5665 0.862421 1.2054C0.872806 1.0905 0.883055 0.975592 0.893193 0.86067C0.899581 0.788507 0.90607 0.716353 0.912586 0.644201C0.915569 0.610953 0.91851 0.5777 0.921407 0.544443C0.92535 0.499246 0.929444 0.454065 0.933575 0.408884C0.934673 0.395881 0.935771 0.382877 0.936902 0.369479C0.944715 0.286294 0.961844 0.220688 0.985437 0.138184Z" fill="white"/>
<path d="M38.6398 0.0727493C39.8007 -0.0521144 41.0761 -0.0330912 42.2082 0.263179C42.2258 0.26774 42.2437 0.272152 42.2619 0.276851C42.9939 0.470652 43.6516 0.872124 44.0461 1.52978C44.5383 2.38303 44.4983 3.40053 44.4016 4.34814C44.3916 4.44844 44.3831 4.54942 44.3752 4.6499C44.3671 4.75117 44.3582 4.85254 44.3478 4.95361C44.3176 5.24959 44.2913 5.54594 44.2648 5.84228C44.258 5.91832 44.2521 5.99475 44.2453 6.0708C44.244 6.08563 44.2418 6.10044 44.2404 6.11572C44.2337 6.19049 44.2276 6.26555 44.2209 6.34033L44.2092 6.47216C44.2016 6.55703 44.1941 6.64216 44.1867 6.72705C44.1821 6.78013 44.1768 6.83315 44.1721 6.88623C44.1689 6.92201 44.1664 6.95786 44.1633 6.99365C44.1027 7.67194 43.9527 8.36251 43.6242 8.96435C43.6157 8.98027 43.6152 8.98058 43.6066 8.99658C43.4879 9.21757 43.3484 9.42138 43.1769 9.60498C43.1428 9.64155 43.1105 9.67904 43.0783 9.71728C42.535 10.3355 41.6788 10.6229 40.9006 10.7905C40.8664 10.7981 40.8658 10.7984 40.8312 10.8061C39.3256 11.1166 37.2534 11.133 35.4924 10.2876C34.8611 9.87005 34.4787 9.27103 34.3234 8.53466C34.3037 8.43005 34.289 8.32481 34.2756 8.21923C34.2705 8.18011 34.2649 8.14105 34.259 8.10205C34.2024 7.70483 34.2301 7.30247 34.2648 6.90478C34.2681 6.86706 34.2714 6.82922 34.2746 6.7915C34.311 6.3666 34.3517 5.94165 34.3918 5.51709C34.4037 5.39048 34.4151 5.26382 34.4269 5.1372C34.4286 5.11949 34.4311 5.10174 34.4328 5.08349C34.4625 4.76575 34.4894 4.4475 34.5148 4.12939C34.5944 3.14253 34.8168 2.13641 35.4885 1.37353C35.5032 1.35642 35.5182 1.33939 35.5334 1.32177C36.2579 0.495854 37.4083 0.178404 38.466 0.0903275C38.524 0.0852279 38.582 0.0790484 38.6398 0.0727493ZM39.7121 2.51416C39.6595 2.51456 39.6065 2.51505 39.5539 2.51513H39.3215C38.8417 2.51671 38.3446 2.53926 37.9484 2.8413C37.5655 3.15945 37.4855 3.76103 37.4426 4.22607C37.4411 4.24213 37.4401 4.25833 37.4387 4.27392C37.4296 4.37405 37.421 4.47454 37.4123 4.5747C37.3984 4.73558 37.3834 4.89635 37.3683 5.05712C37.3664 5.07823 37.3644 5.09914 37.3625 5.11962C37.3546 5.20419 37.347 5.28896 37.3391 5.37353C37.3161 5.61542 37.2941 5.85775 37.2766 6.10009C37.2677 6.22306 37.259 6.34642 37.2482 6.46923C37.247 6.48306 37.2455 6.49682 37.2443 6.51025C37.2398 6.56201 37.2353 6.61377 37.2307 6.66552C37.2071 6.92001 37.1898 7.17615 37.218 7.43115C37.22 7.44697 37.2218 7.46267 37.2238 7.47802C37.253 7.70941 37.317 7.92701 37.4719 8.10693C37.8376 8.464 37.8379 8.46439 39.0851 8.4663H39.3117C39.3297 8.46623 39.3479 8.4654 39.3654 8.46533C39.4754 8.46517 39.5832 8.4618 39.6926 8.4497C39.7179 8.44686 39.7433 8.4442 39.7687 8.44189C40.087 8.41412 40.4194 8.35226 40.6799 8.15576C41.1501 7.75017 41.1499 7.74969 41.3117 5.97021C41.3144 5.94079 41.3168 5.91076 41.3195 5.88134C41.3375 5.68473 41.3557 5.48815 41.3732 5.2915C41.377 5.24869 41.3801 5.2054 41.384 5.16259C41.4344 4.601 41.5469 3.99104 41.4611 3.42919C41.458 3.41203 41.4554 3.39508 41.4523 3.37841C41.4183 3.17958 41.3541 2.99276 41.2141 2.84228C40.8354 2.50539 40.8348 2.50565 39.7121 2.51416Z" fill="white"/>
</svg>
