<svg width="92" height="15" viewBox="0 0 92 15" fill="none" xmlns="http://www.w3.org/2000/svg">
<path d="M27.0301 3.10756C28.0399 3.10756 29.0497 3.10756 30.09 3.10756C30.1862 3.29089 30.1711 3.42649 30.17 3.63177C30.1698 3.71254 30.1695 3.7933 30.1693 3.87651C30.1687 3.96437 30.1681 4.05223 30.1675 4.14275C30.167 4.28087 30.1666 4.41899 30.1662 4.55711C30.1653 4.84934 30.1637 5.14156 30.1621 5.43379C30.1609 5.67292 30.1599 5.91205 30.1592 6.15118C30.1586 6.33045 30.1578 6.50973 30.1565 6.689C30.1109 7.83322 30.1109 7.83322 30.5272 8.87468C30.8664 9.13649 31.1988 9.11378 31.615 9.11317C31.6875 9.11388 31.76 9.11459 31.8348 9.11532C32.074 9.11741 32.3133 9.11805 32.5526 9.11868C32.7187 9.11985 32.8848 9.12112 33.0509 9.12246C33.4877 9.12577 33.9245 9.12784 34.3613 9.12965C34.8072 9.13172 35.253 9.13496 35.6989 9.13809C36.5735 9.14407 37.4481 9.14875 38.3227 9.15261C38.3328 9.09888 38.3429 9.04515 38.3533 8.98979C38.5094 8.30739 39.2582 7.51552 39.8526 7.13759C39.2035 7.11467 38.5543 7.09174 37.8855 7.06811C37.7878 6.88171 37.8469 6.77673 37.9097 6.58521C38.3821 5.24377 39.3347 4.19636 40.6591 3.55513C41.5528 3.18016 42.414 3.07543 43.3816 3.07066C43.4997 3.06935 43.6178 3.06797 43.7359 3.06651C44.1205 3.06217 44.5052 3.05997 44.8898 3.05789C45.0231 3.05705 45.1565 3.05619 45.2898 3.05532C45.9161 3.05135 46.5425 3.04839 47.1689 3.04664C47.8884 3.0446 48.6078 3.03912 49.3273 3.0307C49.886 3.02438 50.4446 3.02132 51.0034 3.02063C51.336 3.02014 51.6684 3.01832 52.001 3.01303C54.4734 2.97572 54.4734 2.97572 55.2083 3.62556C55.3133 3.72871 55.415 3.83494 55.5164 3.94136C55.6418 4.03424 55.7692 4.12497 55.8998 4.21115C55.9806 4.26771 55.9806 4.26771 56.0631 4.32542C56.1742 4.40295 56.2854 4.48039 56.3967 4.55775C56.6647 4.74497 56.9294 4.93385 57.1861 5.13506C57.2291 5.16837 57.2721 5.20168 57.3164 5.236C57.4297 5.32457 57.5417 5.4146 57.6537 5.50474C57.8364 5.62893 57.8364 5.62893 58.0182 5.57883C58.0822 5.54292 58.1462 5.507 58.212 5.46999C58.2542 5.44634 58.2963 5.42268 58.3398 5.39831C58.4978 5.30751 58.6532 5.21325 58.8085 5.11823C58.8675 5.08249 58.9264 5.04675 58.9871 5.00992C59.6067 4.63263 60.2215 4.24827 60.8359 3.86331C60.9124 3.81535 60.989 3.76739 61.0679 3.71798C61.1354 3.67562 61.2029 3.63326 61.2724 3.58962C61.3444 3.54519 61.4164 3.50075 61.4905 3.45498C61.5485 3.40925 61.5485 3.40925 61.6076 3.3626C62.0855 3.01585 62.6031 3.06202 63.1796 3.07119C63.2864 3.07166 63.3932 3.07199 63.5 3.07218C63.7226 3.07292 63.9451 3.07476 64.1677 3.07753C64.4535 3.08109 64.7393 3.08282 65.0252 3.08385C65.2979 3.08488 65.5706 3.08663 65.8433 3.08856C65.8955 3.0889 65.9476 3.08924 66.0014 3.08959C66.1481 3.09072 66.2947 3.09242 66.4414 3.09416C66.5249 3.09505 66.6084 3.09595 66.6944 3.09687C66.8818 3.10756 66.8818 3.10756 66.9546 3.17704C66.9625 3.32468 66.9653 3.47256 66.9661 3.62039C66.9667 3.68989 66.9667 3.68989 66.9672 3.7608C66.968 3.86183 66.9687 3.96287 66.9692 4.06391C66.97 4.22436 66.9714 4.38478 66.973 4.54522C66.9775 5.00155 66.9814 5.45788 66.9839 5.91422C66.9854 6.19319 66.988 6.47213 66.9912 6.75109C66.9922 6.85698 66.9929 6.96288 66.9931 7.06877C66.9785 8.04683 66.9785 8.04683 67.3918 8.91376C67.685 9.11478 67.9833 9.09488 68.3293 9.09739C68.4181 9.09844 68.4181 9.09844 68.5088 9.09951C68.7006 9.10169 68.8924 9.10341 69.0842 9.10511C69.2026 9.10639 69.321 9.1077 69.4394 9.10904C69.8785 9.1138 70.3176 9.11797 70.7568 9.12221C72.2286 9.13726 72.2286 9.13726 73.7301 9.15261C73.7301 7.15774 73.7301 5.16288 73.7301 3.10756C74.7399 3.10756 75.7497 3.10756 76.7901 3.10756C76.7901 5.12536 76.7901 7.14315 76.7901 9.2221C78.5516 9.2158 78.5516 9.2158 80.3131 9.20757C81.0315 9.20379 81.7499 9.20022 82.4683 9.19802C82.9915 9.19643 83.5147 9.1941 84.0379 9.19092C84.3149 9.18926 84.5918 9.18795 84.8688 9.18752C85.1297 9.1871 85.3906 9.18571 85.6515 9.18358C85.7924 9.18268 85.9334 9.1828 86.0743 9.18296C86.5292 9.17828 86.8842 9.16618 87.2812 8.94416C87.4216 8.73763 87.4286 8.62498 87.4132 8.37961C87.3523 8.17393 87.3137 8.09566 87.1354 7.97139C86.9155 7.90147 86.7671 7.89259 86.5371 7.89139C86.4584 7.89081 86.3797 7.89023 86.2987 7.88963C86.2124 7.88934 86.1261 7.88905 86.0372 7.88875C85.9463 7.88817 85.8554 7.8876 85.7618 7.887C85.5642 7.88579 85.3666 7.8847 85.169 7.88382C84.8568 7.88242 84.5446 7.88049 84.2324 7.87849C83.5135 7.87396 82.7947 7.87011 82.0758 7.86626C81.4166 7.86273 80.7574 7.85906 80.0983 7.85483C79.7876 7.85286 79.477 7.85122 79.1663 7.84984C78.9283 7.84869 78.6903 7.84711 78.4523 7.84559C78.3657 7.8453 78.2791 7.84501 78.1899 7.84471C78.0725 7.84384 78.0725 7.84384 77.9528 7.84295C77.8844 7.8426 77.8159 7.84224 77.7454 7.84187C77.5915 7.83243 77.5915 7.83243 77.5186 7.76294C77.4864 6.5318 78.0863 5.46466 78.9495 4.59032C79.3957 4.16833 79.8626 3.84713 80.4191 3.57223C80.4639 3.5496 80.5087 3.52698 80.5549 3.50366C81.6013 3.01203 82.7177 3.07899 83.8536 3.08476C84.0366 3.08497 84.2197 3.0851 84.4027 3.08516C84.833 3.08551 85.2632 3.08685 85.6935 3.08862C86.1351 3.09036 86.5767 3.09078 87.0182 3.09105C87.3952 3.09134 87.7722 3.09202 88.1492 3.09285C88.3301 3.09325 88.511 3.09358 88.692 3.09384C88.9434 3.09432 89.1949 3.09526 89.4464 3.09636C89.5216 3.09644 89.5969 3.09652 89.6744 3.0966C89.7424 3.097 89.8104 3.09739 89.8804 3.0978C89.9695 3.09811 89.9695 3.09811 90.0605 3.09843C90.1954 3.10756 90.1954 3.10756 90.2682 3.17704C90.2754 3.28979 90.2777 3.40282 90.2779 3.51577C90.278 3.5842 90.2781 3.65264 90.2782 3.72314C90.2779 3.79515 90.2776 3.86716 90.2773 3.94136C90.2776 4.01337 90.2779 4.08539 90.2782 4.15958C90.2781 4.22801 90.278 4.29644 90.2779 4.36695C90.2778 4.4618 90.2778 4.4618 90.2776 4.55857C90.2682 4.70568 90.2682 4.70568 90.1954 4.77516C90.0944 4.78203 89.993 4.78413 89.8918 4.78428C89.8263 4.78456 89.7609 4.78484 89.6934 4.78513C89.5848 4.78507 89.5848 4.78507 89.474 4.78502C89.3982 4.78526 89.3224 4.7855 89.2443 4.78575C89.079 4.78626 88.9136 4.78663 88.7483 4.78688C88.4865 4.78738 88.2246 4.78846 87.9628 4.78975C87.2181 4.7934 86.4734 4.79673 85.7287 4.79781C85.2737 4.79851 84.8187 4.80055 84.3637 4.80346C84.1904 4.80431 84.017 4.80467 83.8436 4.80451C83.6005 4.80435 83.3574 4.80589 83.1143 4.80782C83.043 4.80736 82.9716 4.8069 82.8981 4.80643C82.4333 4.81244 82.1477 4.90314 81.7442 5.12258C81.6961 5.12258 81.648 5.12258 81.5985 5.12258C81.5744 5.19137 81.5504 5.26015 81.5256 5.33103C81.4775 5.33103 81.4295 5.33103 81.3799 5.33103C81.2586 5.60382 81.1723 5.8797 81.0885 6.16483C81.2309 6.1639 81.2309 6.1639 81.3763 6.16296C82.2734 6.15731 83.1705 6.15315 84.0677 6.15043C84.5289 6.14898 84.99 6.14702 85.4512 6.14386C85.8967 6.14083 86.3421 6.13918 86.7876 6.13846C86.9571 6.13795 87.1266 6.13695 87.2962 6.13544C87.5345 6.13341 87.7728 6.13315 88.0112 6.13328C88.1152 6.13178 88.1152 6.13178 88.2213 6.13025C89.0649 6.13512 89.7419 6.43246 90.3368 6.99293C90.7672 7.43595 90.9652 7.86585 91.015 8.47081C90.9688 9.14253 90.7037 9.72629 90.1899 10.1932C89.6215 10.638 89.0238 10.8976 88.2834 10.899C88.2075 10.8993 88.1316 10.8996 88.0533 10.9C87.9704 10.8999 87.8874 10.8999 87.802 10.8999C87.7135 10.9002 87.625 10.9004 87.5338 10.9007C87.2884 10.9013 87.0429 10.9017 86.7975 10.9018C86.5327 10.9021 86.2679 10.9028 86.003 10.9034C85.3635 10.9048 84.724 10.9055 84.0844 10.9061C83.7829 10.9064 83.4814 10.9067 83.18 10.9071C82.1771 10.9083 81.1743 10.9093 80.1714 10.9098C79.9113 10.9099 79.6511 10.9101 79.391 10.9102C79.3263 10.9102 79.2617 10.9103 79.1951 10.9103C78.1488 10.9109 77.1025 10.9126 76.0562 10.9149C74.9809 10.9172 73.9056 10.9185 72.8303 10.9187C72.227 10.9188 71.6237 10.9194 71.0204 10.9212C70.5064 10.9227 69.9924 10.9233 69.4783 10.9226C69.2164 10.9223 68.9546 10.9224 68.6927 10.9238C65.9101 10.9374 65.9102 10.9374 64.8216 9.97936C63.6931 8.84493 63.7863 7.35477 63.7718 5.89124C63.7694 5.72192 63.7669 5.55259 63.7642 5.38328C63.7581 4.97213 63.7531 4.56098 63.749 4.14981C63.7009 4.14981 63.6529 4.14981 63.6033 4.14981C63.6033 4.19567 63.6033 4.24153 63.6033 4.28878C63.5386 4.32156 63.5386 4.32156 63.4727 4.355C63.2113 4.49002 62.9705 4.61868 62.7382 4.79687C62.5833 4.91413 62.5833 4.91413 62.3648 4.91413C62.3648 4.95999 62.3648 5.00585 62.3648 5.05309C62.3225 5.07495 62.2803 5.0968 62.2367 5.11932C61.9706 5.25835 61.7083 5.39637 61.4586 5.56119C61.272 5.67844 61.272 5.67844 61.1262 5.67844C61.1262 5.7243 61.1262 5.77016 61.1262 5.81741C61.0865 5.83765 61.0468 5.8579 61.0059 5.87875C60.6389 6.06901 60.2917 6.27422 59.9495 6.50274C59.8149 6.58173 59.8149 6.58173 59.6691 6.58173C59.6691 6.62759 59.6691 6.67345 59.6691 6.72069C59.6211 6.74362 59.573 6.76655 59.5234 6.79018C60.2357 7.32476 60.9537 7.85017 61.6852 8.36061C62.1917 8.71474 62.6918 9.07663 63.1902 9.44101C63.4924 9.66173 63.7954 9.88101 64.1022 10.0958C64.1566 10.134 64.2109 10.1722 64.2669 10.2115C64.3682 10.2824 64.4697 10.353 64.5717 10.423C64.9066 10.6581 64.9066 10.6581 64.9876 10.8897C64.4118 10.9125 63.8363 10.9296 63.2602 10.9401C62.9925 10.9451 62.7251 10.9519 62.4576 10.9631C60.3492 11.0488 60.3492 11.0488 59.4839 10.297C59.3907 10.2105 59.2987 10.1227 59.2081 10.0337C59.0469 9.87917 58.87 9.75428 58.6836 9.62868C58.6294 9.5907 58.5753 9.55273 58.5195 9.5136C58.4092 9.43702 58.2989 9.36049 58.1885 9.28398C57.9397 9.11125 57.6921 8.93869 57.4522 8.75471C57.3829 8.70258 57.3136 8.65045 57.2422 8.59675C57.1853 8.55232 57.1285 8.50789 57.07 8.46212C56.8933 8.36488 56.8933 8.36488 56.6607 8.44475C56.5631 8.48559 56.5631 8.48559 56.4635 8.52726C56.4635 8.57312 56.4635 8.61898 56.4635 8.66623C56.3989 8.69901 56.3989 8.69901 56.3329 8.73245C56.0715 8.86747 55.8307 8.99613 55.5984 9.17433C55.4436 9.29158 55.4436 9.29158 55.225 9.29158C55.225 9.33744 55.225 9.3833 55.225 9.43055C55.1603 9.46333 55.1603 9.46333 55.0944 9.49677C54.8452 9.62545 54.6088 9.74779 54.3872 9.91693C54.1744 10.0792 53.9503 10.1944 53.711 10.3173C53.5676 10.3936 53.4337 10.4748 53.2989 10.564C53.1122 10.6812 53.1122 10.6812 52.9665 10.6812C52.9665 10.7271 52.9665 10.773 52.9665 10.8202C52.7457 10.8904 52.5982 10.8985 52.3673 10.8988C52.288 10.8991 52.2087 10.8994 52.1269 10.8996C52.0395 10.8996 51.952 10.8995 51.8618 10.8995C51.7691 10.8997 51.6764 10.8999 51.5809 10.9001C51.3231 10.9006 51.0653 10.9008 50.8075 10.9008C50.5296 10.9009 50.2517 10.9015 49.9739 10.9019C49.3659 10.9029 48.7579 10.9033 48.1498 10.9036C47.7701 10.9038 47.3903 10.9041 47.0106 10.9044C45.9589 10.9053 44.9073 10.906 43.8556 10.9062C43.7546 10.9062 43.7546 10.9062 43.6516 10.9062C43.5841 10.9063 43.5166 10.9063 43.447 10.9063C43.3103 10.9063 43.1735 10.9064 43.0367 10.9064C42.9689 10.9064 42.901 10.9064 42.8311 10.9064C41.7329 10.9067 40.6346 10.9079 39.5363 10.9095C38.4084 10.9112 37.2805 10.9121 36.1526 10.9121C35.5195 10.9122 34.8864 10.9126 34.2532 10.9139C33.7138 10.9149 33.1744 10.9153 32.635 10.9147C32.36 10.9144 32.085 10.9145 31.81 10.9155C31.5113 10.9165 31.2125 10.916 30.9137 10.9152C30.8277 10.9158 30.7416 10.9163 30.653 10.9169C29.6337 10.9112 28.708 10.6854 27.9545 10.0081C27.0927 9.13602 26.9962 8.08032 27.0088 6.93457C27.0092 6.8236 27.0095 6.71263 27.0097 6.60166C27.0106 6.31243 27.0127 6.02322 27.0151 5.734C27.0178 5.38546 27.0188 5.03691 27.02 4.68836C27.0221 4.16141 27.0263 3.63451 27.0301 3.10756ZM50.7808 4.01084C50.7808 4.26307 50.7808 4.51529 50.7808 4.77516C50.6875 4.77454 50.5942 4.77393 50.4981 4.77329C49.617 4.76765 48.736 4.76348 47.8549 4.76076C47.4019 4.75931 46.949 4.75735 46.4961 4.75419C46.0587 4.75116 45.6213 4.74951 45.1838 4.74879C45.0173 4.74828 44.8507 4.74728 44.6842 4.74577C44.4502 4.74374 44.2162 4.74348 43.9822 4.74361C43.9139 4.74261 43.8457 4.74161 43.7754 4.74058C43.2305 4.74379 42.7316 4.85965 42.2978 5.18717C42.2602 5.23178 42.2227 5.27639 42.184 5.32234C42.1449 5.36659 42.1058 5.41084 42.0656 5.45642C41.9346 5.64257 41.9346 5.64257 41.8197 6.02586C45.8948 6.06026 45.8948 6.06026 50.0523 6.09534C50.0523 6.62272 50.0523 7.1501 50.0523 7.69346C49.8483 7.69411 49.6442 7.69476 49.434 7.69543C48.7585 7.69778 48.083 7.70164 47.4075 7.70624C46.9981 7.70898 46.5887 7.71122 46.1793 7.71229C45.7839 7.71335 45.3886 7.71574 44.9932 7.71905C44.8426 7.72008 44.6921 7.72063 44.5415 7.72069C44.33 7.72086 44.1186 7.72274 43.907 7.72501C43.8453 7.72466 43.7837 7.72431 43.7201 7.72395C43.2004 7.73254 42.7646 7.86977 42.3615 8.18853C42.242 8.30983 42.242 8.30983 42.2568 8.45778C42.2087 8.45778 42.1606 8.45778 42.1111 8.45778C42.0742 8.54591 42.0379 8.63425 42.0018 8.72268C41.9815 8.77186 41.9613 8.82103 41.9404 8.87169C41.8814 9.02187 41.8814 9.02187 41.8925 9.2221C43.2302 9.24823 44.5677 9.26775 45.9056 9.2797C46.527 9.2854 47.1482 9.29314 47.7695 9.30596C48.3119 9.31715 48.8542 9.32424 49.3967 9.3267C49.6832 9.32813 49.9694 9.33142 50.2559 9.33964C51.7497 9.38083 52.7548 9.18793 53.949 8.24939C54.2379 8.0301 54.5481 7.84524 54.8607 7.65872C54.961 7.59731 55.0612 7.5358 55.1612 7.47415C55.2304 7.43188 55.2995 7.3896 55.3707 7.34604C55.2887 7.11134 55.2403 7.07835 55.0366 6.93864C54.9815 6.90045 54.9265 6.86226 54.8697 6.82292C54.8096 6.78202 54.7496 6.74112 54.6877 6.69898C54.5602 6.61078 54.4327 6.52257 54.3052 6.43435C54.2398 6.38939 54.1745 6.34444 54.1071 6.29813C53.8137 6.09603 53.522 5.89176 53.2306 5.68713C53.1748 5.64808 53.119 5.60903 53.0616 5.56879C52.7419 5.34421 52.4249 5.11664 52.1099 4.88617C52.0401 4.83515 51.9704 4.78413 51.8985 4.73156C51.7629 4.63207 51.6274 4.5323 51.4922 4.43226C51.431 4.38733 51.3698 4.3424 51.3068 4.29611C51.2526 4.25608 51.1985 4.21606 51.1427 4.17483C50.9954 4.06825 50.9954 4.06825 50.7808 4.01084Z" fill="white"/>
<path d="M12.9788 0.296476C13.0343 0.307818 13.0897 0.319161 13.1469 0.330847C13.5189 0.413971 13.8027 0.526749 14.0777 0.804814C14.1181 1.1071 14.0422 1.28224 13.8642 1.52459C13.8172 1.52459 13.7702 1.52459 13.7218 1.52459C13.6748 1.64335 13.6278 1.76211 13.5794 1.88447C13.5324 1.88447 13.4854 1.88447 13.437 1.88447C13.3901 2.00323 13.3431 2.122 13.2947 2.24436C13.2477 2.24436 13.2007 2.24436 13.1523 2.24436C13.1053 2.36312 13.0583 2.48188 13.0099 2.60424C12.9629 2.60424 12.916 2.60424 12.8676 2.60424C12.8441 2.69925 12.8206 2.79426 12.7964 2.89215C12.7494 2.89215 12.7024 2.89215 12.654 2.89215C12.607 3.01091 12.56 3.12968 12.5116 3.25204C12.4647 3.25204 12.4177 3.25204 12.3693 3.25204C12.3458 3.34705 12.3223 3.44206 12.2981 3.53995C12.2511 3.53995 12.2041 3.53995 12.1557 3.53995C12.1087 3.65871 12.0617 3.77747 12.0133 3.89983C11.9664 3.89983 11.9194 3.89983 11.871 3.89983C11.8475 3.99484 11.824 4.08985 11.7998 4.18774C11.7528 4.18774 11.7058 4.18774 11.6574 4.18774C11.6339 4.28275 11.6104 4.37776 11.5862 4.47565C11.5392 4.47565 11.4923 4.47565 11.4439 4.47565C11.4204 4.57066 11.3969 4.66567 11.3727 4.76356C11.3257 4.76356 11.2787 4.76356 11.2303 4.76356C11.2068 4.85857 11.1833 4.95358 11.1591 5.05147C11.1121 5.05147 11.0651 5.05147 11.0167 5.05147C10.9933 5.14648 10.9698 5.24149 10.9456 5.33938C10.8986 5.33938 10.8516 5.33938 10.8032 5.33938C10.8032 5.41063 10.8032 5.48189 10.8032 5.55531C10.7562 5.55531 10.7092 5.55531 10.6608 5.55531C10.6373 5.65032 10.6138 5.74533 10.5896 5.84322C10.5426 5.84322 10.4957 5.84322 10.4473 5.84322C10.4473 5.91447 10.4473 5.98573 10.4473 6.05915C10.4003 6.05915 10.3533 6.05915 10.3049 6.05915C10.2829 6.11556 10.2608 6.17197 10.2382 6.23009C10.1625 6.41903 10.1625 6.41903 10.0913 6.56299C10.0444 6.56299 9.99737 6.56299 9.94896 6.56299C9.94896 6.63425 9.94896 6.7055 9.94896 6.77892C9.90198 6.77892 9.855 6.77892 9.80659 6.77892C9.80659 6.85018 9.80659 6.92143 9.80659 6.99485C9.75961 6.99485 9.71263 6.99485 9.66422 6.99485C9.65835 7.03196 9.65248 7.06908 9.64643 7.10732C9.57016 7.35794 9.44104 7.56146 9.3083 7.7866C9.26131 7.7866 9.21433 7.7866 9.16593 7.7866C9.14647 7.838 9.12702 7.8894 9.10698 7.94236C9.02355 8.14649 9.02355 8.14649 8.92679 8.33711C8.69334 8.76866 8.69334 8.76866 8.71657 9.23964C8.7474 9.30644 8.77823 9.37325 8.81 9.44207C9.00909 9.49904 9.18569 9.52308 9.39235 9.52319C9.48059 9.5235 9.48059 9.5235 9.57062 9.52381C9.63459 9.52366 9.69856 9.52351 9.76447 9.52336C9.83235 9.52349 9.90023 9.52362 9.97016 9.52375C10.1952 9.52406 10.4202 9.52385 10.6452 9.52361C10.8026 9.52366 10.96 9.52373 11.1174 9.52382C11.4482 9.52393 11.779 9.52377 12.1098 9.52344C12.5299 9.52303 12.9499 9.52326 13.37 9.52369C13.6958 9.52396 14.0216 9.52387 14.3473 9.52368C14.5019 9.52364 14.6565 9.52369 14.8111 9.52386C15.571 9.52451 16.33 9.51911 17.0893 9.48646C17.1489 9.48428 17.2085 9.48209 17.2699 9.47984C17.543 9.46617 17.6896 9.45456 17.9217 9.29812C18.4362 8.12537 18.3501 6.59146 17.9217 5.41135C17.8959 5.33648 17.8701 5.2616 17.8436 5.18446C17.1687 3.38717 15.7764 2.41756 14.1489 1.59656C14.2044 1.33353 14.2928 1.20221 14.4737 1.00275C14.5193 0.951906 14.5649 0.901061 14.6119 0.848675C14.647 0.810449 14.6822 0.772222 14.7184 0.732837C16.7591 1.51889 18.5619 2.95535 19.498 4.98023C20.1884 6.60214 20.1487 8.32194 19.5078 9.95041C19.4135 10.169 19.3105 10.3814 19.203 10.5937C19.1561 10.5937 19.1091 10.5937 19.0607 10.5937C19.0372 10.6887 19.0137 10.7837 18.9895 10.8816C18.9425 10.8816 18.8955 10.8816 18.8471 10.8816C18.8293 10.9266 18.8115 10.9716 18.7932 11.0179C18.6585 11.2488 18.5001 11.271 18.2543 11.3441C17.9079 11.4194 17.5626 11.4287 17.2093 11.438C17.126 11.4409 17.0427 11.4438 16.9568 11.4468C16.6823 11.456 16.4078 11.4635 16.1332 11.4709C16.0376 11.4738 15.942 11.4766 15.8464 11.4796C14.3419 11.525 12.8377 11.5426 11.3326 11.5429C11.2415 11.543 11.1504 11.5431 11.0565 11.5431C10.0889 11.543 9.12137 11.5324 8.15404 11.5061C8.07301 11.5045 7.99198 11.5029 7.90849 11.5013C7.06902 11.4741 6.38757 11.2763 5.76405 10.6899C5.34436 10.2321 5.18948 9.73201 5.20875 9.10946C5.56887 7.02356 7.7262 4.77855 8.96599 3.14604C9.01634 3.07969 9.06668 3.01335 9.11855 2.94499C9.21487 2.81837 9.3115 2.69198 9.4085 2.56588C9.97809 1.84236 9.97809 1.84236 10.3761 1.02075C8.29427 1.12929 6.37821 1.46517 4.60089 2.61971C4.39651 2.7482 4.39651 2.7482 4.18296 2.82018C4.18296 2.86768 4.18296 2.91518 4.18296 2.96413C4.1257 2.98343 4.06844 3.00273 4.00944 3.02261C3.91915 3.06492 3.91915 3.06492 3.82703 3.10808C3.80354 3.17934 3.78005 3.2506 3.75584 3.32402C3.64999 3.41476 3.54388 3.50529 3.43495 3.59224C3.30585 3.70365 3.21581 3.83444 3.11518 3.97181C3.06819 3.97181 3.02121 3.97181 2.97281 3.97181C2.92582 4.09057 2.87884 4.20933 2.83044 4.3317C2.78345 4.3317 2.73647 4.3317 2.68806 4.3317C2.68806 4.40295 2.68806 4.47421 2.68806 4.54763C2.64108 4.54763 2.5941 4.54763 2.54569 4.54763C2.52954 4.60255 2.51339 4.65748 2.49675 4.71407C2.41866 4.93591 2.33037 5.13674 2.22981 5.34837C1.65925 6.63019 1.63313 8.19317 2.11858 9.51405C2.76491 11.1071 3.91349 12.2428 5.48431 12.9114C8.40585 14.1073 11.7377 14.1004 14.6546 12.8841C15.1887 12.6503 15.6681 12.3646 16.1287 12.0063C16.4431 11.7704 16.6746 11.6639 17.0675 11.6734C17.1636 11.6727 17.2597 11.6719 17.3558 11.6708C17.6395 11.6686 17.9229 11.6702 18.2065 11.6734C18.2065 11.9613 18.2065 11.9613 18.0869 12.0996C18.0353 12.143 17.9837 12.1865 17.9306 12.2312C17.8794 12.2754 17.8282 12.3195 17.7755 12.365C17.637 12.4651 17.637 12.4651 17.4946 12.4651C17.4946 12.5126 17.4946 12.5601 17.4946 12.6091C17.2476 12.7976 16.9767 12.9519 16.7116 13.1129C16.6344 13.1602 16.5572 13.2075 16.4777 13.2563C13.4514 15.0621 9.70421 15.4155 6.31851 14.5525C6.26601 14.5392 6.21351 14.5259 6.15942 14.5122C4.09566 13.9766 2.09425 12.8098 0.97934 10.919C0.102839 9.37512 -0.256787 7.65221 0.19658 5.91519C0.470685 4.99977 0.942016 4.19682 1.5491 3.46797C1.59489 3.41119 1.64068 3.3544 1.68786 3.2959C3.47854 1.16735 6.33721 0.255925 9.0052 0.0380888C10.3337 -0.0575114 11.6735 0.0262126 12.9788 0.296476Z" fill="white"/>
</svg>
