<svg width="73" height="14" viewBox="0 0 73 14" fill="none" xmlns="http://www.w3.org/2000/svg">
<path d="M0 8.50166V14.0023H5.50062H11.0012V8.50166V3.00104H5.50062H0V8.50166ZM6.42248 4.20303C6.49888 4.23868 6.59565 4.35073 6.64148 4.45259C6.71788 4.61048 6.72807 4.87023 6.71279 7.11122C6.69242 9.93284 6.7026 9.86663 6.27987 10.3352C5.95391 10.6968 5.62285 10.8547 5.13391 10.8853C4.54819 10.9209 4.23242 10.8038 3.84024 10.4167C3.32074 9.89718 3.33602 9.98886 3.33602 7.04501C3.33602 4.32017 3.33602 4.34564 3.62633 4.19284C3.80969 4.09607 4.17639 4.10116 4.319 4.20303C4.55838 4.36601 4.55838 4.3711 4.58385 6.93806L4.60931 9.37768L4.75192 9.49992C4.98111 9.69855 5.25105 9.64762 5.38857 9.38277C5.4344 9.30128 5.44968 8.60861 5.44968 6.9075V4.54427L5.56683 4.3711C5.75527 4.09098 6.07614 4.02986 6.42248 4.20303ZM9.49875 4.14191C9.71775 4.23359 9.88074 4.49334 9.88074 4.748C9.88074 4.91098 9.76359 5.13508 9.18297 6.07222C8.58707 7.03992 8.48521 7.23346 8.48521 7.40663C8.48521 7.54924 8.78571 8.36924 9.4631 10.1009C10.003 11.471 10.441 12.5966 10.441 12.6067C10.441 12.622 8.5667 12.622 6.27987 12.6169C2.12385 12.6017 2.11366 12.6017 1.90994 12.4896C1.64 12.347 1.45155 12.1433 1.32932 11.8631C1.23764 11.6441 1.22745 11.4557 1.19689 8.19097C1.16633 5.5629 1.17143 4.70725 1.21727 4.56464C1.40571 3.99421 2.19515 3.95856 2.42435 4.50862C2.48037 4.64613 2.49565 5.27259 2.49565 7.85483C2.49565 10.9922 2.49565 11.0381 2.60261 11.1705L2.70447 11.3029H5.68397C7.31888 11.3029 8.65838 11.2927 8.65838 11.2774C8.65838 11.2622 8.31713 10.432 7.8944 9.42352C7.06931 7.45247 7.04894 7.38116 7.2221 6.93806C7.33925 6.64265 8.65838 4.45769 8.83664 4.26415C8.95378 4.14191 9.05055 4.10116 9.25937 4.0757C9.29502 4.0757 9.40198 4.10116 9.49875 4.14191Z" fill="white"/>
<path d="M57.9602 0.316617L57.375 0.633233L57.4844 0.901669C57.8563 1.81711 58.6385 2.33333 59.6668 2.33333C60.695 2.33333 61.4772 1.81711 61.8491 0.901669L61.9585 0.62635L61.3514 0.309734C60.7224 -0.0206492 60.5966 -0.061947 60.5966 0.0757125C60.5966 0.247787 60.3395 0.619468 60.1262 0.750244C59.6449 1.04621 59.0213 0.825957 58.819 0.289085C58.7588 0.130776 58.6713 -2.36556e-07 58.6275 -2.36556e-07C58.5838 -2.36556e-07 58.2829 0.144542 57.9602 0.316617Z" fill="white"/>
<path d="M49.7876 3.52972C48.8871 3.65219 48.004 4.06858 47.3824 4.66868C46.7608 5.2749 46.3599 5.98522 46.0636 6.99558C45.9184 7.50995 45.9067 7.60793 45.9067 8.70402C45.9009 9.9532 45.9416 10.2104 46.2611 11.0615C47.0919 13.2537 49.1834 14.3866 51.4781 13.8844C53.3663 13.4742 54.5514 12.1454 55.0046 9.92871C55.0452 9.72051 55.0743 9.17552 55.0743 8.6734C55.0743 7.57118 54.9465 6.95884 54.5224 6.04645C54.2667 5.48922 54.1564 5.33613 53.6974 4.84626C53.2559 4.38088 53.0758 4.23392 52.6691 4.02572C52.3961 3.891 51.9778 3.71955 51.7396 3.65831C51.2051 3.51747 50.3395 3.46236 49.7876 3.52972ZM51.2341 6.04033C51.8383 6.27914 52.3205 6.91598 52.5239 7.73652C52.6284 8.14679 52.6401 9.13878 52.5471 9.60416C52.3903 10.3941 51.9022 11.0922 51.2806 11.4167C51.0018 11.5575 50.8798 11.582 50.4615 11.582C50.0374 11.582 49.9212 11.5575 49.6423 11.4106C48.7593 10.9574 48.2596 9.8491 48.3293 8.4897C48.3816 7.45484 48.7302 6.67716 49.3576 6.23015C49.9037 5.83825 50.5544 5.7709 51.2341 6.04033Z" fill="white"/>
<path d="M19.6948 6.66513C19.6948 8.42857 19.6665 10.0329 19.6383 10.2748C19.5197 11.166 19.192 11.4844 18.4237 11.4462L18 11.4271V12.6494V13.8717L18.2147 13.9353C18.5197 14.0372 19.5536 14.0181 19.966 13.9099C20.9376 13.6489 21.5817 12.9422 21.8754 11.809C21.9602 11.478 21.9771 11.0642 21.9941 8.70232L22.0167 5.98394H22.8641H23.7058V9.93099V13.878H24.8639H26.022V8.68958V3.50112H22.8584H19.6948V6.66513Z" fill="white"/>
<path d="M27.4642 4.1589C27.6331 4.52648 28.4211 6.22896 29.2153 7.94433C30.4661 10.6464 30.6537 11.0913 30.6036 11.2332C30.5724 11.3299 30.2909 11.9748 29.9783 12.6777C29.6656 13.3807 29.4092 13.9675 29.4092 13.9868C29.4092 13.9997 30.0345 14.0062 30.7975 13.9997L32.1921 13.9804L34.2621 8.75688L36.3321 3.53336L34.9563 3.51402C34.1558 3.50757 33.5617 3.52691 33.5429 3.55916C33.5241 3.5914 33.1802 4.57807 32.7862 5.75175C32.3922 6.92542 32.0545 7.88629 32.0358 7.88629C32.017 7.88629 31.6105 6.89963 31.129 5.69371L30.2534 3.50112H28.7087H27.1641L27.4642 4.1589Z" fill="white"/>
<path d="M37.4963 3.57843C37.4788 3.62353 37.4729 5.98145 37.4788 8.81612L37.4963 13.9701L38.709 13.9894L39.9275 14.0023L39.9392 11.7796L39.9568 9.557L41.1811 11.7796L42.3996 14.0023H43.952H45.4986L45.2408 13.6028C43.5713 11.0065 42.095 8.61641 42.1243 8.54554C42.136 8.494 42.88 7.36013 43.7646 6.02011C44.6492 4.68008 45.3756 3.56554 45.3756 3.53977C45.3756 3.52045 44.737 3.50112 43.9579 3.50112H42.5344L41.2456 5.69154L39.9568 7.87553L39.9392 5.69154L39.9275 3.50112H38.7265C37.8185 3.50112 37.5139 3.52045 37.4963 3.57843Z" fill="white"/>
<path d="M55.8125 8.7517V14.0023H56.9719H58.1371L59.8001 10.8841L61.4631 7.75956L61.4806 10.8841L61.4923 14.0023H62.6634H63.8345V8.7517V3.50112L62.6576 3.514L61.4806 3.53333L59.8352 6.6257L58.184 9.71806L58.1664 6.60637L58.1547 3.50112H56.9836H55.8125V8.7517Z" fill="white"/>
<path d="M66.6679 6.91978C66.6396 10.7586 66.634 10.8223 66.2555 11.1979C66.0295 11.4207 65.8092 11.478 65.329 11.4462L64.9844 11.4271V12.6494V13.8653L65.1595 13.9353C65.4194 14.0372 66.5323 14.0181 66.956 13.9099C67.7299 13.6998 68.3457 13.1587 68.6564 12.3947C68.9502 11.6944 68.9954 11.1469 68.9954 8.42857V5.98394H69.8428H70.6902V9.93099V13.878H71.8483H73.0064V8.68958V3.50112H69.8484H66.6848L66.6679 6.91978Z" fill="white"/>
</svg>
