<svg width="89" height="11" viewBox="0 0 89 11" fill="none" xmlns="http://www.w3.org/2000/svg">
<path d="M31.2714 0.0388502C30.6912 0.118191 29.889 0.385064 29.4378 0.651936C28.9006 0.962086 28.1199 1.79877 27.8262 2.37579C27.2747 3.45049 27.0598 4.71273 27.1959 6.04709C27.3392 7.48244 27.7761 8.49944 28.5926 9.30727C29.445 10.1584 30.3976 10.5407 31.8158 10.6128C33.9502 10.721 35.6262 9.85544 36.4356 8.2542C37.1017 6.93427 37.2449 4.82092 36.7865 3.29903C36.2923 1.69058 35.1678 0.579808 33.6279 0.183106C32.9832 0.0172118 31.9017 -0.0477032 31.2714 0.0388502ZM33.2268 2.13777C34.2582 2.62102 34.7452 3.63081 34.7452 5.33303C34.7452 7.32376 34.0505 8.42731 32.6394 8.68697C31.5651 8.88172 30.4764 8.39846 29.9392 7.48244C29.2086 6.2202 29.2802 3.9626 30.0824 2.90232C30.6411 2.17383 31.2571 1.89253 32.2097 1.9286C32.6753 1.94302 32.9116 1.99351 33.2268 2.13777Z" fill="white"/>
<path d="M43.1953 0.0464158C41.0265 0.329998 39.5458 1.70313 39.0522 3.88224C38.8368 4.82254 38.8368 6.45687 39.0522 7.30761C39.5597 9.34493 40.7693 10.5166 42.7435 10.9046C43.4386 11.039 44.7525 11.0315 45.3156 10.8972C46.0107 10.7255 46.5668 10.4718 46.5668 10.3225C46.5668 10.1957 46.2192 8.60612 46.1845 8.56135C46.1706 8.54642 45.9342 8.61358 45.6562 8.7106C45.2391 8.84493 44.9888 8.88224 44.3423 8.87478C43.4804 8.86732 42.9381 8.72552 42.4098 8.36732C41.8398 7.98672 41.374 7.24045 41.2142 6.4494C41.089 5.84493 41.1516 4.59119 41.3393 4.04642C41.6313 3.18075 42.2638 2.54642 43.1189 2.25537C43.7515 2.04642 45.0375 2.03149 45.7257 2.23298C45.969 2.30015 46.1706 2.35239 46.1775 2.33746C46.2123 2.29269 46.5807 0.732983 46.5877 0.606118C46.6224 0.218058 44.5231 -0.125226 43.1953 0.0464158Z" fill="white"/>
<path d="M69.42 0.102303C68.6547 0.269239 68.0683 0.610367 67.4246 1.26359C66.7737 1.91682 66.4376 2.51923 66.1658 3.52085C66.0371 4.00713 66.0156 4.2902 66.0156 5.3281C66.0156 6.37326 66.0371 6.64906 66.1658 7.13535C66.645 8.88454 67.7607 10.0749 69.327 10.4958C70.0208 10.6773 71.208 10.6628 71.9375 10.4523C72.9531 10.1692 73.9258 9.4289 74.4264 8.55793C75.442 6.78697 75.4277 3.81843 74.3978 2.04746C73.6326 0.741012 72.2022 -0.0138254 70.5071 0.000690716C70.1567 0.000690716 69.6632 0.0514971 69.42 0.102303ZM71.1866 1.23456C72.0591 1.37246 72.7958 1.84424 73.2249 2.54101C73.325 2.69343 73.4895 3.0781 73.5968 3.38294C73.7828 3.92004 73.7971 4.01439 73.7971 5.29181C73.7899 6.54745 73.7828 6.67084 73.604 7.19342C73.1319 8.62325 72.288 9.32003 70.9362 9.40712C69.6989 9.49422 68.6762 9.02245 68.0397 8.09342C67.1313 6.74342 67.1242 3.9781 68.0254 2.56278C68.4759 1.85149 69.0624 1.43778 69.8563 1.26359C70.3998 1.1402 70.6072 1.1402 71.1866 1.23456Z" fill="white"/>
<path d="M18 5.30745V10.6218H19.0796H20.1592V8.95924V7.30406L21.2964 7.25952C22.0881 7.22983 22.5919 7.17046 22.9878 7.06654C24.4344 6.67316 25.3485 5.77506 25.6292 4.45388C25.7659 3.83783 25.6868 2.60572 25.4852 2.06389C25.2693 1.47753 24.6719 0.816942 24.0962 0.527471C23.2037 0.0821311 23.0094 0.0598641 20.3967 0.0227525L18 0.000485497V5.30745ZM22.3616 2.08616C23.0022 2.27172 23.4628 2.89519 23.47 3.57805C23.47 4.27575 23.2037 4.73593 22.6063 5.04025C22.2392 5.22581 22.1313 5.24065 21.1524 5.26292L20.0872 5.29261V3.66712C20.0872 2.76901 20.1088 2.01194 20.1448 1.98225C20.2168 1.9006 22.0017 1.98967 22.3616 2.08616Z" fill="white"/>
<path d="M51.516 1.27802C51.2542 1.98363 50.3669 4.36044 49.5451 6.56641C48.7232 8.76496 48.0469 10.5773 48.0469 10.5921C48.0469 10.6144 48.3305 10.6144 48.6796 10.607L49.3123 10.5847L49.7705 9.32202C50.0178 8.62384 50.2578 7.98507 50.2942 7.88851L50.3742 7.72511H52.5705H54.7742L55.3124 9.17347L55.8578 10.6218H56.5342H57.2105L57.0796 10.2653C57.0069 10.0722 56.1342 7.68797 55.1378 4.96207L53.3196 0.000485088H52.6578H51.996L51.516 1.27802ZM52.6942 1.76081C52.8833 2.25102 54.3014 6.39558 54.3014 6.46243C54.3014 6.50699 53.6323 6.5367 52.5123 6.5367C51.1087 6.5367 50.7305 6.51442 50.7596 6.44015C50.8032 6.32131 52.3378 2.0282 52.4251 1.76081C52.4687 1.64939 52.5196 1.56026 52.556 1.56026C52.5851 1.56026 52.6433 1.64939 52.6942 1.76081Z" fill="white"/>
<path d="M57.2109 0.594687V1.18889L58.7269 1.20374L60.2358 1.22603L60.2572 5.92022L60.2714 10.6218H60.8764H61.4814L61.4956 5.92022L61.517 1.22603L63.033 1.20374L64.5419 1.18889V0.594687V0.000485088H60.8764H57.2109V0.594687Z" fill="white"/>
<path d="M78.2256 0.282323C78.2038 0.438195 78.1675 0.816742 78.1457 1.12106C78.1239 1.42539 78.0731 2.04145 78.0295 2.49422C77.8551 4.47603 77.3828 10.2804 77.3828 10.4437C77.3828 10.6144 77.3973 10.6218 78.0004 10.6218H78.6107L78.6471 10.3769C78.6689 10.2507 78.8069 8.65488 78.945 6.83637C79.301 2.33093 79.2864 2.45711 79.3373 2.45711C79.3664 2.45711 79.6788 3.37008 80.0276 4.47603C80.3763 5.5894 80.9576 7.43017 81.3136 8.56581L81.9675 10.6218H82.6432H83.3117L84.5759 6.66566C85.7239 3.05833 86.0146 2.21217 86.0291 2.42C86.0291 2.45711 86.1744 4.29789 86.3561 6.50236C86.5377 8.70684 86.683 10.5328 86.683 10.5625C86.683 10.5996 86.9809 10.6218 87.3442 10.6218H88.0127L87.9618 10.2656C87.9182 9.96124 87.6058 6.3168 87.228 1.71486C87.0681 -0.207561 87.1916 0.00769141 86.2471 0.00769141H85.4551L85.2662 0.653447C84.4088 3.54079 82.745 8.9592 82.6941 9.01116C82.665 9.04085 82.5343 8.72168 82.4035 8.30603C82.2727 7.88294 81.7278 6.10155 81.1901 4.34984C80.6524 2.59071 80.1293 0.898389 80.0276 0.579222L79.8386 0.00769141H79.0539H78.2692L78.2256 0.282323Z" fill="white"/>
<path d="M5.16559 0.0093679C4.17131 0.0897399 3.2873 0.398144 2.45562 0.958879C2.05567 1.22803 1.87999 1.36822 1.58843 1.65045C1.14362 2.08222 0.74367 2.64856 0.495101 3.19621L0.429688 3.34013L0.508183 3.3607C1.57535 3.62237 2.44628 4.38684 2.82941 5.39803C2.85931 5.47467 2.88548 5.54196 2.88922 5.54569C2.89669 5.55691 3.00883 5.46719 3.10788 5.36813C3.39009 5.08402 3.62184 4.66534 3.80126 4.10834C3.89097 3.83358 4.03301 3.47471 4.12833 3.28593C4.51893 2.50838 5.05906 1.93269 5.68889 1.62055L5.84962 1.54017L5.93372 1.62429C6.17669 1.85979 6.49815 2.31586 6.69625 2.70277L6.8196 2.94575L7.01024 2.97005C7.27376 3.00369 7.7765 2.99996 7.98769 2.96257C8.61192 2.85043 9.167 2.56819 9.62115 2.13455L9.7987 1.96446L9.68843 1.83736C9.49593 1.62055 9.15578 1.30654 8.90347 1.11775C8.05497 0.480385 7.09247 0.1103 6.03465 0.0149753C5.83841 -0.0018468 5.34501 -0.00558503 5.16559 0.0093679Z" fill="white"/>
<path d="M9.87669 2.2241C9.81502 2.31007 9.4637 2.60535 9.27122 2.73057C8.84701 3.01091 8.33685 3.19219 7.81734 3.24826C7.56506 3.27629 7.3651 3.27442 7.08293 3.23891C6.94838 3.22209 6.81943 3.20714 6.79327 3.20527L6.74655 3.2034V3.3903C6.74842 3.59961 6.77272 3.69306 6.89045 3.93041C6.99136 4.13412 7.12217 4.31354 7.40622 4.63686C7.67158 4.93962 7.86779 5.19005 8.03972 5.44609C8.52185 6.16189 8.80029 6.93561 8.79095 7.53927C8.78721 7.76167 8.79095 7.75793 8.57792 7.80466C8.22286 7.88502 7.9631 7.90745 7.50713 7.89997C7.10161 7.89436 7.08106 7.89623 7.04929 7.93174C6.9353 8.05883 6.71665 8.39523 6.62322 8.58586C6.27189 9.30726 6.20462 10.0548 6.41952 10.8566C6.44008 10.9351 6.44195 10.9351 6.50922 10.922C7.64542 10.7202 8.74797 10.1109 9.53284 9.25493C10.4896 8.20834 10.9979 6.91319 10.9979 5.52085C10.9979 4.56771 10.8185 3.75286 10.4467 3.0053C10.2841 2.68011 9.99629 2.21475 9.93275 2.1755C9.92341 2.1699 9.89911 2.19233 9.87669 2.2241Z" fill="white"/>
<path d="M0.262353 3.79575C0.0848228 4.34147 -0.0179578 5.05352 0.00259835 5.57682C0.0437106 6.56921 0.303465 7.45694 0.794943 8.28113C1.30698 9.14083 2.06755 9.85849 2.95894 10.3257C3.91386 10.8285 4.94728 11.0602 5.9022 10.9892C6.06104 10.9761 6.19185 10.9649 6.19372 10.963C6.19559 10.9611 6.17504 10.8658 6.14514 10.7537C6.01432 10.2454 6.01806 9.63235 6.15448 9.11279C6.27408 8.65304 6.51328 8.18768 6.80667 7.84194C6.90945 7.72233 6.91319 7.71298 6.88516 7.68121C6.84031 7.63075 6.65904 7.53917 6.53757 7.50366C6.23484 7.41396 5.90033 7.42704 5.29486 7.54852C4.78096 7.65318 4.52494 7.68308 4.05215 7.69242C3.31213 7.70924 2.75338 7.60832 2.28806 7.37658C2.13856 7.30182 1.94048 7.17847 1.94048 7.15978C1.94048 7.15418 1.95917 7.08503 1.97972 7.0084C2.07503 6.66639 2.29741 6.19917 2.52913 5.84594L2.66929 5.63662L2.58519 5.43665C2.27872 4.71151 1.748 4.14897 1.05283 3.80883C0.867824 3.71912 0.537057 3.60138 0.404377 3.57709L0.337102 3.56401L0.262353 3.79575Z" fill="white"/>
<path d="M5.25482 4.39829C4.85318 4.50856 4.52812 4.84496 4.43472 5.24865C4.3712 5.51403 4.41603 5.82988 4.54867 6.0691C4.65142 6.25412 4.85131 6.44288 5.04372 6.53446C5.23614 6.6279 5.35196 6.65407 5.54998 6.65407C6.28976 6.65407 6.83339 5.97939 6.67273 5.26173C6.57932 4.85057 6.28416 4.53472 5.87317 4.40951C5.72185 4.36279 5.40614 4.35718 5.25482 4.39829Z" fill="white"/>
</svg>
