<svg width="110" height="11" viewBox="0 0 110 11" fill="none" xmlns="http://www.w3.org/2000/svg">
<path d="M1.67033 1.16815C0.346663 2.42466 0.313444 2.45856 0.180566 2.70429C0.110294 2.83261 0.0591871 2.97908 0.0259676 3.13766C0.00808019 3.22481 0.00552484 3.60128 0.00169183 6.69173C-0.00214119 9.17086 0.000414154 10.1768 0.0106355 10.2506C0.0502434 10.5315 0.24445 10.7869 0.514039 10.9104C0.72741 11.0072 0.533204 11.0012 3.23037 11.0012C4.67286 11.0012 5.6324 10.9963 5.6324 10.9903C5.6324 10.9842 4.93606 10.3221 4.08386 9.51949L2.53532 8.06082L3.90882 6.76799C4.66392 6.05863 5.66817 5.11079 6.14091 4.66411L7.00078 3.85307L4.96034 1.92835C3.83854 0.869152 2.91734 0.00242332 2.91223 2.29577e-06C2.9084 -0.00120822 2.34878 0.524155 1.67033 1.16815ZM3.96503 9.51707C4.77636 10.2809 5.44075 10.9116 5.44075 10.9176C5.44075 10.9249 4.48505 10.9273 3.10005 10.9261C0.862843 10.9225 0.755519 10.9213 0.687802 10.9007C0.345386 10.7917 0.190787 10.471 0.336442 10.1707C0.368384 10.1066 0.483374 9.99401 1.42119 9.11033C1.99742 8.56681 2.47399 8.12255 2.48038 8.12376C2.48549 8.12498 3.15371 8.75202 3.96503 9.51707Z" fill="white"/>
<path d="M14 5.57466V10.0012H14.8149H15.6299L15.6346 8.4599L15.6415 6.92095L17.0852 6.90668C18.601 6.8924 18.6359 6.8924 19.0876 6.77585C20.0516 6.52848 20.7361 5.91956 21.0179 5.05375C21.1157 4.75642 21.1436 4.58992 21.1646 4.20934C21.2065 3.39349 20.9969 2.69893 20.5452 2.15424C20.1657 1.69992 19.4788 1.34551 18.7034 1.20755C18.5125 1.17425 18.1842 1.1695 16.2423 1.15998L14 1.15047V5.57466ZM18.3006 2.67753C19.0923 2.78932 19.5417 3.28169 19.5417 4.04284C19.5417 4.73977 19.1505 5.21073 18.4357 5.36772C18.2121 5.41767 18.1469 5.42005 16.9222 5.42243H15.6415L15.6346 4.03571L15.6299 2.65136H16.8733C17.637 2.65136 18.1888 2.66088 18.3006 2.67753Z" fill="white"/>
<path d="M25.8726 1.05971C23.9461 1.33126 22.5433 2.56123 22.1505 4.31513C21.979 5.08505 21.9821 5.85178 22.1536 6.61532C22.5277 8.27338 23.759 9.43625 25.5359 9.81323C25.8445 9.88032 25.9786 9.8899 26.5179 9.8899C27.0759 9.88671 27.1819 9.87713 27.5403 9.80045C28.4226 9.60877 29.1458 9.2286 29.7381 8.64716C30.4551 7.94752 30.8665 7.04661 30.9632 5.97638C31.0255 5.28632 30.9632 4.61224 30.7855 4.0276C30.5735 3.33435 30.293 2.86153 29.7942 2.35038C29.1707 1.71143 28.4693 1.33126 27.5559 1.13319C27.2504 1.0693 27.0634 1.05013 26.627 1.04054C26.3277 1.03415 25.9879 1.04054 25.8726 1.05971ZM27.1413 3.11711C27.6214 3.2417 28.0079 3.4877 28.3353 3.87745C29.0304 4.71127 29.046 6.15209 28.3633 7.01147C27.8988 7.5961 27.2723 7.89321 26.5054 7.89321C25.4081 7.89321 24.5508 7.24468 24.2391 6.18403C24.1674 5.93165 24.1549 5.8422 24.1549 5.46522C24.1549 5.08825 24.1674 4.9988 24.2391 4.74641C24.4885 3.9062 25.0589 3.33435 25.8788 3.11391C26.2591 3.00849 26.733 3.01168 27.1413 3.11711Z" fill="white"/>
<path d="M35.6504 1.05542C35.3943 1.08416 34.801 1.24061 34.5418 1.34278C33.2615 1.85682 32.3715 2.88809 32.0062 4.27377L31.8906 4.72076V5.48703V6.2533L32.003 6.68433C32.1342 7.1856 32.2841 7.54958 32.5152 7.92952C33.0991 8.89375 33.9829 9.51954 35.1664 9.80051C35.513 9.88352 35.5911 9.8899 36.1969 9.8899C36.8089 9.8899 36.8776 9.88671 37.2274 9.80051C38.3828 9.52273 39.1853 8.90652 39.8973 7.75392L39.9567 7.65814L39.3602 7.32289C39.0292 7.13771 38.6389 6.9206 38.4921 6.83759L38.2204 6.68752L38.0768 6.88867C37.8769 7.16644 37.5365 7.48572 37.293 7.62621C36.9651 7.81139 36.7496 7.86886 36.2906 7.88802C35.9408 7.90398 35.844 7.8944 35.6192 7.83693C34.7854 7.62302 34.2233 6.99403 34.0391 6.07131C33.9579 5.66583 33.9891 4.9666 34.1015 4.62497C34.2452 4.19395 34.3919 3.9481 34.6667 3.66713C34.9603 3.36701 35.2288 3.21056 35.6161 3.10839C35.9627 3.0158 36.5216 3.02857 36.837 3.14032C37.2305 3.27442 37.6552 3.60966 37.9675 4.02473C38.0237 4.10136 38.0799 4.16202 38.0924 4.16202C38.1111 4.16202 39.2822 3.48514 39.8411 3.1499C39.8723 3.13394 39.7349 2.85616 39.5788 2.6199C38.9074 1.60458 37.6552 1.02349 36.1813 1.03946C35.9502 1.04265 35.7097 1.04904 35.6504 1.05542Z" fill="white"/>
<path d="M54.3809 1.0458C53.5857 1.17333 52.9991 1.39969 52.4306 1.80141C52.1222 2.01821 51.6052 2.57296 51.3905 2.91409C51.1546 3.2903 50.943 3.80042 50.825 4.26271C50.7343 4.61979 50.7283 4.68993 50.7132 5.29888C50.7071 5.71016 50.7132 6.04492 50.7343 6.19158C50.8341 6.87385 51.1304 7.63903 51.4963 8.16827C52.2583 9.26501 53.4708 9.8899 54.8284 9.8899C56.1014 9.88672 57.0629 9.49138 57.8098 8.66244C58.0608 8.38188 58.4297 7.8367 58.4085 7.77293C58.4024 7.7538 58.0487 7.55294 57.6193 7.32339L56.8392 6.90893L56.7001 7.08428C56.2012 7.71554 55.79 7.96422 55.1247 8.04074C54.133 8.15552 53.3045 7.72511 52.8872 6.87704C52.7904 6.68256 52.6423 6.17245 52.6423 6.04173V5.9684L55.7053 5.96203L58.7653 5.95246L58.7744 5.60176C58.8379 3.2648 57.7433 1.61012 55.8172 1.13188C55.5602 1.06812 55.3999 1.05218 54.9857 1.04261C54.7045 1.03624 54.4323 1.03943 54.3809 1.0458ZM55.5148 2.74831C55.9472 2.87902 56.3312 3.16596 56.5852 3.55493C56.685 3.71115 56.8755 4.19257 56.8755 4.29459C56.8755 4.33604 56.6033 4.34241 54.774 4.34241C53.6189 4.34241 52.6725 4.33923 52.6725 4.33285C52.6725 4.27865 52.8358 3.90563 52.9235 3.76535C53.2561 3.21697 53.7822 2.82801 54.3628 2.6973C54.644 2.63672 55.2185 2.66223 55.5148 2.74831Z" fill="white"/>
<path d="M73.2018 1.05626C72.2199 1.18395 71.3801 1.60534 70.7215 2.29487C69.93 3.12806 69.5312 4.18791 69.5312 5.47122C69.5312 6.03306 69.5735 6.36506 69.7125 6.86944C69.9028 7.55898 70.22 8.12083 70.7215 8.65075C71.3046 9.27006 71.9148 9.62121 72.7607 9.82233C73.0084 9.88298 73.1413 9.89256 73.6851 9.88936C74.2228 9.88936 74.3679 9.8766 74.6367 9.81913C75.2077 9.68825 75.6246 9.51267 76.0415 9.22217C76.41 8.96679 76.9417 8.35706 77.1985 7.89737L77.271 7.77287L76.4674 7.34829L75.6639 6.92371L75.5702 7.05141C75.5158 7.12164 75.3587 7.29721 75.2198 7.44087C74.7787 7.89737 74.3527 8.06656 73.6398 8.06337C73.3558 8.06337 73.2048 8.04741 73.0326 7.99952C72.2683 7.78244 71.7366 7.20783 71.5372 6.37783C71.4979 6.20864 71.4647 6.04902 71.4647 6.02668C71.4647 5.98837 71.9541 5.98198 74.531 5.98198H77.5973V5.49356C77.5973 4.90618 77.561 4.54864 77.4553 4.08576C77.2076 2.97803 76.5853 2.09376 75.6639 1.5383C75.3044 1.32122 74.7636 1.13926 74.2651 1.06903C74.0446 1.03711 73.4072 1.02753 73.2018 1.05626ZM74.2893 2.7418C74.7213 2.85991 75.0899 3.1121 75.3346 3.45368C75.4826 3.65799 75.6548 4.05383 75.685 4.24537L75.7031 4.35391H73.5975H71.4949L71.5583 4.18472C71.8544 3.38664 72.519 2.81841 73.3226 2.68114C73.4918 2.65241 74.108 2.69072 74.2893 2.7418Z" fill="white"/>
<path d="M91.3857 1.04483C90.5806 1.15667 89.8566 1.4187 89.2792 1.80855C88.2743 2.49238 87.6595 3.50854 87.5004 4.75477C87.3475 5.9371 87.569 7.08428 88.1152 7.93108C88.7456 8.90889 89.6756 9.53521 90.9051 9.80363C91.2703 9.88351 91.367 9.8899 91.9475 9.8899C92.4905 9.8899 92.6372 9.87712 92.9149 9.81641C95.1182 9.33389 96.4164 7.72657 96.4164 5.46737C96.4164 3.21136 95.1182 1.59445 92.9305 1.12152C92.6996 1.07039 92.4749 1.05122 92.0567 1.04163C91.7477 1.03524 91.445 1.03844 91.3857 1.04483ZM92.6496 3.13467C93.0491 3.26249 93.3424 3.44463 93.6171 3.72583C94.0821 4.20196 94.2943 4.74519 94.2943 5.46737C94.2974 6.17676 94.0821 6.73277 93.6171 7.2089C93.1895 7.64668 92.7027 7.85758 92.0505 7.88634C91.729 7.90232 91.6229 7.89273 91.3701 7.83202C90.515 7.6307 89.9034 7.03634 89.6631 6.17996C89.5601 5.81567 89.5601 5.11267 89.6631 4.75477C89.8971 3.91756 90.4776 3.33918 91.3015 3.1155C91.5543 3.04839 91.6385 3.0388 92.0099 3.05159C92.3344 3.06117 92.4811 3.08035 92.6496 3.13467Z" fill="white"/>
<path d="M40.8984 2.13859V3.12771H42.466H44.0336V6.56447V10.0012H45.3801H46.7266V6.56447V3.12771H48.2941H49.8617V2.13859V1.14948H45.3801H40.8984V2.13859Z" fill="white"/>
<path d="M61.694 1.20589C61.687 1.23907 61.659 1.53439 61.6379 1.8629C61.6169 2.1914 61.5433 3.12383 61.4802 3.9368C61.4137 4.74976 61.3436 5.64237 61.3225 5.92442C61.2314 7.13558 61.0457 7.61009 60.6216 7.71959C60.4815 7.75609 60.0364 7.73618 59.7806 7.67977C59.735 7.66981 59.728 7.8125 59.721 8.76483C59.714 9.36543 59.7245 9.87976 59.7385 9.89967C59.7806 9.96272 60.4184 10.0191 60.8074 9.9959C61.5363 9.94944 61.9989 9.76694 62.4265 9.36211C62.7489 9.05684 62.9556 8.71838 63.1379 8.18414C63.3131 7.67313 63.4638 6.75066 63.5129 5.87797C63.5479 5.28068 63.7056 3.22669 63.7231 3.18024C63.7372 3.14706 64.0175 3.14042 65.0443 3.14706L66.3515 3.15701L66.362 6.51507L66.369 9.87644H67.5255H68.682V5.51296V1.14948H65.1985C61.9078 1.14948 61.7115 1.15279 61.694 1.20589Z" fill="white"/>
<path d="M78.5515 1.18971C78.5404 1.21318 78.5368 3.20147 78.5404 5.60888L78.5515 9.98447L79.7806 9.99453L81.0061 10.0012V8.18729C81.0061 7.19147 81.0208 6.38006 81.0356 6.38676C81.0541 6.39012 81.449 6.78912 81.9104 7.26859C82.3755 7.74806 83.014 8.40523 83.3314 8.72712C83.6452 9.049 84.0512 9.46812 84.2357 9.65923L84.5679 10.0012H86.0333C86.8416 10.0012 87.5023 9.99117 87.5023 9.97441C87.5023 9.961 87.1664 9.60223 86.7567 9.17976C86.3433 8.75394 85.3246 7.70112 84.4867 6.83606L82.9623 5.26018L83.5972 4.67341C83.9478 4.34818 84.9407 3.43618 85.8044 2.64824C86.6682 1.8603 87.3805 1.19977 87.3842 1.18301C87.3916 1.16289 86.8638 1.14948 85.9595 1.14948H84.52L82.8516 2.67171C81.9362 3.50994 81.1611 4.22747 81.1279 4.26436C81.0983 4.30459 81.0614 4.33477 81.0393 4.33477C81.0208 4.33477 81.0061 3.71783 81.0061 2.74212V1.14948H79.788C78.8468 1.14948 78.5626 1.15953 78.5515 1.18971Z" fill="white"/>
<path d="M97.3594 5.57535V10.0012H98.5246H99.6898V7.23127L99.6935 4.46468L99.9411 5.00319C100.079 5.29937 100.374 5.94221 100.6 6.4336C100.826 6.92499 101.055 7.42312 101.11 7.54428C101.205 7.74959 101.878 9.21703 102.119 9.74881L102.228 9.9844L103.182 9.9945L104.136 10.0012L104.191 9.8767C104.223 9.80602 104.362 9.50648 104.496 9.2103C104.631 8.91412 104.901 8.32175 105.097 7.89768C105.29 7.47024 105.636 6.72305 105.858 6.23166C106.084 5.74027 106.357 5.14455 106.466 4.90895L106.663 4.47814L106.674 7.238L106.681 10.0012H107.846H109.012V5.57535V1.14948H107.42H105.825L105.673 1.51297C105.483 1.96061 104.784 3.60643 104.351 4.61613C104.176 5.03348 103.903 5.66959 103.75 6.02972C103.266 7.17742 103.207 7.30868 103.185 7.30868C103.164 7.30868 103.084 7.1303 102.439 5.60901C102.264 5.20176 102.017 4.6195 101.886 4.31322C101.754 4.00694 101.438 3.2564 101.179 2.64721C100.921 2.03465 100.669 1.45239 100.626 1.35142L100.542 1.1663L98.9506 1.15621L97.3594 1.14948V5.57535Z" fill="white"/>
</svg>
