<svg width="60" height="11" viewBox="0 0 60 11" fill="none" xmlns="http://www.w3.org/2000/svg">
<path d="M5.30396 0.00222916C5.25166 0.00495909 5.13054 0.0131489 5.03558 0.0213386C2.84858 0.200149 0.969889 1.6825 0.274842 3.77499C-0.0224463 4.66904 -0.0802522 5.65591 0.109682 6.59909C0.395959 8.02139 1.24378 9.27306 2.4756 10.0907C3.04815 10.4701 3.73769 10.754 4.40246 10.8864C5.11678 11.0284 5.72374 11.038 6.42567 10.9192C8.16398 10.6244 9.6573 9.51329 10.4377 7.9313C10.779 7.24063 10.9511 6.57999 10.9978 5.78421C11.0157 5.46208 10.9992 5.05396 10.9538 4.73729C10.9387 4.63218 10.9263 4.5421 10.9263 4.53664C10.9263 4.53118 10.9208 4.52572 10.9125 4.52572C10.9056 4.52572 10.6359 4.71954 10.3138 4.95704L9.72887 5.38837V5.57674C9.72887 6.39435 9.44397 7.25701 8.94161 7.95723C8.7269 8.25616 8.42548 8.5742 8.14471 8.79805C7.17577 9.57062 5.93157 9.8791 4.70526 9.65115C3.38535 9.40546 2.20171 8.47455 1.65117 7.24882C1.36765 6.61547 1.24791 5.99578 1.27956 5.31057C1.30159 4.80144 1.40756 4.3278 1.60025 3.86371C1.73513 3.54294 1.98287 3.12799 2.20859 2.84681C2.32971 2.69667 2.72471 2.30356 2.87473 2.18617C3.52574 1.67567 4.29098 1.36856 5.11403 1.28939C5.35076 1.26618 5.88753 1.2812 6.12288 1.31669C6.69819 1.40405 7.25009 1.60743 7.74145 1.91318C7.81852 1.96095 7.88596 2.00053 7.89147 2.00053C7.90248 2.00053 8.94161 1.23889 8.95124 1.22387C8.95812 1.21159 8.70901 1.02459 8.5177 0.89901C7.76897 0.404893 6.91152 0.107331 5.99213 0.0213386C5.82009 0.00495909 5.4471 -0.00459565 5.30396 0.00222916Z" fill="white"/>
<path d="M9.82155 2.16282C9.80641 2.17646 9.53117 2.38119 9.20915 2.6173C8.744 2.9585 6.86277 4.34242 5.69577 5.20225L5.50585 5.34282L5.30356 5.2159C4.28656 4.57716 3.43471 4.04489 3.42645 4.04352C3.42094 4.04216 3.41544 4.39428 3.41544 4.82556L3.41406 5.61033L4.45032 6.26134C5.02006 6.61892 5.49347 6.91235 5.5031 6.91235C5.51273 6.91372 5.70402 6.77724 5.92972 6.61073C6.42239 6.24769 6.16367 6.43877 8.54858 4.68225C9.62751 3.8893 10.5124 3.23692 10.5165 3.23283C10.5275 3.22327 10.3445 2.86979 10.2206 2.6637C10.0995 2.46307 9.87522 2.13688 9.85733 2.13688C9.85182 2.13688 9.83669 2.1478 9.82155 2.16282Z" fill="white"/>
<path d="M23.1186 0.0117874C21.3025 0.174277 19.7646 1.04015 18.8722 2.40017C18.4382 3.06348 18.1511 3.85812 18.0309 4.73735C17.9819 5.08459 17.9931 5.90817 18.0509 6.28434C18.2178 7.37057 18.6162 8.27651 19.2706 9.05557C20.5681 10.6003 22.7069 11.2926 24.9303 10.8875C25.7293 10.7428 26.5772 10.3733 27.1915 9.90141C27.4096 9.73447 27.7857 9.39168 27.7768 9.3672C27.7724 9.35607 27.4385 9.10231 27.0313 8.80182L26.2923 8.25648L25.9518 8.44345C25.1907 8.85969 24.5586 9.03331 23.8086 9.03331C22.1928 9.03331 20.8886 8.14741 20.4034 6.71839C20.252 6.27321 20.2276 6.10404 20.2276 5.49415C20.2276 4.90429 20.2498 4.73067 20.3834 4.32333C20.7484 3.19926 21.6342 2.37345 22.7848 2.07964C23.4814 1.89934 24.296 1.91715 24.9236 2.12416C25.1417 2.19538 25.5935 2.41129 25.7538 2.52036C25.8205 2.56488 25.8873 2.59827 25.9029 2.59159C25.9318 2.58046 27.4586 1.45861 27.512 1.40965C27.5365 1.38516 27.5053 1.35177 27.3339 1.20709C26.5461 0.552678 25.5713 0.15647 24.4317 0.0295945C24.1691 0.000657928 23.3701 -0.0104715 23.1186 0.0117874Z" fill="white"/>
<path d="M29.5859 5.50062V11.0012H32.2492C33.7952 11.0012 35.0196 10.9921 35.1724 10.9784C35.9522 10.9122 36.5359 10.7639 37.0991 10.4877C38.0294 10.0335 38.5858 9.32366 38.8024 8.31711C38.848 8.09572 38.8549 8.01127 38.8549 7.53196C38.8526 7.06863 38.8458 6.96593 38.8047 6.7742C38.6702 6.17165 38.4536 5.75625 38.075 5.36139C37.5004 4.7634 36.6454 4.41875 35.4916 4.31376C35.3411 4.30007 34.5362 4.29094 33.5945 4.29094H31.9573V3.05843V1.82593H34.2557H36.5519L37.7718 0.922094C38.4422 0.424528 38.9962 0.0136939 39.0008 0.00912911C39.0054 0.00456428 36.8894 -5.42961e-07 34.2991 -5.42961e-07H29.5859V5.50062ZM35.1496 6.16936C35.6444 6.25153 35.9841 6.40445 36.2349 6.65323C36.5108 6.92712 36.6271 7.26492 36.6043 7.73738C36.5656 8.51797 36.105 8.95619 35.145 9.12052C34.9694 9.15248 34.6776 9.15932 33.4463 9.16845L31.9573 9.17758V7.64608V6.1123L33.4463 6.12371C34.673 6.13056 34.9717 6.13969 35.1496 6.16936Z" fill="white"/>
<path d="M40.8125 5.50062V11.0012H44.9768H49.141V10.0883V9.1753H46.1744C44.5408 9.1753 43.2009 9.17074 43.1963 9.16617C43.1918 9.16161 43.1895 8.52481 43.194 7.75108L43.1986 6.34511H45.7339H48.2692V5.43214V4.51918H45.7385C44.3458 4.51918 43.2009 4.51461 43.1963 4.51005C43.1918 4.50548 43.1895 3.89836 43.194 3.16342L43.1986 1.82593H44.9309H46.6608L47.8608 0.944919C48.5216 0.458765 49.0768 0.0479301 49.0952 0.0319532C49.1227 0.00456428 48.4894 -5.42961e-07 44.9699 -5.42961e-07H40.8125V5.50062Z" fill="white"/>
<path d="M50.9531 0.0069429C50.9531 0.0137929 50.9531 2.48665 50.9531 5.50295V10.9898L52.1149 10.9967L53.2767 11.0012V9.44856V7.89589H54.3098C55.4175 7.89589 56.0468 7.87077 56.4168 7.81597C57.9891 7.57622 59.1419 6.80445 59.6697 5.63081C59.8976 5.12619 60.0059 4.58276 60.0059 3.94571C60.0081 3.08945 59.8254 2.41587 59.4284 1.80393C58.8058 0.842646 57.8019 0.271811 56.3446 0.0503264C56.1123 0.0137929 55.8077 0.00922624 53.5203 0.00237622C52.1081 -0.00219046 50.9531 9.28766e-05 50.9531 0.0069429ZM55.7152 1.84503C56.6762 1.94093 57.3034 2.38162 57.5515 3.13055C57.7139 3.62376 57.7094 4.28364 57.5425 4.77456C57.3462 5.3454 56.8973 5.75411 56.2747 5.93221C55.9183 6.03268 55.7265 6.04638 54.4677 6.04638H53.2767V3.95027C53.2767 2.79719 53.2834 1.84503 53.2924 1.83818C53.315 1.81307 55.4603 1.81992 55.7152 1.84503Z" fill="white"/>
</svg>
