<svg width="54" height="15" viewBox="0 0 54 15" fill="none" xmlns="http://www.w3.org/2000/svg">
<path d="M0.00808331 0.0326329C0.000898145 0.0495386 -0.00149691 3.42101 0.000898145 7.52668L0.00808331 14.9893H4.88202H9.75356L9.80146 14.8323C9.82541 14.7454 9.84936 14.6729 9.85175 14.6681C9.85654 14.6633 9.95953 14.6971 10.0841 14.743C10.3523 14.8444 10.6661 14.9145 11.0373 14.9579C11.2577 14.9821 12.9174 14.9893 19.408 14.9893H27.5009L27.556 14.6633C27.5847 14.4846 27.6159 14.3034 27.6231 14.26L27.6374 14.1827L27.7859 14.2865C28.1308 14.5305 28.5523 14.7116 29.0361 14.8275C29.3978 14.9145 29.5894 14.9434 30.0157 14.9772C30.4396 15.0111 49.0205 15.0086 49.5091 14.9772C50.6347 14.9 51.4491 14.5908 52.0478 14.0136C52.5172 13.5596 52.8286 12.9558 53.0106 12.1347C53.0729 11.8545 53.8968 6.74902 53.971 6.18147C54.0213 5.79022 54.0046 5.21301 53.9327 4.87007C53.7076 3.80018 53.0753 2.9863 52.0766 2.48396C51.2694 2.07822 50.0815 1.94056 48.9151 2.11928C48.4241 2.19414 47.9642 2.33663 47.5475 2.54192C47.4158 2.60713 47.3008 2.66026 47.2912 2.66026C47.2841 2.66026 47.205 2.61679 47.114 2.56607C46.9104 2.44531 46.4649 2.27143 46.1967 2.2038C45.7057 2.08305 45.0495 2.01784 44.58 2.04199C43.6891 2.09029 43.052 2.24003 42.446 2.5395L42.1538 2.68199L41.8832 2.5395C41.4329 2.30524 40.8797 2.14343 40.324 2.08305C40.1947 2.06856 39.9025 2.05648 39.6702 2.05648C39.3325 2.05648 39.251 2.04924 39.251 2.02267C39.251 1.99611 39.5121 0.310369 39.5504 0.0809348L39.5648 0.00365172H35.8812C33.6538 0.00365172 32.0659 0.0133121 31.8623 0.0278027C31.1941 0.0761046 30.6408 0.225841 30.0421 0.520482C29.8984 0.592935 29.7738 0.646067 29.769 0.641237C29.7642 0.636407 29.7762 0.503577 29.7978 0.34901C29.8217 0.192029 29.8385 0.0495386 29.8385 0.0326329C29.8385 -0.0108389 18.5626 -0.0108389 18.5458 0.0326329C18.5386 0.0495386 18.4644 0.515652 18.3781 1.06629C18.2919 1.61694 18.2177 2.08305 18.2105 2.09754C18.2033 2.12169 17.7219 2.12894 15.9232 2.12894C14.1197 2.12894 13.6479 2.12169 13.6479 2.09754C13.6479 2.08305 13.7868 1.61211 13.9545 1.05422C14.1245 0.496331 14.2587 0.0326329 14.2539 0.0205574C14.2491 0.010897 11.0421 0.00365172 7.13097 0.00365172C1.46428 0.00365172 0.0152685 0.010897 0.00808331 0.0326329ZM13.1354 0.889992C13.1282 0.914143 12.9917 1.36818 12.8336 1.8995C12.6755 2.43082 12.539 2.88486 12.5318 2.90901C12.5198 2.94765 12.6779 2.95007 15.722 2.94524L18.9266 2.93799L19.0895 1.91158C19.1781 1.34645 19.2499 0.877917 19.2499 0.865841C19.2523 0.856181 21.4199 0.848935 24.0664 0.848935C27.9009 0.848935 28.8805 0.856181 28.8805 0.877917C28.8805 0.894822 28.8158 1.3392 28.7391 1.86328C28.6625 2.38735 28.6026 2.82207 28.605 2.82448C28.6098 2.82931 28.6505 2.79309 28.696 2.73996C28.7391 2.68924 28.9068 2.50086 29.0673 2.31731C29.7259 1.56863 30.4444 1.13875 31.3833 0.928634L31.6707 0.863426L35.1268 0.856181C38.02 0.848935 38.5804 0.853766 38.5804 0.880332C38.5804 0.897237 38.5062 1.39233 38.4128 1.98162C38.3218 2.56848 38.2451 3.0515 38.2451 3.05633C38.2451 3.06116 38.3337 3.04667 38.4439 3.02252C38.8822 2.9235 39.1816 2.89211 39.6702 2.89211C40.3144 2.89211 40.736 2.96214 41.203 3.14811C41.5096 3.26886 41.6557 3.35097 41.9215 3.55384L42.1395 3.71565L42.3287 3.57558C42.7742 3.24713 43.3011 3.04426 43.9837 2.93316C44.1801 2.90177 44.3836 2.88969 44.8195 2.89211C45.3153 2.89211 45.4327 2.89935 45.6698 2.94524C46.3212 3.07565 46.7619 3.26886 47.1499 3.5949L47.2745 3.70358L47.4373 3.58041C47.8708 3.25679 48.4217 3.04426 49.1091 2.93316C49.4324 2.88003 50.3689 2.8752 50.6635 2.9235C51.3101 3.02735 51.8203 3.23505 52.2131 3.55143C52.9076 4.1069 53.2358 4.92562 53.1615 5.90856C53.1424 6.17422 52.3161 11.4005 52.2179 11.8835C52.1125 12.3955 51.9688 12.7843 51.7748 13.0717C51.3652 13.6828 50.697 14.0233 49.6887 14.132C49.363 14.1658 30.3151 14.1658 29.9343 14.1295C29.4146 14.0837 28.8637 13.9436 28.5332 13.7769C27.9679 13.4895 27.4746 12.8834 27.2303 12.1757C27.1991 12.0888 27.1704 12.0018 27.1632 11.9825C27.1536 11.956 26.8063 14.0112 26.7968 14.1392C26.7968 14.1489 23.312 14.1537 19.0536 14.1489L11.3127 14.1416L11.0493 14.0885C10.3619 13.9532 9.88529 13.7383 9.54758 13.4147C9.38472 13.2577 9.42304 13.2118 9.25299 13.7769L9.13803 14.1561H4.98501H0.834377V7.50253V0.848935H6.99206C12.8432 0.848935 13.1473 0.85135 13.1354 0.889992Z" fill="white"/>
<path d="M31.7453 2.13222C30.8759 2.21192 30.2388 2.56935 29.8915 3.1683C29.6975 3.49917 29.7071 3.45811 29.0724 7.41162C28.7107 9.66974 28.4784 11.1961 28.4712 11.3434C28.4497 11.8095 28.567 12.1404 28.8545 12.4278C29.1203 12.6959 29.4748 12.848 30.0089 12.9253C30.2244 12.9543 30.9429 12.9543 31.1585 12.9253C31.7597 12.8383 32.265 12.5799 32.5764 12.2032C32.7297 12.0148 32.8973 11.6839 32.9644 11.4279C32.9907 11.3289 33.1057 10.6865 33.2182 10.003C33.3308 9.31955 33.4266 8.73509 33.4338 8.7037L33.4458 8.65057H32.5141H31.58L31.5657 8.72785C31.5585 8.77132 31.4603 9.38958 31.3501 10.0996C31.2375 10.8097 31.1345 11.4231 31.1178 11.4617C31.0459 11.6453 30.8974 11.7443 30.7034 11.7443C30.4711 11.7443 30.3562 11.6356 30.3562 11.4134C30.3562 11.2903 31.568 3.68271 31.6016 3.59335C31.6351 3.504 31.7501 3.38083 31.8339 3.34701C31.9393 3.30113 32.1141 3.30354 32.2147 3.35184C32.3177 3.40256 32.368 3.49434 32.368 3.63683C32.368 3.72377 32.071 5.62445 32.0183 5.88045L32.0039 5.94566L32.9332 5.94083L33.8625 5.93358L34.0254 4.93132C34.1547 4.11985 34.1858 3.87592 34.1882 3.65132C34.1882 3.18279 34.0948 2.92679 33.8194 2.64664C33.6853 2.50898 33.6015 2.45101 33.4218 2.36407C32.9859 2.15154 32.4039 2.06943 31.7453 2.13222Z" fill="white"/>
<path d="M2.15625 7.50259V12.8279H3.12146H4.08427L4.95607 9.88629C5.43747 8.27059 5.84463 6.8964 5.8614 6.8312C5.89014 6.73701 5.90451 6.71769 5.95481 6.71769C5.98594 6.71769 6.01229 6.7201 6.01229 6.72252C6.01947 6.79739 6.10809 12.1203 6.10809 12.4125V12.8279L7.08048 12.8231L8.05287 12.8158L9.67432 7.50259L11.2958 2.18938L10.3881 2.18214C9.88748 2.17972 9.47314 2.18214 9.46595 2.18938C9.45877 2.19663 9.08035 3.41142 8.6229 4.88704C7.82055 7.4881 7.79181 7.57505 7.73433 7.57505H7.67685L7.68643 4.87497L7.69601 2.17731L6.68051 2.18214L5.6674 2.18938L4.87464 4.88221C4.08666 7.56056 4.08187 7.57505 4.01721 7.58229L3.95254 7.58954V4.88463V2.17731H3.0544H2.15625V7.50259Z" fill="white"/>
<path d="M20.3677 2.23096C20.3557 2.26961 18.7031 12.8043 18.7031 12.8453C18.7031 12.8695 18.9019 12.8767 19.6132 12.8767H20.5234L20.5353 12.8212C20.5425 12.7922 20.9138 10.4375 21.3592 7.58765C21.8071 4.73783 22.1807 2.36138 22.1903 2.30342L22.2071 2.20198H21.2922C20.5832 2.20198 20.3749 2.20923 20.3677 2.23096Z" fill="white"/>
<path d="M25.4991 2.22391C25.4991 2.2384 25.4177 2.76248 25.3195 3.39282C25.2213 4.02316 25.1399 4.54724 25.1399 4.55448C25.1399 4.56173 25.0704 4.52067 24.9842 4.46029C24.5483 4.16082 23.7387 4.12459 23.2023 4.38059C22.8789 4.53516 22.6035 4.91191 22.4837 5.36595C22.4574 5.46497 22.2227 6.89471 21.964 8.5418C21.5473 11.1767 21.4922 11.5703 21.4922 11.8143C21.4922 12.0461 21.5018 12.1161 21.5473 12.2369C21.679 12.5774 21.8562 12.7441 22.2418 12.8817C22.4382 12.9542 23.0514 12.9711 23.31 12.9131C23.6597 12.8358 23.8513 12.7344 24.1244 12.4857C24.1986 12.4156 24.2657 12.3673 24.2705 12.3818C24.2752 12.3939 24.3423 12.5098 24.4189 12.6354L24.5555 12.8648L25.1087 12.8721L25.662 12.8769L25.6763 12.7996C25.6835 12.7561 26.0572 10.3821 26.505 7.52746C26.9529 4.67041 27.3265 2.30603 27.3337 2.26739L27.3481 2.20218H26.4236C25.8632 2.20218 25.4991 2.21184 25.4991 2.22391ZM24.7878 5.42392C24.9027 5.47222 24.953 5.54467 24.965 5.67267C24.9746 5.79101 24.1148 11.3047 24.0597 11.4713C24.0214 11.5897 23.904 11.7128 23.8034 11.7418C23.5711 11.8046 23.3891 11.737 23.3388 11.5679C23.3124 11.481 23.3531 11.2008 23.7603 8.61909C24.0357 6.87539 24.2273 5.7258 24.2537 5.66784C24.3495 5.44565 24.5866 5.33697 24.7878 5.42392Z" fill="white"/>
<path d="M34.3725 7.52244C33.9127 10.4471 33.5391 12.8477 33.5391 12.8574C33.5415 12.8695 33.951 12.8767 34.4516 12.8767H35.3617L35.3737 12.8212C35.3785 12.7922 35.7521 10.4254 36.2 7.5635C36.6478 4.70161 37.0215 2.32274 37.0287 2.27927L37.043 2.20198H36.1257H35.206L34.3725 7.52244Z" fill="white"/>
<path d="M18.7645 4.21956C18.4172 4.292 18.0844 4.46587 17.8377 4.70735L17.7275 4.81844L17.6222 4.65181C17.5647 4.56005 17.4929 4.44414 17.4617 4.39343L17.4066 4.30408L16.8534 4.30891L16.3003 4.31615L15.6345 8.5421C15.2705 10.8652 14.9711 12.7922 14.9711 12.8212L14.9688 12.8767H15.8788H16.7888L16.8008 12.8212C16.8056 12.7922 17.0331 11.3505 17.3037 9.61669C17.5743 7.88285 17.8114 6.40981 17.8305 6.34461C17.8976 6.10071 18.058 5.92684 18.2975 5.83508C18.4364 5.78195 18.9106 5.77954 19.1357 5.83266C19.2219 5.85198 19.2937 5.86647 19.2985 5.86164C19.3177 5.84474 19.5667 4.22197 19.5524 4.2099C19.5236 4.17851 18.9273 4.18575 18.7645 4.21956Z" fill="white"/>
<path d="M12.8744 4.23417C12.247 4.30661 11.7752 4.50463 11.4495 4.83304C11.2268 5.05762 11.0616 5.35464 10.9682 5.70721C10.9395 5.80622 10.7311 7.08607 10.4988 8.55429C10.0486 11.4255 10.0342 11.5463 10.118 11.8698C10.2593 12.4228 10.7167 12.7899 11.4136 12.913C11.689 12.9613 12.3572 12.9613 12.6853 12.9106C12.9607 12.8696 13.3462 12.7488 13.5115 12.6522C13.7054 12.5363 13.909 12.3673 14.0192 12.2297C14.17 12.0413 14.3305 11.7008 14.4023 11.4231C14.4335 11.2951 14.6442 10.0153 14.8717 8.57602C15.3291 5.66133 15.3387 5.57198 15.2333 5.2339C15.0537 4.64952 14.5795 4.32351 13.7797 4.23175C13.533 4.20519 13.1139 4.20519 12.8744 4.23417ZM13.4276 5.49953C13.4899 5.56715 13.5043 5.60337 13.5043 5.69272C13.5043 5.75309 13.3055 7.06676 13.0612 8.60983C12.7475 10.6045 12.6062 11.4448 12.5727 11.5173C12.4194 11.8433 11.9117 11.8481 11.8615 11.5221C11.8495 11.4424 12.7092 5.91488 12.7619 5.7217C12.7954 5.60579 12.9295 5.45365 13.0301 5.41984C13.0732 5.40536 13.1642 5.39811 13.2289 5.40294C13.3295 5.4126 13.3606 5.42709 13.4276 5.49953Z" fill="white"/>
<path d="M39.0766 4.24594C38.612 4.31839 38.3295 4.41981 38.0277 4.62266C37.6517 4.87621 37.3859 5.27466 37.2686 5.75279C37.2279 5.92183 37.0506 6.98435 37.0506 7.05921C37.0506 7.07129 37.4434 7.08095 37.9487 7.08095C38.648 7.08095 38.8515 7.0737 38.8587 7.04956C38.8635 7.03507 38.9138 6.73804 38.9665 6.39272C39.0215 6.0474 39.0766 5.72865 39.091 5.68518C39.1269 5.56927 39.2538 5.45094 39.3808 5.41472C39.6059 5.35193 39.7999 5.45818 39.8214 5.6562C39.831 5.74796 39.5867 7.42868 39.5604 7.45525C39.5556 7.46008 39.1389 7.68224 38.6312 7.9527C38.1235 8.22075 37.6493 8.48155 37.5775 8.52984C37.1153 8.8486 36.7944 9.28327 36.6459 9.79763C36.5789 10.0246 36.3562 11.4059 36.3394 11.6933C36.3154 12.1014 36.416 12.4056 36.6435 12.6206C36.8782 12.8427 37.2111 12.949 37.6805 12.949C38.2456 12.949 38.6144 12.8137 38.9641 12.4781L39.0982 12.3501L39.2538 12.6133L39.4095 12.8765L39.9603 12.8717L40.5111 12.8645L41.0571 9.4354C41.5337 6.43619 41.6031 5.96771 41.6055 5.7045C41.6103 5.47267 41.6007 5.36884 41.5672 5.25775C41.3948 4.6782 40.911 4.33046 40.1327 4.23145C39.8669 4.19765 39.3353 4.20489 39.0766 4.24594ZM39.3257 8.979C39.3257 9.02971 38.9377 11.3866 38.9186 11.459C38.8827 11.5822 38.7653 11.7102 38.6599 11.7416C38.3797 11.8188 38.1762 11.7029 38.1762 11.4687C38.1762 11.3335 38.4348 9.75899 38.4779 9.631C38.5426 9.44265 38.739 9.25429 39.0383 9.09733C39.285 8.96693 39.3257 8.95002 39.3257 8.979Z" fill="white"/>
<path d="M44.3513 4.22173C44.3178 4.22656 44.21 4.24346 44.1119 4.25795C43.2689 4.37628 42.7181 4.80612 42.4738 5.53539C42.4403 5.6344 42.3732 5.92901 42.323 6.1874C42.2415 6.60999 42.2319 6.69934 42.2319 7.04466C42.2319 7.47933 42.2679 7.64595 42.4283 7.95505C42.5552 8.19895 42.7253 8.37764 43.4317 9.01033C43.791 9.32909 44.1071 9.62852 44.1358 9.67682C44.1645 9.7227 44.1981 9.82895 44.2124 9.91347C44.234 10.0463 44.2244 10.1381 44.1286 10.7418C44.0688 11.1161 44.0041 11.4565 43.9849 11.5024C43.8915 11.7246 43.6497 11.8236 43.4293 11.7318C43.3407 11.6932 43.2857 11.6208 43.2665 11.5121C43.2593 11.471 43.3096 11.0847 43.3791 10.6476L43.5036 9.85793H42.6223C42.1386 9.85793 41.741 9.86759 41.741 9.87725C41.741 9.88933 41.6859 10.2226 41.6189 10.621C41.4872 11.4058 41.4776 11.6183 41.5638 11.9105C41.7243 12.4611 42.1936 12.8088 42.9432 12.9272C43.1827 12.9634 43.9227 12.9417 44.2316 12.8885C44.9931 12.7581 45.496 12.3742 45.7379 11.7415C45.8313 11.5024 45.86 11.3793 45.9702 10.7393C46.0444 10.3071 46.0588 10.1791 46.0588 9.87001C46.0588 9.5754 46.0492 9.47156 46.0085 9.3146C45.9415 9.0707 45.8193 8.81956 45.6876 8.65776C45.6302 8.59015 45.2685 8.25449 44.8806 7.91158C44.495 7.56868 44.1574 7.25717 44.1334 7.21611C44.028 7.04466 44.028 6.98912 44.1119 6.38058C44.155 6.06907 44.2005 5.77446 44.2148 5.72858C44.2819 5.47261 44.5621 5.32772 44.7944 5.42431C44.9117 5.47502 44.962 5.56679 44.9572 5.72617C44.9548 5.83725 44.8159 6.75247 44.768 6.98912L44.7537 7.05673H45.6517H46.5474L46.6384 6.50615C46.6863 6.2043 46.7318 5.85415 46.7389 5.72858C46.7916 4.73367 46.1043 4.2 44.7824 4.20966C44.5788 4.21207 44.3849 4.2169 44.3513 4.22173Z" fill="white"/>
<path d="M49.3019 4.2463C48.4086 4.36704 47.8674 4.77273 47.6064 5.51891C47.4938 5.83767 47.3693 6.55729 47.3549 6.96056C47.3453 7.26 47.3501 7.3421 47.3932 7.5208C47.4483 7.75262 47.5704 8.02067 47.7045 8.20178C47.7524 8.26457 48.1117 8.60506 48.502 8.95762C49.2588 9.63619 49.3091 9.69414 49.3474 9.94287C49.3665 10.0805 49.1582 11.4038 49.0959 11.5246C49.0049 11.7033 48.8397 11.7902 48.6481 11.7588C48.5284 11.7395 48.4517 11.6791 48.4086 11.5777C48.3727 11.4932 48.3775 11.4473 48.4948 10.7035C48.5619 10.2713 48.617 9.90423 48.617 9.88733C48.617 9.8656 48.4254 9.85835 47.7429 9.85835C47.2615 9.85835 46.8688 9.86318 46.8688 9.87043C46.8688 9.87767 46.8161 10.2013 46.749 10.59C46.6149 11.3749 46.6053 11.5656 46.6772 11.8482C46.7442 12.1162 46.8496 12.2973 47.0388 12.4784C47.2352 12.6644 47.4986 12.802 47.8147 12.8817C48.0087 12.9324 48.0853 12.9373 48.5691 12.9373C48.9834 12.9348 49.163 12.9252 49.345 12.8914C50.2334 12.7272 50.7172 12.3046 50.9423 11.5004C51.007 11.2759 51.1506 10.4331 51.1794 10.1192C51.2369 9.51786 51.098 8.98902 50.7914 8.64128C50.7363 8.57608 50.3819 8.24766 50.0011 7.90959C49.6204 7.57151 49.2827 7.25517 49.2516 7.20446C49.1558 7.05957 49.1534 6.92917 49.2396 6.34237C49.2803 6.05259 49.3306 5.76281 49.3498 5.70002C49.4384 5.41749 49.8191 5.29433 50.0107 5.48752C50.0706 5.54789 50.0778 5.57445 50.0778 5.70244C50.0778 5.78213 50.0347 6.11537 49.982 6.44137C49.9293 6.76738 49.8862 7.04025 49.8862 7.04508C49.8862 7.05233 50.2885 7.05715 50.7795 7.05715H51.6727L51.7661 6.48243C51.9218 5.53099 51.8906 5.18084 51.62 4.81861C51.3063 4.40326 50.7507 4.20525 49.9101 4.21008C49.7066 4.21249 49.4312 4.22698 49.3019 4.2463Z" fill="white"/>
</svg>
