<svg width="52" height="15" viewBox="0 0 52 15" fill="none" xmlns="http://www.w3.org/2000/svg">
<path d="M4.54332 0.0284831C4.46624 0.0366027 4.21474 0.0690811 3.98351 0.105619C2.11345 0.385746 0.815363 1.42911 0.40971 2.97996C0.1866 3.8244 0.219053 4.83529 0.494897 5.68378C0.60848 6.04511 0.892437 6.58506 1.13177 6.90578C1.39545 7.25493 2.12562 7.95321 2.54345 8.26176C2.72599 8.39573 2.87202 8.52158 2.86391 8.54594C2.8558 8.56624 2.20675 9.54059 1.42384 10.7058C0.640932 11.8709 0 12.8372 0 12.8493C0 12.8615 0.539519 12.8696 1.19668 12.8696H2.39335L4.01597 10.4337L5.63858 7.99787L4.85567 7.47416C3.55352 6.59724 3.06674 6.1466 2.77872 5.54169C2.5759 5.11947 2.51099 4.83123 2.48665 4.24256C2.46232 3.65388 2.51099 3.36564 2.70571 2.96372C2.87202 2.6227 3.25334 2.26543 3.65899 2.07056C4.162 1.82697 4.43379 1.78232 5.42764 1.75796L6.28763 1.73766V7.30364V12.8696H7.40317H8.51872V6.43485V6.45509e-05L6.60403 0.00818415C5.54934 0.00818415 4.62039 0.0203635 4.54332 0.0284831Z" fill="white"/>
<path d="M31.6484 3.41346C30.9304 3.49871 30.2205 3.79102 29.7256 4.20106C29.04 4.77349 28.5451 5.72349 28.3342 6.84805C28.245 7.32305 28.2125 8.72368 28.2734 9.24739C28.4194 10.4288 28.7926 11.2814 29.4497 11.939C29.8554 12.341 30.2245 12.5724 30.7641 12.7672C31.3928 12.9905 31.762 13.0474 32.6179 13.0474C33.7375 13.0474 34.5813 12.8647 35.3561 12.4506L35.6806 12.276L35.6928 11.3747C35.6968 10.8794 35.6928 10.4735 35.6846 10.4735C35.6725 10.4735 35.5589 10.5384 35.4291 10.6155C35.0964 10.8185 34.4271 11.0702 33.8998 11.1961C33.5185 11.2854 33.3521 11.3016 32.8207 11.3016C32.1595 11.3016 31.8512 11.2489 31.5105 11.0784C31.2995 10.9687 31.0075 10.6967 30.8655 10.4735C30.7235 10.2502 30.5653 9.76705 30.5288 9.4382C30.5166 9.30423 30.4963 9.15402 30.4842 9.10124L30.4679 9.01192H33.125H35.782V8.06599C35.782 7.0145 35.7455 6.62882 35.5954 6.01985C35.3196 4.89935 34.78 4.16046 33.9484 3.75854C33.5144 3.55149 33.2061 3.46624 32.6585 3.4094C32.2204 3.36474 32.0703 3.36474 31.6484 3.41346ZM32.7031 5.22413C33.2142 5.45148 33.4901 6.01985 33.5387 6.94954L33.5631 7.388L32.0256 7.37988L30.4882 7.3677L30.5004 7.12412C30.5328 6.5395 30.7316 5.93865 30.9993 5.59763C31.1454 5.41494 31.4131 5.24443 31.6808 5.16729C31.9486 5.09422 32.4719 5.12263 32.7031 5.22413Z" fill="white"/>
<path d="M48.7832 3.40968C47.3107 3.57613 46.2033 4.35561 45.5948 5.65475C45.2459 6.40175 45.0959 7.17717 45.0918 8.24084C45.0918 9.93783 45.4934 11.1436 46.3372 11.9718C46.6617 12.2925 46.8604 12.4306 47.2904 12.6335C48.5358 13.2263 50.6858 13.2019 51.5782 12.5929L51.7405 12.4793L51.7526 11.5983C51.7567 11.1152 51.7526 10.7173 51.7445 10.7173C51.7323 10.7173 51.6066 10.7823 51.4646 10.8594C50.9008 11.168 50.3653 11.2979 49.6311 11.2979C49.2497 11.2979 49.0875 11.2776 48.8928 11.2126C47.8746 10.8838 47.3797 9.88912 47.3797 8.17994C47.3797 6.68188 47.7894 5.74406 48.6129 5.33808C48.9901 5.15133 49.2863 5.09855 49.8136 5.12697C50.3409 5.15539 50.9373 5.3056 51.3875 5.52077L51.7202 5.67911V4.74535V3.8116L51.5498 3.73852C50.9251 3.47057 49.6189 3.3163 48.7832 3.40968Z" fill="white"/>
<path d="M10.3457 8.22116V12.8696H11.4612H12.5768V10.9209V8.97222H14.0371H15.4975V10.9209V12.8696H16.613H17.7286V8.22116V3.57269H16.613H15.4975V5.3996V7.22651H14.0371H12.5768V5.3996V3.57269H11.4612H10.3457V8.22116Z" fill="white"/>
<path d="M20.2267 5.2037C20.1901 7.91565 19.9751 9.51927 19.4884 10.7778L19.3626 11.1026L18.9894 11.1148L18.6162 11.127L18.6243 13.0635L18.6365 15H19.6506H20.6648L20.6769 13.9323L20.685 12.8686H23.1392H25.5934L25.6016 13.9323L25.6137 15H26.6279H27.642V13.0716V11.1432L27.1674 11.131L26.6887 11.1188V7.34728V3.57166H23.4678H20.251L20.2267 5.2037ZM24.4576 8.19984V11.1229H22.9121C21.6911 11.1229 21.3706 11.1107 21.3909 11.0701C21.7965 10.0836 22.0602 8.33787 22.1292 6.15776L22.1576 5.27678H23.3096H24.4576V8.19984Z" fill="white"/>
<path d="M37.2822 8.22116V12.8696H38.3775H39.4728L39.4809 10.5921L39.493 8.31859L41.0994 10.584L42.7058 12.8493L43.9512 12.8615C44.6327 12.8656 45.1925 12.8615 45.1925 12.8453C45.1925 12.8331 44.4136 11.7166 43.4603 10.3647C42.5111 9.01282 41.7322 7.8842 41.7322 7.85984C41.7322 7.83548 42.3772 6.91796 43.1683 5.82588C43.9593 4.72973 44.6489 3.77568 44.6976 3.7026L44.7909 3.57269H43.6834H42.576L41.0345 5.70408L39.493 7.83954L39.4809 5.70408L39.4728 3.57269H38.3775H37.2822V8.22116Z" fill="white"/>
</svg>
